<svg width="152" height="32" viewBox="0 0 152 32" fill="none" xmlns="http://www.w3.org/2000/svg">
<g clip-path="url(#clip0_39181_15131)">
<path d="M15.6 31.8001C23.6634 31.8001 30.2 25.2634 30.2 17.2001C30.2 9.13673 23.6634 2.6001 15.6 2.6001C7.53664 2.6001 1 9.13673 1 17.2001C1 25.2634 7.53664 31.8001 15.6 31.8001Z" stroke="#B2B3B3" stroke-width="0.3" stroke-linecap="round" stroke-linejoin="round"/>
<path fill-rule="evenodd" clip-rule="evenodd" d="M15.4993 31.9001V32.0001C15.4993 31.9334 15.4993 31.9001 15.4993 31.9001ZM8.49922 22.6001L1.49922 13.3001C1.43255 13.3001 1.43255 13.2668 1.49922 13.2001C1.49922 13.1334 1.53255 13.1001 1.59922 13.1001H29.6993V13.3001L29.7993 13.4001L29.6993 13.2001C29.7659 13.2001 29.7993 13.2334 29.7993 13.3001C29.7993 13.3668 29.7659 13.4001 29.6993 13.4001L22.6993 22.7001L22.4993 22.5001L29.3993 13.5001H1.79922L8.69922 22.5001L15.5993 31.7001L22.4993 22.5001C22.4993 22.5668 22.4993 22.6334 22.4993 22.7001C22.5993 22.7001 22.6993 22.7001 22.6993 22.7001L15.6993 32.0001L15.4993 31.8001C15.4326 31.8001 15.4326 31.8334 15.4993 31.9001L8.49922 22.6001ZM15.5993 13.4001C15.6659 13.4001 15.6993 13.3668 15.6993 13.3001C15.6993 13.2001 15.6993 13.2001 15.5993 13.2001V13.4001ZM15.4993 31.9001H15.6993C15.6993 31.9001 15.5993 31.9001 15.4993 31.9001Z" fill="#B2B3B3"/>
<path fill-rule="evenodd" clip-rule="evenodd" d="M10.6984 19.3001H10.5984L5.79835 10.3001C5.69835 10.2001 5.79835 10.2001 5.79835 10.1001C5.86502 10.1001 5.89835 10.1001 5.89835 10.1001H25.2984L25.3984 10.2001L25.4984 10.3001L25.3984 10.1001L25.4984 10.2001C25.4317 10.2667 25.4317 10.3001 25.4984 10.3001L20.5984 19.3001L20.3984 19.2001L25.0984 10.4001H6.09835L10.8984 19.2001C10.7984 19.1001 10.7984 19.1001 10.6984 19.1001C10.5984 19.2001 10.5984 19.2001 10.5984 19.3001L10.8984 19.2001L15.5984 28.0001L20.3984 19.2001C20.3984 19.2001 20.3984 19.3001 20.3984 19.4001C20.465 19.4001 20.5317 19.4001 20.5984 19.4001L15.6984 28.3001L15.4984 28.2001C15.4984 28.2001 15.4984 28.2334 15.4984 28.3001L10.6984 19.3001ZM15.4984 28.3001H15.7984C15.6984 28.3001 15.6984 28.4001 15.5984 28.3001C15.5984 28.3001 15.565 28.3001 15.4984 28.3001Z" fill="#B2B3B3"/>
<path fill-rule="evenodd" clip-rule="evenodd" d="M10.8991 15.3001H20.2991L15.5991 24.3001L10.8991 15.3001ZM10.5991 15.2001C10.4991 15.2001 10.5991 15.1001 10.5991 15.1001C10.5991 15.1001 10.6324 15.1001 10.6991 15.1001H20.4991V15.2001H20.5991L20.4991 15.1001C20.5658 15.1001 20.5991 15.1334 20.5991 15.2001L18.0991 20.0001L15.6991 24.7001L15.4991 24.6001C15.4991 24.6001 15.4991 24.6334 15.4991 24.7001L12.9991 20.0001L10.5991 15.2001ZM15.4991 24.6001H15.5991C15.5324 24.6001 15.4991 24.6001 15.4991 24.6001ZM15.4991 24.6001L15.6991 24.7001C15.6991 24.7001 15.5991 24.7001 15.4991 24.7001C15.4991 24.7001 15.4991 24.6668 15.4991 24.6001Z" fill="#B2B3B3"/>
<path fill-rule="evenodd" clip-rule="evenodd" d="M7.10078 6.7C7.03411 6.63333 7.03411 6.56667 7.10078 6.5C7.10078 6.5 7.13411 6.5 7.20078 6.5H24.0008C24.1341 6.5 24.2008 6.53333 24.2008 6.6C24.2008 6.6 24.1674 6.63333 24.1008 6.7L19.9008 13L19.7008 12.8L23.8008 6.8H7.40078L11.5008 12.8C11.5008 12.8 11.4008 12.8 11.3008 12.8L11.2008 12.9L7.10078 6.7ZM19.8008 12.8V12.9C19.8008 12.8333 19.8008 12.8 19.8008 12.8ZM19.8008 13C19.9008 13 20.0008 13 20.0008 13L15.8008 19.2L15.6008 19.1C15.5341 19.1667 15.5341 19.2 15.6008 19.2L11.3008 13L11.6008 12.8L15.7008 18.9L19.8008 12.9C19.8008 12.9667 19.8008 13 19.8008 13ZM15.8008 19.2C15.7008 19.3 15.7008 19.3 15.6008 19.3C15.6008 19.3 15.6008 19.2667 15.6008 19.2H15.8008Z" fill="#B2B3B3"/>
<path fill-rule="evenodd" clip-rule="evenodd" d="M13.6984 19.0001L13.8984 18.9001C13.8984 18.8001 13.7984 18.8001 13.7984 18.9001C13.6984 18.9001 13.6984 18.9001 13.6984 19.0001L11.8984 16.9001C11.8984 16.8001 11.8984 16.7001 11.9984 16.7001C11.9984 16.6334 12.0318 16.6001 12.0984 16.6001H19.1984V16.8001L19.2984 16.9001L17.4984 19.0001L15.6984 21.2001L15.4984 21.1001C15.4318 21.1001 15.4318 21.1334 15.4984 21.2001L13.6984 19.0001ZM15.5984 21.2001C15.5984 21.2001 15.5318 21.2001 15.3984 21.2001H15.5984ZM17.1984 18.8001L18.7984 16.9001H12.2984L13.8984 18.8001L15.4984 20.9001L17.1984 18.8001ZM19.1984 16.8001L19.0984 16.6001L19.1984 16.7001C19.1984 16.7668 19.1984 16.8001 19.1984 16.8001Z" fill="#B2B3B3"/>
<path fill-rule="evenodd" clip-rule="evenodd" d="M8.5 11.8L15.5 2.6C15.5 2.53333 15.5 2.5 15.5 2.5C15.6 2.5 15.6 2.5 15.7 2.6L22.7 11.8C22.7 11.8 22.7 11.7 22.6 11.8C22.5 11.8 22.5 11.9 22.5 11.9L15.6 2.8L1.9 21H29.4L22.6 12L22.8 11.8L29.8 21C29.8667 21 29.9 21.0333 29.9 21.1C29.9 21.2333 29.8333 21.3 29.7 21.3H1.6V21.1H1.5L8.5 11.8ZM1.6 21.3V21.2C1.6 21.2 1.6 21.2333 1.6 21.3ZM1.6 21.1V21.2C1.53333 21.2 1.53333 21.1667 1.6 21.1ZM15.9 21.1C15.9 21.0333 15.8333 21 15.7 21V21.3C15.8333 21.3 15.9 21.2333 15.9 21.1ZM22.6 12C22.6 11.9333 22.6 11.9 22.6 11.9V12Z" fill="#B2B3B3"/>
<path fill-rule="evenodd" clip-rule="evenodd" d="M26.0991 24.5999C26.1658 24.5999 26.1658 24.6332 26.0991 24.6999C26.0991 24.6999 26.0991 24.7999 25.9991 24.7999H5.19913C5.19913 24.7999 5.16579 24.7666 5.09913 24.6999C5.09913 24.6999 4.99913 24.5999 5.09913 24.5999L10.2991 15.5999C10.2991 15.5999 10.2991 15.6999 10.3991 15.6999C10.3991 15.7666 10.4324 15.7666 10.4991 15.6999L5.39913 24.5999H25.7991L15.5991 6.7999L10.4991 15.6999L10.2991 15.4999L15.4991 6.4999C15.4991 6.4999 15.4991 6.46657 15.4991 6.3999C15.5991 6.3999 15.6991 6.3999 15.6991 6.4999L26.0991 24.5999ZM10.5991 15.6999H10.4991C10.4991 15.6999 10.5324 15.6999 10.5991 15.6999ZM10.2991 15.5999C10.2991 15.5999 10.2991 15.5666 10.2991 15.4999V15.5999Z" fill="#B2B3B3"/>
<path fill-rule="evenodd" clip-rule="evenodd" d="M15.4984 13.3002C15.4984 13.3002 15.5318 13.2668 15.5984 13.2002C15.5984 13.2002 15.6984 13.2002 15.6984 13.3002L19.2984 20.8002C19.1984 20.6002 19.1984 20.6002 19.0984 20.7002C19.0984 20.7002 19.0651 20.7002 18.9984 20.7002L15.6984 13.6002L12.1984 20.8002L8.69844 28.1002H22.4984L19.0984 20.8002L19.2984 20.7002L22.8984 28.2002C22.8984 28.3002 22.7984 28.3002 22.6984 28.3002H8.39844V28.2002L11.8984 20.8002L15.4984 13.3002ZM19.0984 20.8002L18.9984 20.7002C18.9984 20.7002 19.0318 20.7335 19.0984 20.8002Z" fill="#B2B3B3"/>
<path fill-rule="evenodd" clip-rule="evenodd" d="M13.1991 14.8002L12.9991 14.6002L15.4991 10.2002L15.5991 10.3002C15.6991 10.3002 15.7991 10.3002 15.7991 10.3002L18.1991 14.7002C18.1991 14.7002 18.1658 14.7002 18.0991 14.7002L17.9991 14.8002L15.5991 10.5002L13.1991 14.8002ZM18.1991 14.7002L20.5991 19.1002C20.6658 19.1002 20.6991 19.1335 20.6991 19.2002C20.6991 19.2669 20.6658 19.3002 20.5991 19.3002H10.7991C10.7324 19.3669 10.6658 19.3669 10.5991 19.3002C10.5991 19.3002 10.4991 19.2002 10.5991 19.2002V19.1002L12.9991 14.8002C12.9991 14.8002 12.9991 14.7669 12.9991 14.7002L13.1991 14.8002C13.1991 14.8669 13.1991 14.9002 13.1991 14.9002L10.8991 19.1002H15.5991V19.3002C15.7324 19.3002 15.7991 19.2669 15.7991 19.2002C15.7991 19.1335 15.7324 19.1002 15.5991 19.1002H20.3991L17.9991 14.9002L18.1991 14.8002C18.1991 14.8002 18.1991 14.7669 18.1991 14.7002Z" fill="#B2B3B3"/>
<path d="M46.2984 11.0002H45.2984V27.4002L41.8984 24.2002V23.2002C41.5651 23.6002 41.1984 24.0002 40.7984 24.4002C40.3984 24.8002 39.8984 25.1669 39.2984 25.5002C38.7651 25.9002 38.1651 26.2335 37.4984 26.5002C36.8318 26.8335 36.1318 27.1002 35.3984 27.3002C34.6651 27.5002 33.9651 27.6002 33.2984 27.6002C32.3651 27.6002 31.4984 27.4002 30.6984 27.0002C29.8984 26.6002 29.2651 26.0669 28.7984 25.4002C28.2651 24.8002 27.8984 24.0669 27.6984 23.2002C27.4318 22.3335 27.3984 21.4335 27.5984 20.5002C27.7318 19.5669 27.9651 18.6335 28.2984 17.7002C28.6984 16.7669 29.1651 15.8335 29.6984 14.9002C30.2318 14.0335 30.7651 13.1669 31.2984 12.3002C31.6318 11.7669 31.8984 11.3335 32.0984 11.0002H27.3984L29.2984 7.7002H36.2984C36.2984 7.7002 36.1984 7.9002 35.9984 8.3002C35.7984 8.7002 35.5318 9.16687 35.1984 9.7002C34.8651 10.3002 34.4651 11.0002 33.9984 11.8002C33.5984 12.5335 33.2318 13.2669 32.8984 14.0002C31.9651 15.8669 31.3651 17.5335 31.0984 19.0002C30.8318 20.4669 30.7984 21.6335 30.9984 22.5002C31.1984 23.1669 31.5984 23.6669 32.1984 24.0002C32.8651 24.4002 33.7651 24.5002 34.8984 24.3002C36.0318 24.1669 37.3318 23.5669 38.7984 22.5002C39.4651 22.1002 40.0651 21.6669 40.5984 21.2002C41.0651 20.7335 41.4984 20.3002 41.8984 19.9002V11.0002H39.1984L41.0984 7.7002H48.2984L46.2984 11.0002Z" fill="#3F3F3E"/>
<path d="M62.0016 7.9002C62.6016 7.96687 63.1683 8.16687 63.7016 8.5002C64.2349 8.9002 64.6683 9.36687 65.0016 9.9002C65.3349 10.3669 65.5683 10.9002 65.7016 11.5002C65.8349 12.1002 65.8349 12.6669 65.7016 13.2002C65.5683 13.8002 65.3016 14.2669 64.9016 14.6002C64.5016 14.9335 63.9016 15.1335 63.1016 15.2002C62.7016 15.2002 62.3016 15.1335 61.9016 15.0002C61.5683 14.8002 61.2683 14.5669 61.0016 14.3002C60.8016 14.0335 60.6349 13.6669 60.5016 13.2002C60.3683 12.8669 60.3683 12.5002 60.5016 12.1002C60.1683 12.1669 59.7683 12.3002 59.3016 12.5002C58.8349 12.7669 58.3683 13.0669 57.9016 13.4002C57.3016 13.6669 56.7683 13.9669 56.3016 14.3002C55.7683 14.7002 55.2683 15.0335 54.8016 15.3002V27.4002L51.4016 24.2002V11.1002H48.6016L50.5016 7.7002H54.8016V13.3002C55.4016 12.6335 55.9683 11.9669 56.5016 11.3002C57.1016 10.6335 57.6349 10.1002 58.1016 9.7002C58.3016 9.5002 58.5683 9.3002 58.9016 9.1002C59.1683 8.9002 59.4683 8.7002 59.8016 8.5002C60.2016 8.3002 60.5683 8.13354 60.9016 8.0002C61.3016 7.86687 61.6683 7.83354 62.0016 7.9002Z" fill="#3F3F3E"/>
<path d="M86.1009 11.0002H85.1009V27.4002L81.8008 24.2002V23.2002C81.4008 23.6002 81.0009 24.0002 80.6009 24.4002C80.2675 24.8002 79.7675 25.1669 79.1009 25.5002C78.5675 25.9002 77.9675 26.2335 77.3008 26.5002C76.6342 26.8335 75.9342 27.1002 75.2009 27.3002C74.4675 27.5002 73.7675 27.6002 73.1009 27.6002C72.1675 27.6002 71.3008 27.4002 70.5008 27.0002C69.7675 26.6002 69.1342 26.0669 68.6009 25.4002C68.0675 24.8002 67.7008 24.0669 67.5008 23.2002C67.3008 22.3335 67.2675 21.4335 67.4008 20.5002C67.5342 19.5669 67.8009 18.6335 68.2009 17.7002C68.6009 16.7669 69.0675 15.8335 69.6009 14.9002C70.1342 14.0335 70.6675 13.1669 71.2009 12.3002C71.4675 11.7669 71.7342 11.3335 72.0008 11.0002H67.3008L69.1009 7.7002H76.2009C76.2009 7.7002 76.1008 7.9002 75.9008 8.3002C75.6342 8.7002 75.3342 9.16687 75.0008 9.7002C74.6675 10.3002 74.3008 11.0002 73.9008 11.8002C73.4342 12.5335 73.0342 13.2669 72.7009 14.0002C71.8342 15.8669 71.2675 17.5335 71.0008 19.0002C70.7342 20.4669 70.7008 21.6335 70.9008 22.5002C71.1008 23.1669 71.5009 23.6669 72.1009 24.0002C72.7675 24.4002 73.6342 24.5002 74.7009 24.3002C75.8342 24.1669 77.1675 23.5669 78.7009 22.5002C79.3009 22.1002 79.8675 21.6669 80.4008 21.2002C80.9342 20.7335 81.4008 20.3002 81.8008 19.9002V11.0002H79.0008L80.9008 7.7002H88.1009L86.1009 11.0002Z" fill="#3F3F3E"/>
<path d="M102.101 27.5L93.1009 18.1V27.4L89.8008 24.2V0L93.1009 3.2V13.3C93.5009 13.0333 93.8675 12.7333 94.2009 12.4C94.6009 12.0667 95.0008 11.7333 95.4008 11.4C95.7342 11.0667 96.0675 10.7667 96.4008 10.5C96.7342 10.2333 97.0009 9.99999 97.2009 9.79999C97.4009 9.59999 97.6342 9.36666 97.9008 9.09999C98.2342 8.83333 98.5675 8.56666 98.9008 8.29999C99.2342 8.09999 99.5675 7.93333 99.9009 7.79999C100.234 7.66666 100.501 7.66666 100.701 7.79999C101.034 7.93333 101.334 8.13333 101.601 8.39999C101.934 8.73333 102.268 9.09999 102.601 9.49999C102.868 9.89999 103.134 10.3 103.401 10.7C103.734 11.1 103.968 11.5 104.101 11.9L101.701 14.5C101.501 14.2333 101.301 13.9667 101.101 13.7C100.901 13.3667 100.668 13.0667 100.401 12.8C100.134 12.5333 99.8675 12.3333 99.6009 12.2C99.3342 12.0667 99.1008 12.0333 98.9008 12.1C98.6342 12.1667 98.3342 12.3 98.0008 12.5C97.6008 12.7 97.2009 12.9333 96.8009 13.2C96.3342 13.4 95.8675 13.6667 95.4008 14C95.0008 14.2667 94.5675 14.5333 94.1009 14.8L104.401 25L102.101 27.5Z" fill="#3F3F3E"/>
<path d="M125.098 11.0002H124.098V27.4002L120.798 24.2002V23.2002C120.398 23.6002 119.998 24.0002 119.598 24.4002C119.198 24.8002 118.698 25.1669 118.098 25.5002C117.498 25.9002 116.865 26.2335 116.198 26.5002C115.531 26.8335 114.831 27.1002 114.098 27.3002C113.431 27.5002 112.765 27.6002 112.098 27.6002C111.098 27.6002 110.231 27.4002 109.498 27.0002C108.765 26.6002 108.131 26.0669 107.598 25.4002C106.998 24.8002 106.631 24.0669 106.498 23.2002C106.231 22.3335 106.198 21.4335 106.398 20.5002C106.531 19.5669 106.798 18.6335 107.198 17.7002C107.531 16.7669 107.965 15.8335 108.498 14.9002C109.031 14.0335 109.598 13.1669 110.198 12.3002C110.465 11.7669 110.698 11.3335 110.898 11.0002H106.298L108.098 7.7002H115.098C115.098 7.7002 114.998 7.9002 114.798 8.3002C114.598 8.7002 114.331 9.16687 113.998 9.7002C113.665 10.3002 113.298 11.0002 112.898 11.8002C112.431 12.5335 112.031 13.2669 111.698 14.0002C110.765 15.8669 110.198 17.5335 109.998 19.0002C109.731 20.4669 109.698 21.6335 109.898 22.5002C110.031 23.1669 110.398 23.6669 110.998 24.0002C111.731 24.4002 112.631 24.5002 113.698 24.3002C114.831 24.1669 116.131 23.5669 117.598 22.5002C118.265 22.1002 118.865 21.6669 119.398 21.2002C119.931 20.7335 120.398 20.3002 120.798 19.9002V11.0002H117.998L119.898 7.7002H126.998L125.098 11.0002Z" fill="#3F3F3E"/>
<path d="M132.502 27.5L129.102 24.2V0L132.502 3.2V27.5Z" fill="#3F3F3E"/>
<path d="M23.8984 10.9998H21.8984V27.3998L18.3984 24.1998V11.0998H13.4984L13.5984 21.9998C13.5984 22.3998 13.5651 22.6998 13.4984 22.8998C13.2984 23.4998 12.8984 23.7998 12.2984 23.7998C11.7651 23.7331 10.6984 22.9664 9.09845 21.4998C7.49845 20.0331 6.69845 19.0664 6.69845 18.5998C6.69845 18.1998 6.89845 17.8998 7.29845 17.6998C7.39845 17.5998 7.59845 17.4998 7.89845 17.4998H10.0984L9.99842 11.0998H3.89844L5.79845 7.7998H25.7984L23.8984 10.9998Z" fill="#4F46E5"/>
<path fill-rule="evenodd" clip-rule="evenodd" d="M139.099 7.8C139.566 7.8 140.066 7.8 140.599 7.8C141.532 7.73333 142.466 7.73333 143.399 7.8C144.399 7.8 145.366 7.9 146.299 8.1C147.232 8.16667 148.099 8.36667 148.899 8.7C149.632 9.03333 150.232 9.5 150.699 10.1C151.166 10.6333 151.399 11.3333 151.399 12.2V27.5L148.999 25.2C148.599 25.8667 147.899 26.4 146.899 26.8C145.966 27.2 144.932 27.4667 143.799 27.6C142.599 27.6667 141.399 27.6 140.199 27.4C138.932 27.2 137.866 26.8 136.999 26.2C136.066 25.6 135.399 24.8333 134.999 23.9C134.532 22.9 134.532 21.6667 134.999 20.2C135.199 19.4 135.599 18.7333 136.199 18.2C136.732 17.6667 137.366 17.2 138.099 16.8C138.766 16.4 139.499 16.1 140.299 15.9C141.166 15.6333 141.999 15.3333 142.799 15C144.332 14.3333 145.432 13.7667 146.099 13.3C146.766 12.8333 147.099 12.4667 147.099 12.2C147.099 11.9333 146.866 11.7333 146.399 11.6C145.932 11.4667 145.299 11.3667 144.499 11.3C143.766 11.1667 142.966 11.1333 142.099 11.2C141.699 11.2 136.699 11.2 136.599 11.2L137.199 10.3L137.799 9.5L139.099 7.8ZM148.099 15.5C147.632 15.8333 147.099 16.1667 146.499 16.5C145.899 16.7 145.266 16.9667 144.599 17.3C143.999 17.5 143.332 17.7333 142.599 18C140.399 18.8 136.799 21 138.499 23.8C138.899 24.4667 139.432 24.9 140.099 25.1C140.832 25.3 141.666 25.3667 142.599 25.3C143.466 25.1667 144.299 24.9 145.099 24.5C145.899 24.0333 146.599 23.5 147.199 22.9C147.732 22.3 147.999 21.6667 147.999 21L148.099 15.5Z" fill="#3F3F3E"/>
</g>
<defs>
<clipPath id="clip0_39181_15131">
<rect width="152" height="32" fill="white"/>
</clipPath>
</defs>
</svg>
