<svg width="77" height="26" viewBox="0 0 77 26" fill="none" xmlns="http://www.w3.org/2000/svg">
<path d="M13.376 3.728H8.48V22H5.216V3.728H0.32V0.655998H13.376V3.728ZM42.79 0.655998H46.054V18.928H52.326V22H42.79V0.655998ZM55.7037 0.655998H58.9677V22H55.7037V0.655998ZM64.3987 0.655998H69.1027C71.0654 0.655998 72.6227 1.04 73.7747 1.808C74.6281 2.384 75.2787 3.14133 75.7267 4.08C76.1961 4.99733 76.4307 5.968 76.4307 6.992C76.4307 8.912 75.7374 10.4693 74.3507 11.664C73.0494 12.7733 71.3107 13.328 69.1347 13.328H67.6627V22H64.3987V0.655998ZM67.6627 3.664V10.32H69.1347C70.5001 10.32 71.5347 10.0213 72.2387 9.424C72.9427 8.80533 73.2947 7.984 73.2947 6.96C73.2947 6.59733 73.2414 6.256 73.1347 5.936C73.0494 5.616 72.8681 5.27467 72.5907 4.912C72.3347 4.528 71.9081 4.22933 71.3107 4.016C70.7134 3.78133 69.9774 3.664 69.1027 3.664H67.6627Z" fill="#3F3F3E"/>
<path d="M19.2875 24.84L17.4875 25.54C16.9142 24.3133 16.4608 22.9667 16.1275 21.5C15.7808 19.9533 15.6075 18.2533 15.6075 16.4C15.6075 14.5333 15.7942 12.7667 16.1675 11.1C16.4875 9.68667 16.9275 8.38667 17.4875 7.2L19.2875 7.9C18.7408 9.12667 18.3408 10.3333 18.0875 11.52C17.7675 12.96 17.6075 14.5867 17.6075 16.4C17.6075 18.1467 17.7608 19.72 18.0675 21.12C18.3608 22.36 18.7675 23.6 19.2875 24.84ZM22.3039 11.054H24.8519V17.32C24.8519 18.2387 25.0079 18.8973 25.3199 19.296C25.7012 19.7987 26.2559 20.05 26.9839 20.05C27.7119 20.05 28.2665 19.7987 28.6479 19.296C28.9599 18.8973 29.1159 18.2387 29.1159 17.32V11.054H31.6639V17.398C31.6639 19.01 31.2739 20.206 30.4939 20.986C29.5925 21.8873 28.4052 22.338 26.9319 22.338C25.5105 22.338 24.3579 21.8873 23.4739 20.986C22.6939 20.206 22.3039 19.01 22.3039 17.398V11.054ZM36.5456 25.54L34.7456 24.84C35.2656 23.6 35.6723 22.36 35.9656 21.12C36.2723 19.72 36.4256 18.1467 36.4256 16.4C36.4256 14.5867 36.2656 12.96 35.9456 11.52C35.6923 10.3333 35.2923 9.12667 34.7456 7.9L36.5456 7.2C37.1056 8.38667 37.5456 9.68667 37.8656 11.1C38.239 12.7667 38.4256 14.5333 38.4256 16.4C38.4256 18.2533 38.2523 19.9533 37.9056 21.5C37.5723 22.9667 37.119 24.3133 36.5456 25.54Z" fill="#4f46e5"/>
</svg>
