<svg width="103" height="31" viewBox="0 0 103 31" fill="none" xmlns="http://www.w3.org/2000/svg">
<path fill-rule="evenodd" clip-rule="evenodd" d="M14.1399 3.60645C21.3979 3.60645 27.2797 9.48826 27.2797 16.7463C27.2797 24.0023 21.3979 29.8862 14.1399 29.8862C6.88386 29.8862 1 24.0023 1 16.7463C1 9.48826 6.88386 3.60645 14.1399 3.60645Z" stroke="#F1F1F1" stroke-miterlimit="22.9256" stroke-linecap="round" stroke-linejoin="round"/>
<path d="M7.91147 21.4729L14.2336 29.8123L14.0472 29.9536L7.72715 21.6162L7.91147 21.4729ZM7.72715 21.6162C7.68824 21.565 7.69848 21.4913 7.74968 21.4524C7.80088 21.4114 7.87256 21.4217 7.91147 21.4729L7.72715 21.6162ZM1.59139 13.1355L7.91147 21.4729L7.72715 21.6162L1.40707 13.2768L1.49923 13.0905L1.59139 13.1355ZM1.40707 13.2768C1.36816 13.2256 1.37635 13.1519 1.4296 13.113C1.48079 13.0741 1.55247 13.0843 1.59139 13.1355L1.40707 13.2768ZM14.1394 13.3239H1.49923V13.0905H14.1394V13.3239ZM14.1394 13.0905C14.2049 13.0905 14.2561 13.1417 14.2561 13.2072C14.2561 13.2707 14.2049 13.3239 14.1394 13.3239V13.0905ZM26.7796 13.3239H14.1394V13.0905H26.7796L26.8738 13.2768L26.7796 13.3239ZM26.7796 13.0905C26.8451 13.0905 26.8963 13.1417 26.8963 13.2072C26.8963 13.2707 26.8451 13.3239 26.7796 13.3239V13.0905ZM20.3673 21.4729L26.6874 13.1355L26.8738 13.2768L20.5537 21.6162L20.3673 21.4729ZM20.5537 21.6162C20.5148 21.6674 20.441 21.6777 20.3898 21.6388C20.3386 21.5978 20.3284 21.5261 20.3673 21.4729L20.5537 21.6162ZM14.0472 29.8123L20.3673 21.4729L20.5537 21.6162L14.2336 29.9536H14.0472V29.8123ZM14.2336 29.9536C14.1947 30.0048 14.121 30.015 14.0698 29.9761C14.0186 29.9372 14.0083 29.8635 14.0472 29.8123L14.2336 29.9536Z" fill="#F1F1F1"/>
<path d="M9.86707 18.526L14.2416 26.6053L14.0368 26.7179L9.66227 18.6386L9.86707 18.526ZM9.66227 18.6386C9.63155 18.5813 9.65203 18.5096 9.70937 18.4789C9.76467 18.4482 9.83635 18.4687 9.86707 18.526L9.66227 18.6386ZM5.49052 10.4467L9.86707 18.526L9.66227 18.6386L5.28572 10.5593L5.38812 10.3853L5.49052 10.4467ZM5.28572 10.5593C5.255 10.502 5.27548 10.4303 5.33283 10.3996C5.39017 10.3689 5.4598 10.3893 5.49052 10.4467L5.28572 10.5593ZM14.1392 10.6208H5.38812V10.3853H14.1392V10.6208ZM14.1392 10.3853C14.2047 10.3853 14.2559 10.4385 14.2559 10.502C14.2559 10.5675 14.2047 10.6208 14.1392 10.6208V10.3853ZM22.8902 10.6208H14.1392V10.3853H22.8902L22.9926 10.5593L22.8902 10.6208ZM22.8902 10.3853C22.9557 10.3853 23.0069 10.4385 23.0069 10.502C23.0069 10.5675 22.9557 10.6208 22.8902 10.6208V10.3853ZM18.4133 18.526L22.7878 10.4467L22.9926 10.5593L18.6181 18.6386L18.4133 18.526ZM18.6181 18.6386C18.5874 18.6939 18.5157 18.7165 18.4584 18.6857C18.4031 18.655 18.3805 18.5833 18.4133 18.526L18.6181 18.6386ZM14.0368 26.6053L18.4133 18.526L18.6181 18.6386L14.2416 26.7179H14.0368V26.6053ZM14.2416 26.7179C14.2108 26.7753 14.1412 26.7958 14.0839 26.765C14.0265 26.7343 14.006 26.6626 14.0368 26.6053L14.2416 26.7179Z" fill="#F1F1F1"/>
<path d="M12.0394 19.1179L14.243 23.3592L14.0362 23.4678L11.8325 19.2264L12.0394 19.1179ZM11.8325 19.2264C11.8039 19.1691 11.8244 19.0974 11.8817 19.0687C11.939 19.038 12.0107 19.0605 12.0394 19.1179L11.8325 19.2264ZM9.83781 14.8765L12.0394 19.1179L11.8325 19.2264L9.63096 14.985L9.73336 14.813L9.83781 14.8765ZM9.63096 14.985C9.60024 14.9277 9.62277 14.856 9.68011 14.8273C9.73745 14.7966 9.80709 14.8191 9.83781 14.8765L9.63096 14.985ZM14.1386 15.0485H9.73336V14.813H14.1386V15.0485ZM14.1386 14.813C14.2041 14.813 14.2553 14.8662 14.2553 14.9318C14.2553 14.9953 14.2041 15.0485 14.1386 15.0485V14.813ZM18.5438 15.0485H14.1386V14.813H18.5438L18.6482 14.985L18.5438 15.0485ZM18.5438 14.813C18.6093 14.813 18.6605 14.8662 18.6605 14.9318C18.6605 14.9953 18.6093 15.0485 18.5438 15.0485V14.813ZM16.2378 19.1179L18.4393 14.8765L18.6482 14.985L16.4446 19.2264L16.2378 19.1179ZM16.4446 19.2264C16.4159 19.2837 16.3443 19.3063 16.2869 19.2755C16.2296 19.2469 16.207 19.1752 16.2378 19.1179L16.4446 19.2264ZM14.0362 23.3592L16.2378 19.1179L16.4446 19.2264L14.243 23.4678H14.0362V23.3592ZM14.243 23.4678C14.2123 23.5251 14.1427 23.5476 14.0853 23.5169C14.028 23.4883 14.0055 23.4166 14.0362 23.3592L14.243 23.4678Z" fill="#F1F1F1"/>
<path d="M10.4323 12.7711L14.2354 18.4051L14.0428 18.5362L10.2397 12.9042L10.4323 12.7711ZM10.2397 12.9042C10.2029 12.851 10.2172 12.7772 10.2705 12.7404C10.3237 12.7056 10.3954 12.7178 10.4323 12.7711L10.2397 12.9042ZM6.62709 7.13913L10.4323 12.7711L10.2397 12.9042L6.43458 7.2702L6.53084 7.08793L6.62709 7.13913ZM6.43458 7.2702C6.39772 7.21695 6.41206 7.14527 6.4653 7.10841C6.51855 7.07155 6.59023 7.08588 6.62709 7.13913L6.43458 7.2702ZM14.1391 7.3214H6.53084V7.08793H14.1391V7.3214ZM14.1391 7.08793C14.2046 7.08793 14.2558 7.14118 14.2558 7.20467C14.2558 7.2702 14.2046 7.3214 14.1391 7.3214V7.08793ZM21.7494 7.3214H14.1391V7.08793H21.7494L21.8457 7.2702L21.7494 7.3214ZM21.7494 7.08793C21.8129 7.08793 21.8641 7.14118 21.8641 7.20467C21.8641 7.2702 21.8129 7.3214 21.7494 7.3214V7.08793ZM17.848 12.7711L21.6532 7.13913L21.8457 7.2702L18.0405 12.9042L17.848 12.7711ZM18.0405 12.9042C18.0037 12.9575 17.932 12.9697 17.8787 12.9349C17.8255 12.8981 17.8111 12.8264 17.848 12.7711L18.0405 12.9042ZM14.0428 18.4051L17.848 12.7711L18.0405 12.9042L14.2354 18.5362H14.0428V18.4051ZM14.2354 18.5362C14.2005 18.5894 14.1268 18.6038 14.0736 18.5669C14.0203 18.53 14.008 18.4583 14.0428 18.4051L14.2354 18.5362Z" fill="#F1F1F1"/>
<path d="M12.6376 18.2066L14.2289 20.1666L14.0486 20.314L12.4574 18.3541L12.6376 18.2066ZM12.4574 18.3541C12.4164 18.3029 12.4246 18.2292 12.4737 18.1882C12.5229 18.1472 12.5966 18.1554 12.6376 18.2066L12.4574 18.3541ZM11.0463 16.2447L12.6376 18.2066L12.4574 18.3541L10.8661 16.3921L10.9562 16.2017L11.0463 16.2447ZM10.8661 16.3921C10.8251 16.343 10.8333 16.2692 10.8825 16.2283C10.9316 16.1873 11.0053 16.1955 11.0463 16.2447L10.8661 16.3921ZM14.1388 16.4351H10.9562V16.2017H14.1388V16.4351ZM14.1388 16.2017C14.2043 16.2017 14.2555 16.2549 14.2555 16.3184C14.2555 16.3839 14.2043 16.4351 14.1388 16.4351V16.2017ZM17.3234 16.4351H14.1388V16.2017H17.3234L17.4135 16.3921L17.3234 16.4351ZM17.3234 16.2017C17.3869 16.2017 17.4401 16.2549 17.4401 16.3184C17.4401 16.3839 17.3869 16.4351 17.3234 16.4351V16.2017ZM15.6399 18.2066L17.2312 16.2447L17.4135 16.3921L15.8222 18.3541L15.6399 18.2066ZM15.8222 18.3541C15.7812 18.4032 15.7075 18.4114 15.6563 18.3705C15.6072 18.3295 15.599 18.2558 15.6399 18.2066L15.8222 18.3541ZM14.0486 20.1666L15.6399 18.2066L15.8222 18.3541L14.2289 20.314H14.0486V20.1666ZM14.2289 20.314C14.1899 20.3652 14.1162 20.3714 14.065 20.3304C14.0159 20.2915 14.0077 20.2178 14.0486 20.1666L14.2289 20.314Z" fill="#F1F1F1"/>
<path d="M7.91367 12.0032L7.7273 11.8598L14.0474 3.53884L14.2338 3.68015L7.91367 12.0032ZM7.7273 11.8598L7.91367 12.0032C7.87271 12.0544 7.80103 12.0646 7.74983 12.0236C7.69658 11.9847 7.68839 11.9131 7.7273 11.8598ZM1.59154 20.3241L1.49938 20.3692L1.40722 20.1828L7.7273 11.8598L7.91367 12.0032L1.59154 20.3241ZM1.40722 20.1828L1.59154 20.3241C1.55262 20.3753 1.48095 20.3856 1.4277 20.3467C1.3765 20.3078 1.36831 20.234 1.40722 20.1828ZM14.1395 20.1357V20.3692H1.49938V20.1357H14.1395ZM14.1395 20.3692V20.1357C14.2051 20.1357 14.2563 20.189 14.2563 20.2525C14.2563 20.318 14.2051 20.3692 14.1395 20.3692ZM26.7797 20.1357L26.8739 20.1828L26.7797 20.3692H14.1395V20.1357H26.7797ZM26.7797 20.3692V20.1357C26.8452 20.1357 26.8985 20.189 26.8985 20.2525C26.8985 20.318 26.8452 20.3692 26.7797 20.3692ZM20.3675 12.0032L20.5538 11.8598L26.8739 20.1828L26.6876 20.3241L20.3675 12.0032ZM20.5538 11.8598L20.3675 12.0032C20.3286 11.9499 20.3388 11.8782 20.39 11.8393C20.4412 11.7984 20.5149 11.8086 20.5538 11.8598ZM14.0474 3.68015V3.53884H14.2338L20.5538 11.8598L20.3675 12.0032L14.0474 3.68015ZM14.2338 3.53884L14.0474 3.68015C14.0085 3.62895 14.0187 3.55523 14.0699 3.51631C14.1211 3.4774 14.1948 3.48764 14.2338 3.53884Z" fill="#F1F1F1"/>
<path d="M9.56641 15.3637L9.36366 15.247L14.0392 7.12874L14.242 7.24548L9.56641 15.3637ZM9.36366 15.247L9.56641 15.3637C9.53364 15.421 9.46196 15.4395 9.40667 15.4067C9.34932 15.376 9.33089 15.3023 9.36366 15.247ZM4.88881 23.484L4.78846 23.5413L4.68811 23.3672L9.36366 15.247L9.56641 15.3637L4.88881 23.484ZM4.68811 23.3672L4.88881 23.484C4.85809 23.5393 4.78641 23.5597 4.72907 23.527C4.67377 23.4942 4.65534 23.4225 4.68811 23.3672ZM14.1396 23.3078V23.5413H4.78846V23.3078H14.1396ZM14.1396 23.5413V23.3078C14.2051 23.3078 14.2563 23.3611 14.2563 23.4246C14.2563 23.4901 14.2051 23.5413 14.1396 23.5413ZM23.4907 23.3078L23.5931 23.3672L23.4907 23.5413H14.1396V23.3078H23.4907ZM23.4907 23.5413V23.3078C23.5562 23.3078 23.6094 23.3611 23.6094 23.4246C23.6094 23.4901 23.5562 23.5413 23.4907 23.5413ZM18.7148 15.3637L18.9175 15.247L23.5931 23.3672L23.3903 23.484L18.7148 15.3637ZM18.9175 15.247L18.7148 15.3637C18.682 15.3084 18.7025 15.2367 18.7578 15.204C18.8131 15.1712 18.8847 15.1917 18.9175 15.247ZM14.0392 7.24548V7.12874H14.242L18.9175 15.247L18.7148 15.3637L14.0392 7.24548ZM14.242 7.12874L14.0392 7.24548C14.0064 7.18814 14.0249 7.11646 14.0822 7.08574C14.1375 7.05297 14.2092 7.0714 14.242 7.12874Z" fill="#F1F1F1"/>
<path d="M11.0431 19.9962L10.8322 19.8938L14.0352 13.203L14.2461 13.3033L11.0431 19.9962ZM10.8322 19.8938L11.0431 19.9962C11.0144 20.0535 10.9448 20.0781 10.8875 20.0515C10.8301 20.0228 10.8055 19.9532 10.8322 19.8938ZM7.84005 26.6869L7.7356 26.7545L7.63115 26.5866L10.8322 19.8938L11.0431 19.9962L7.84005 26.6869ZM7.63115 26.5866L7.84005 26.6869C7.81342 26.7463 7.74379 26.7709 7.6844 26.7422C7.62706 26.7136 7.60248 26.6439 7.63115 26.5866ZM14.1397 26.519V26.7545H7.7356V26.519H14.1397ZM14.1397 26.7545V26.519C14.2052 26.519 14.2564 26.5722 14.2564 26.6357C14.2564 26.7013 14.2052 26.7545 14.1397 26.7545ZM20.5437 26.519L20.6502 26.5866L20.5437 26.7545H14.1397V26.519H20.5437ZM20.5437 26.7545V26.519C20.6092 26.519 20.6604 26.5722 20.6604 26.6357C20.6604 26.7013 20.6092 26.7545 20.5437 26.7545ZM17.2362 19.9962L17.4471 19.8938L20.6502 26.5866L20.4393 26.6869L17.2362 19.9962ZM17.4471 19.8938L17.2362 19.9962C17.2096 19.9368 17.2342 19.8671 17.2915 19.8405C17.3509 19.8118 17.4205 19.8364 17.4471 19.8938ZM14.0352 13.3033V13.203H14.2461L17.4471 19.8938L17.2362 19.9962L14.0352 13.3033ZM14.2461 13.203L14.0352 13.3033C14.0065 13.246 14.0311 13.1764 14.0905 13.1477C14.1478 13.1211 14.2175 13.1456 14.2461 13.203Z" fill="#F1F1F1"/>
<path d="M12.0306 14.5446L11.8258 14.432L14.0377 10.4507L14.2425 10.5634L12.0306 14.5446ZM11.8258 14.432L12.0306 14.5446C11.9979 14.602 11.9262 14.6225 11.8709 14.5917C11.8135 14.559 11.7931 14.4893 11.8258 14.432ZM9.81676 18.528L9.71436 18.5874L9.61196 18.4133L11.8258 14.432L12.0306 14.5446L9.81676 18.528ZM9.61196 18.4133L9.81676 18.528C9.78604 18.5833 9.71436 18.6037 9.65701 18.573C9.60172 18.5423 9.58124 18.4706 9.61196 18.4133ZM14.1401 18.3539V18.5874H9.71436V18.3539H14.1401ZM14.1401 18.5874V18.3539C14.2056 18.3539 14.2568 18.4051 14.2568 18.4706C14.2568 18.5341 14.2056 18.5874 14.1401 18.5874ZM18.5658 18.3539L18.6681 18.4133L18.5658 18.5874H14.1401V18.3539H18.5658ZM18.5658 18.5874V18.3539C18.6313 18.3539 18.6845 18.4051 18.6845 18.4706C18.6845 18.5341 18.6313 18.5874 18.5658 18.5874ZM16.2515 14.5446L16.4563 14.432L18.6681 18.4133L18.4654 18.528L16.2515 14.5446ZM16.4563 14.432L16.2515 14.5446C16.2208 14.4893 16.2413 14.4177 16.2966 14.3869C16.3539 14.3562 16.4256 14.3767 16.4563 14.432ZM14.0377 10.5634V10.4507H14.2425L16.4563 14.432L16.2515 14.5446L14.0377 10.5634ZM14.2425 10.4507L14.0377 10.5634C14.0069 10.5081 14.0274 10.4364 14.0848 10.4057C14.1401 10.3749 14.2117 10.3954 14.2425 10.4507Z" fill="#F1F1F1"/>
<path d="M98.8393 15.7593C98.4072 16.1423 97.885 16.472 97.2747 16.7526C96.6644 17.0332 96.0213 17.2994 95.3475 17.5534C94.6737 17.8094 93.9856 18.0633 93.2873 18.3173C91.0283 19.1385 87.4157 21.3913 89.1442 24.3322C89.5272 24.9814 90.0801 25.4135 90.8051 25.6306C91.5301 25.8477 92.3575 25.8846 93.2873 25.7453C94.215 25.6061 95.0874 25.3255 95.9005 24.9056C96.7156 24.4858 97.4017 23.9636 97.9628 23.341C98.5219 22.7163 98.8148 22.0487 98.8393 21.336V15.7593ZM89.7176 7.93399C90.1805 7.92784 90.6884 7.91556 91.2454 7.90122C92.1609 7.87664 93.1152 7.88279 94.1065 7.91965C95.0997 7.95856 96.0787 8.04663 97.0453 8.18794C98.014 8.3272 98.8844 8.56272 99.6606 8.89449C100.437 9.22422 101.068 9.67682 101.551 10.2482C102.034 10.8216 102.276 11.5528 102.276 12.4437V28.0534L99.8326 25.688C99.4251 26.3741 98.7247 26.9291 97.7334 27.3489C96.7402 27.7687 95.6465 28.0288 94.4505 28.1312C93.2545 28.2316 92.0339 28.1742 90.7867 27.9592C89.5395 27.7421 88.452 27.3284 87.5222 26.7181C86.5944 26.1078 85.9145 25.2989 85.4803 24.2953C85.0482 23.2898 85.0482 22.061 85.4803 20.611C85.7363 19.7468 86.1418 19.0464 86.703 18.5118C87.2621 17.9773 87.9052 17.5206 88.6301 17.1376C89.3551 16.7567 90.1313 16.4249 90.9587 16.1464C91.7861 15.8658 92.6053 15.5607 93.4204 15.2289C94.9973 14.5674 96.1237 14.0145 96.7975 13.57C97.4733 13.1236 97.8215 12.7549 97.8481 12.4621C97.8727 12.1692 97.6372 11.946 97.1416 11.7944C96.646 11.6408 96.0152 11.5343 95.2513 11.4709C94.4894 11.4053 93.6436 11.3746 92.7138 11.3746C91.7861 11.3746 90.9136 11.3746 90.0985 11.3746C89.2855 11.3746 88.5851 11.3746 87.9994 11.3746C87.5959 11.3746 87.3071 11.3623 87.1331 11.3377L87.7598 10.5124L88.3967 9.67478L89.7176 7.93399Z" fill="#2B2A29"/>
<path d="M80.2554 8.09149C80.8677 8.14269 81.433 8.34544 81.9552 8.70179C82.4754 9.05814 82.9096 9.51075 83.2516 10.0576C83.5957 10.6044 83.8373 11.184 83.9766 11.7943C84.1179 12.4046 84.1302 12.9841 84.0155 13.5309C83.9008 14.0778 83.6284 14.5426 83.1943 14.9236C82.7621 15.3065 82.1518 15.5216 81.3633 15.5728C80.9046 15.5974 80.4971 15.5216 80.1407 15.3434C79.7844 15.1652 79.4874 14.9236 79.2437 14.6184C79.002 14.3133 78.832 13.9631 78.7296 13.5699C78.6272 13.1746 78.6272 12.7732 78.7296 12.3656C78.3733 12.4435 77.9596 12.6012 77.4886 12.8428C77.0175 13.0865 76.5158 13.3651 75.9812 13.6825C75.4467 14.002 74.9122 14.3378 74.3777 14.6942C73.8431 15.0505 73.3475 15.3823 72.8888 15.6875V28.0532L69.4543 24.7334V11.3355H64.959L66.8677 7.93994H72.8888V13.5883C73.4499 12.9268 74.0275 12.2591 74.6255 11.5833C75.2235 10.9095 75.7642 10.3566 76.2475 9.92444C76.4523 9.74626 76.7062 9.54761 77.0114 9.33257C77.3165 9.11549 77.6483 8.91273 78.0047 8.72227C78.361 8.52976 78.7296 8.37207 79.1106 8.24509C79.4935 8.11812 79.8745 8.06692 80.2554 8.09149Z" fill="#2B2A29"/>
<path d="M64.1447 23.7034C64.1693 24.3649 64.0485 24.9936 63.7822 25.5916C63.5139 26.1896 63.1515 26.6996 62.6948 27.1194C62.236 27.5393 61.6953 27.8321 61.0727 27.998C60.4481 28.1619 59.8071 28.1434 59.1435 27.9407C58.5599 27.7359 58.0192 27.4369 57.5215 27.0437C57.0259 26.6484 56.561 26.2347 56.1289 25.8026C55.7992 25.4708 55.4858 25.1349 55.195 24.7909C54.9022 24.4468 54.6155 24.0843 54.3349 23.7034C53.6488 22.7879 53.317 21.8459 53.3437 20.8792V11.2987L49.5508 11.3274L51.4595 7.96871L53.3437 7.94004V0L56.7781 3.28292V7.94004H62.7828L60.8352 11.2987H56.7781L56.7392 24.199C56.7904 24.6065 57.0321 24.8236 57.4642 24.8482C57.8472 24.8728 58.1974 24.7909 58.5148 24.6004C58.8323 24.4099 59.1313 24.1867 59.4118 23.9328C59.9197 23.4986 60.3089 22.9784 60.5751 22.3661C60.8434 21.7558 60.9519 21.1209 60.9007 20.4594C61.511 21.0943 62.0455 21.6411 62.5043 22.0998C62.9098 22.5074 63.2866 22.8821 63.6286 23.2262C63.9727 23.5703 64.1447 23.728 64.1447 23.7034Z" fill="#2B2A29"/>
<path d="M47.9874 24.8481L46.0787 28.2068H39.5149H38.9025C38.9025 28.2068 39.0172 28.0163 39.2466 27.6334C39.476 27.2524 39.7627 26.7568 40.1047 26.1465C40.4488 25.5342 40.8317 24.8481 41.2516 24.0842C41.6694 23.3203 42.0708 22.5585 42.4537 21.7946C43.3692 19.937 43.9672 18.2515 44.2457 16.736C44.5263 15.2226 44.5529 14.0204 44.3236 13.1295C44.1454 12.4168 43.7624 11.9212 43.1787 11.6407C42.466 11.2597 41.5424 11.145 40.4119 11.2986C39.2794 11.4502 37.9359 12.0482 36.3835 13.0927C35.722 13.5494 35.124 14.0143 34.5895 14.4853C34.055 14.9563 33.5839 15.4069 33.1784 15.839V28.0532L29.7419 24.7334V11.2986H26.8809L28.7875 7.93994H33.1784V12.4435C33.3566 12.2387 33.5471 12.0359 33.7498 11.8332C33.9546 11.6284 34.1574 11.4256 34.3601 11.2208C34.7677 10.8399 35.2653 10.4528 35.849 10.0576C36.4347 9.6623 37.0716 9.31209 37.7577 9.00694C38.4458 8.70179 39.1647 8.44784 39.9142 8.24509C40.6659 8.04029 41.3847 7.93994 42.0708 7.93994C43.0374 7.93994 43.9283 8.14269 44.7434 8.55024C45.4807 8.95779 46.1176 9.49231 46.6521 10.1538C47.1866 10.8153 47.5553 11.5649 47.758 12.4046C47.9874 13.32 48.0263 14.2498 47.8727 15.1919C47.7212 16.1319 47.4529 17.0801 47.072 18.0345C46.689 18.9888 46.2323 19.937 45.6978 20.8791C45.1632 21.8191 44.6164 22.7223 44.0553 23.5886C43.9037 23.818 43.7563 24.033 43.617 24.2378C43.4777 24.4406 43.3426 24.6433 43.2156 24.8481H47.9874Z" fill="#2B2A29"/>
<path d="M21.7306 11.2066H20.3339L20.338 28.08L16.9444 24.666L16.9793 23.5068C16.3382 23.9308 15.7197 24.2462 15.1156 24.4592C14.5114 24.6701 13.8438 24.7786 13.0983 24.7786C10.9705 24.7786 9.16415 24.027 7.67936 22.5177C6.19662 21.0144 5.45115 19.1815 5.45115 17.0291C5.80955 17.1315 6.19662 17.1827 6.60621 17.1827C7.4807 17.1827 8.21388 16.9901 8.80575 16.6051C9.57579 16.0911 9.96286 15.3067 9.96286 14.252C9.96286 13.6622 9.78878 13.0437 9.44062 12.4006C9.09452 11.7596 8.79141 11.3602 8.53542 11.2066H3.2168L4.98626 7.8418H23.5021L21.7306 11.2066ZM16.9793 19.6321V11.2066H12.1214C12.4553 11.6183 12.7194 12.1262 12.912 12.7221C13.1045 13.314 13.2007 13.9899 13.2007 14.7415C13.2007 16.0583 12.8485 17.0925 12.1399 17.8442C11.4333 18.5978 10.4503 19.1057 9.19077 19.3617C9.70482 21.1476 10.8947 22.1183 12.7584 22.274C13.6841 22.274 14.5565 21.9975 15.3859 21.4384C16.2215 20.8854 16.7478 20.2813 16.9793 19.6321Z" fill="#0528F2"/>
</svg>
