<?xml version="1.0" encoding="UTF-8" standalone="no"?>
<!-- Created with Inkscape (http://www.inkscape.org/) -->

<svg
   version="1.1"
   id="svg2"
   width="666.66669"
   height="666.66669"
   viewBox="0 0 666.66669 666.66669"
   sodipodi:docname="9170825.eps"
   xmlns:inkscape="http://www.inkscape.org/namespaces/inkscape"
   xmlns:sodipodi="http://sodipodi.sourceforge.net/DTD/sodipodi-0.dtd"
   xmlns="http://www.w3.org/2000/svg"
   xmlns:svg="http://www.w3.org/2000/svg">
  <defs
     id="defs6">
    <clipPath
       clipPathUnits="userSpaceOnUse"
       id="clipPath64">
      <path
         d="m 3933.2,1080.97 c 0,0 -311.87,633.12 639.51,909.11 0,0 66.27,-959.42 -639.51,-909.11"
         id="path62" />
    </clipPath>
    <clipPath
       clipPathUnits="userSpaceOnUse"
       id="clipPath84">
      <path
         d="m 1104.43,1147.87 c 0,0 -552.598,-131.78 -600.871,662.4 0,0 765.411,-118.55 600.871,-662.4"
         id="path82" />
    </clipPath>
  </defs>
  <sodipodi:namedview
     id="namedview4"
     pagecolor="#ffffff"
     bordercolor="#000000"
     borderopacity="0.25"
     inkscape:showpageshadow="2"
     inkscape:pageopacity="0.0"
     inkscape:pagecheckerboard="0"
     inkscape:deskcolor="#d1d1d1" />
  <g
     id="g8"
     inkscape:groupmode="layer"
     inkscape:label="ink_ext_XXXXXX"
     transform="matrix(1.3333333,0,0,-1.3333333,0,666.66667)">
    <g
       id="g10"
       transform="scale(0.1)">
      <path
         d="M 0,0 H 5000 V 5000 H 0 Z"
         style="fill:#ffffff;fill-opacity:1;fill-rule:nonzero;stroke:none"
         id="path12" />
      <path
         d="m 4663.74,3189.41 h -65.97 v 65.97 h -46.81 v -65.97 H 4485 v -46.81 h 65.96 v -65.97 h 46.81 v 65.97 h 65.97 v 46.81"
         style="fill:#cad2f9;fill-opacity:1;fill-rule:nonzero;stroke:none"
         id="path14" />
      <path
         d="m 4315.16,2144.95 h -58.29 v 58.29 h -41.37 v -58.29 h -58.28 v -41.37 h 58.28 v -58.29 h 41.37 v 58.29 h 58.29 v 41.37"
         style="fill:#cad2f9;fill-opacity:1;fill-rule:nonzero;stroke:none"
         id="path16" />
      <path
         d="m 1825.26,3821.77 h -58.3 v 58.29 h -41.36 v -58.29 h -58.28 v -41.37 h 58.28 v -58.29 h 41.36 v 58.29 h 58.3 v 41.37"
         style="fill:#cad2f9;fill-opacity:1;fill-rule:nonzero;stroke:none"
         id="path18" />
      <path
         d="m 4555.4,2892.25 h -42.27 v 42.28 h -30 v -42.28 h -42.27 v -30 h 42.27 v -42.27 h 30 v 42.27 h 42.27 v 30"
         style="fill:#cad2f9;fill-opacity:1;fill-rule:nonzero;stroke:none"
         id="path20" />
      <path
         d="m 1635.11,3566.07 h -42.27 v 42.27 h -30 v -42.27 h -42.27 v -30 h 42.27 v -42.28 h 30 v 42.28 h 42.27 v 30"
         style="fill:#cad2f9;fill-opacity:1;fill-rule:nonzero;stroke:none"
         id="path22" />
      <path
         d="m 526.855,3056.2 h -58.292 v 58.29 h -41.368 v -58.29 h -58.273 v -41.37 h 58.273 v -58.29 h 41.368 v 58.29 h 58.292 v 41.37"
         style="fill:#cad2f9;fill-opacity:1;fill-rule:nonzero;stroke:none"
         id="path24" />
      <path
         d="m 548.184,1238.18 h -42.278 v 42.28 h -30 v -42.28 h -42.261 v -30 h 42.261 v -42.27 h 30 v 42.27 h 42.278 v 30"
         style="fill:#cad2f9;fill-opacity:1;fill-rule:nonzero;stroke:none"
         id="path26" />
      <path
         d="m 472.738,2086.26 c 0,-21.59 -17.5,-39.09 -39.093,-39.09 -21.594,0 -39.098,17.5 -39.098,39.09 0,21.59 17.504,39.1 39.098,39.1 21.593,0 39.093,-17.51 39.093,-39.1"
         style="fill:#e2e6ff;fill-opacity:1;fill-rule:nonzero;stroke:none"
         id="path28" />
      <path
         d="m 4587.42,2523.27 c 0,-11.4 -9.24,-20.64 -20.64,-20.64 -11.41,0 -20.65,9.24 -20.65,20.64 0,11.41 9.24,20.66 20.65,20.66 11.4,0 20.64,-9.25 20.64,-20.66"
         style="fill:#e2e6ff;fill-opacity:1;fill-rule:nonzero;stroke:none"
         id="path30" />
      <path
         d="m 4571.59,1223.18 c 0,-21.59 -17.5,-39.1 -39.09,-39.1 -21.59,0 -39.1,17.51 -39.1,39.1 0,21.6 17.51,39.1 39.1,39.1 21.59,0 39.09,-17.5 39.09,-39.1"
         style="fill:#e2e6ff;fill-opacity:1;fill-rule:nonzero;stroke:none"
         id="path32" />
      <path
         d="m 1821.04,4166.25 c 0,-11.41 -9.24,-20.66 -20.64,-20.66 -11.41,0 -20.65,9.25 -20.65,20.66 0,11.39 9.24,20.64 20.65,20.64 11.4,0 20.64,-9.25 20.64,-20.64"
         style="fill:#e2e6ff;fill-opacity:1;fill-rule:nonzero;stroke:none"
         id="path34" />
      <path
         d="m 1389.51,4141.01 c 0,-21.59 -17.5,-39.1 -39.1,-39.1 -21.59,0 -39.1,17.51 -39.1,39.1 0,21.59 17.51,39.1 39.1,39.1 21.6,0 39.1,-17.51 39.1,-39.1"
         style="fill:#e2e6ff;fill-opacity:1;fill-rule:nonzero;stroke:none"
         id="path36" />
      <path
         d="m 2141.14,4041.01 c 0,-21.59 -17.51,-39.1 -39.1,-39.1 -21.59,0 -39.1,17.51 -39.1,39.1 0,21.59 17.51,39.1 39.1,39.1 21.59,0 39.1,-17.51 39.1,-39.1"
         style="fill:#e2e6ff;fill-opacity:1;fill-rule:nonzero;stroke:none"
         id="path38" />
      <path
         d="m 377.555,2693.05 c 0,-11.41 -9.242,-20.65 -20.645,-20.65 -11.402,0 -20.644,9.24 -20.644,20.65 0,11.4 9.242,20.64 20.644,20.64 11.403,0 20.645,-9.24 20.645,-20.64"
         style="fill:#e2e6ff;fill-opacity:1;fill-rule:nonzero;stroke:none"
         id="path40" />
      <path
         d="m 767.18,2010.72 c 0,-11.39 -9.25,-20.64 -20.653,-20.64 -11.398,0 -20.644,9.25 -20.644,20.64 0,11.41 9.246,20.65 20.644,20.65 11.403,0 20.653,-9.24 20.653,-20.65"
         style="fill:#e2e6ff;fill-opacity:1;fill-rule:nonzero;stroke:none"
         id="path42" />
      <path
         d="m 4486.04,3606.01 c 0,-11.4 -9.23,-20.64 -20.64,-20.64 -11.4,0 -20.64,9.24 -20.64,20.64 0,11.4 9.24,20.64 20.64,20.64 11.41,0 20.64,-9.24 20.64,-20.64"
         style="fill:#e2e6ff;fill-opacity:1;fill-rule:nonzero;stroke:none"
         id="path44" />
      <path
         d="m 3716.82,3982.56 c 0,-11.4 -9.24,-20.65 -20.65,-20.65 -11.39,0 -20.64,9.25 -20.64,20.65 0,11.4 9.25,20.64 20.64,20.64 11.41,0 20.65,-9.24 20.65,-20.64"
         style="fill:#e2e6ff;fill-opacity:1;fill-rule:nonzero;stroke:none"
         id="path46" />
      <path
         d="m 4068.24,4102.82 c 0,-21.59 -17.5,-39.1 -39.09,-39.1 -21.6,0 -39.1,17.51 -39.1,39.1 0,21.59 17.5,39.09 39.1,39.09 21.59,0 39.09,-17.5 39.09,-39.09"
         style="fill:#e2e6ff;fill-opacity:1;fill-rule:nonzero;stroke:none"
         id="path48" />
      <path
         d="m 4654.38,1420.12 c 0,-11.41 -9.24,-20.66 -20.64,-20.66 -11.41,0 -20.64,9.25 -20.64,20.66 0,11.39 9.23,20.64 20.64,20.64 11.4,0 20.64,-9.25 20.64,-20.64"
         style="fill:#e2e6ff;fill-opacity:1;fill-rule:nonzero;stroke:none"
         id="path50" />
      <path
         d="m 957.73,4101.91 c 0,-11.4 -9.246,-20.64 -20.652,-20.64 -11.398,0 -20.64,9.24 -20.64,20.64 0,11.41 9.242,20.65 20.64,20.65 11.406,0 20.652,-9.24 20.652,-20.65"
         style="fill:#e2e6ff;fill-opacity:1;fill-rule:nonzero;stroke:none"
         id="path52" />
      <path
         d="m 4566.78,997.301 c 0,-101.719 -939.72,-184.192 -2098.93,-184.192 -1159.21,0 -2098.928,82.473 -2098.928,184.192 0,101.729 939.718,184.199 2098.928,184.199 1159.21,0 2098.93,-82.47 2098.93,-184.199"
         style="fill:#edf0fc;fill-opacity:1;fill-rule:nonzero;stroke:none"
         id="path54" />
      <path
         d="m 3933.2,1080.97 c 0,0 -311.87,633.12 639.51,909.11 0,0 66.27,-959.42 -639.51,-909.11"
         style="fill:#eb725f;fill-opacity:1;fill-rule:nonzero;stroke:none"
         id="path56" />
      <g
         id="g58">
        <g
           id="g60"
           clip-path="url(#clipPath64)">
          <path
             d="m 4700.29,1842.71 -5.45,9.13 C 4506.77,1739.88 4335.58,1700.59 4285,1690.77 c 47.11,55.66 93.57,106.64 135.61,150.8 18.91,3.52 148.54,30.43 280.14,128.49 l -6.36,8.5 c -110.79,-82.54 -219.77,-113.82 -260.72,-123.36 91.36,95 158.89,155.19 160.91,156.98 l -7.07,7.94 c -2.04,-1.82 -71.03,-63.31 -164.01,-160.21 8.97,120.58 68.17,238.7 68.79,239.92 l -9.5,4.8 c -0.65,-1.28 -65,-129.56 -70.68,-256.64 -42.17,-44.33 -88.72,-95.48 -135.92,-151.3 3.39,157.81 70.96,342.72 71.65,344.64 l -9.98,3.66 c -0.73,-1.97 -72.7,-198.8 -72.49,-361.17 -45.51,-54.41 -91.31,-112.99 -134.1,-173.88 -8.33,227.33 58.86,461.81 59.56,464.2 l -10.23,2.95 c -0.72,-2.45 -71.2,-248.2 -59.4,-481.58 -31.66,-45.84 -61.49,-92.88 -88.06,-140.34 -47.08,244.38 13.61,466.22 14.23,468.46 l -10.24,2.86 c -0.66,-2.31 -64.16,-234.04 -11.98,-485.89 -26.04,-47.84 -48.6,-95.98 -66.31,-143.66 -60.22,170.93 -71.91,415.73 -69.3,429.86 l -10.48,1.9 c -2.81,-15.29 8.04,-270.68 74.12,-447.44 -16.16,-46.22 -27.63,-91.92 -32.96,-136.34 l 10.57,-1.26 c 5.14,42.88 16.1,86.99 31.52,131.65 12.42,-2.59 48.25,-8.69 109.89,-8.69 4.86,0 9.9,0.03 15.1,0.11 79.58,1.25 213.87,13.39 401.64,64.12 l -2.79,10.24 c -320.18,-86.52 -488.22,-61.85 -520.33,-55.61 17.81,49.48 41.09,99.57 68.14,149.33 8.56,-0.84 30.86,-2.64 63.38,-2.64 102.36,0 303.51,18.14 478.46,142.64 l -6.18,8.65 c -219.43,-156.17 -480.73,-142.68 -530.09,-138.5 27.18,49.05 57.91,97.71 90.66,145.09 32.83,3.33 325.12,36.82 519.84,188.6 l -6.55,8.36 c -180.29,-140.53 -445.88,-178.48 -505.23,-185.4 43.32,61.8 89.83,121.26 136.02,176.42 25.07,4.2 215.15,39.17 426.02,164.68"
             style="fill:#f9ab43;fill-opacity:1;fill-rule:nonzero;stroke:none"
             id="path66" />
        </g>
      </g>
      <path
         d="m 4164.05,1105.82 c -0.04,0 0.01,0 -0.03,0 60.17,19.72 111.63,49.46 155.56,86.23 v 0 c 5.38,4.51 10.61,9.09 15.77,13.8 v 0 c 64.34,58.76 111.58,133.13 146.16,212.55 v 0 c 2.19,5.04 4.33,10.09 6.43,15.17 v 0 c 23.83,57.81 41.25,117.96 53.89,176.35 v 0 c 0.98,4.51 1.92,9 2.84,13.49 v 0 c 10.76,52.46 17.76,103.27 22.24,149.53 v 0 c 0.4,4.11 0.78,8.18 1.14,12.21 v 0 c 3.64,40.91 5.33,77.95 5.98,108.89 v 0 c 0.08,4.06 0.15,8 0.2,11.84 v 0 c 0.68,51.17 -1.43,83.01 -1.51,84.17 0.38,-5.6 48.97,-734.37 -408.67,-884.23"
         style="fill:#e5ecf5;fill-opacity:1;fill-rule:nonzero;stroke:none"
         id="path68" />
      <path
         d="m 3985.79,1079.06 v 0 0 0 m 0.03,0 c 66.63,0 125.73,9.57 178.2,26.76 0.04,0 -0.01,0 0.03,0 -52.49,-17.19 -111.59,-26.77 -178.23,-26.76"
         style="fill:#d5dff3;fill-opacity:1;fill-rule:nonzero;stroke:none"
         id="path70" />
      <path
         d="m 3985.79,1079.06 v 0 c -15.95,0 -32.37,0.55 -49.19,1.67 5.55,28.95 13.52,58.35 23.48,88.01 9.23,0.58 18.39,1.42 27.49,2.52 18.94,-2.36 46.96,-4.64 84.63,-4.64 4.86,0 9.9,0.03 15.1,0.11 53.15,0.83 130.69,6.52 232.28,25.32 -43.93,-36.77 -95.39,-66.51 -155.56,-86.23 -52.47,-17.19 -111.57,-26.76 -178.2,-26.76 h -0.03 m -57.69,13.38 c -5.91,14.1 -16,40.61 -25,76.16 9,-0.52 18.07,-0.79 27.19,-0.79 6.17,0 12.32,0.12 18.44,0.36 -8.43,-25.47 -15.39,-50.75 -20.63,-75.73 m 144.1,85 c -15.6,0 -29.52,0.39 -41.81,1.02 112.93,24.36 212.74,89.17 286.53,180.17 52.8,12.99 108.9,32.05 164.59,59.77 -34.58,-79.42 -81.82,-153.79 -146.16,-212.55 -114.35,-22.27 -201.66,-28.41 -263.15,-28.41 m 255.43,194.82 c 41.26,54.23 73.58,117.05 94.43,185.64 39.67,14.31 80.31,31.48 119.77,52.02 -12.64,-58.39 -30.06,-118.54 -53.89,-176.35 -53.96,-28.05 -108.56,-47.68 -160.31,-61.31 m 98.11,198.24 c 13.77,49.11 21.71,101.07 22.92,154.85 35.96,12.61 75.88,28.27 118.25,47.59 -4.48,-46.26 -11.48,-97.07 -22.24,-149.53 -39.02,-20.87 -79.39,-38.33 -118.93,-52.91 m 23.07,166.15 c 0.01,1.04 0.01,2.06 0.01,3.11 0,36.22 -3.06,71.66 -8.9,106.01 26.69,6.46 75.75,20.63 134.11,48.27 -0.65,-30.94 -2.34,-67.98 -5.98,-108.89 -42.69,-19.7 -82.96,-35.66 -119.24,-48.5 m -10.77,119.59 c -0.18,0.98 -0.36,1.95 -0.55,2.93 57.11,59.21 104.54,104.49 131.88,129.93 1.11,0.33 2.23,0.65 3.34,0.98 0,0 0.01,-0.01 0.01,-0.03 0.08,-1.16 2.19,-33 1.51,-84.17 -59.29,-28.6 -109.27,-43.1 -136.19,-49.64 m -3.11,15.52 c -2.03,9.47 -4.27,18.83 -6.72,28.11 2.45,15.49 5.55,30.7 9.06,45.42 34.38,12.89 70.76,25.26 109.35,37.03 -27.21,-25.73 -66.23,-63.59 -111.69,-110.56 m -13.38,51.44 c -1.47,4.81 -3,9.58 -4.59,14.32 2.76,1.08 5.53,2.15 8.32,3.22 -1.31,-5.78 -2.56,-11.63 -3.73,-17.54"
         style="fill:#d36e66;fill-opacity:1;fill-rule:nonzero;stroke:none"
         id="path72" />
      <path
         d="m 3936.6,1080.73 c -1.12,0.08 -2.28,0.16 -3.4,0.24 v 0 0 c 0,0.01 -1.96,4 -5.1,11.47 5.24,24.98 12.2,50.26 20.63,75.73 3.79,0.14 7.57,0.33 11.35,0.57 -9.96,-29.66 -17.93,-59.06 -23.48,-88.01 m 135.6,85.89 c -37.67,0 -65.69,2.28 -84.63,4.64 14.45,1.75 28.75,4.16 42.82,7.2 12.29,-0.63 26.21,-1.02 41.81,-1.02 61.49,0 148.8,6.14 263.15,28.41 v 0 c -5.16,-4.71 -10.39,-9.29 -15.77,-13.8 v 0 c -101.59,-18.8 -179.13,-24.49 -232.28,-25.32 -5.2,-0.08 -10.24,-0.11 -15.1,-0.11 m 244.72,192.01 c 3.64,4.49 7.2,9.02 10.71,13.63 51.75,13.63 106.35,33.26 160.31,61.31 v 0 c -2.1,-5.08 -4.24,-10.13 -6.43,-15.17 v 0 c -55.69,-27.72 -111.79,-46.78 -164.59,-59.77 m 105.14,199.27 c 1.27,4.19 2.49,8.37 3.68,12.6 39.54,14.58 79.91,32.04 118.93,52.91 v 0 c -0.92,-4.49 -1.86,-8.98 -2.84,-13.49 v 0 c -39.46,-20.54 -80.1,-37.71 -119.77,-52.02 m 26.6,167.45 c 0.08,3.76 0.13,7.53 0.15,11.3 36.28,12.84 76.55,28.8 119.24,48.5 v 0 c -0.36,-4.03 -0.74,-8.1 -1.14,-12.21 v 0 c -42.37,-19.32 -82.29,-34.98 -118.25,-47.59 m -8.74,120.42 c -0.6,3.51 -1.22,6.99 -1.88,10.47 26.92,6.54 76.9,21.04 136.19,49.64 v 0 c -0.05,-3.84 -0.12,-7.78 -0.2,-11.84 v 0 c -58.36,-27.64 -107.42,-41.81 -134.11,-48.27 m -2.43,13.4 c -0.81,4.21 -1.67,8.41 -2.56,12.59 45.46,46.97 84.48,84.83 111.69,110.56 7.5,2.28 15.08,4.54 22.75,6.78 -27.34,-25.44 -74.77,-70.72 -131.88,-129.93 m -9.28,40.7 c -2.07,7.85 -4.3,15.63 -6.66,23.33 1.17,5.91 2.42,11.76 3.73,17.54 3.97,1.52 7.97,3.04 11.99,4.55 -3.51,-14.72 -6.61,-29.93 -9.06,-45.42"
         style="fill:#e0a14c;fill-opacity:1;fill-rule:nonzero;stroke:none"
         id="path74" />
      <path
         d="m 1104.43,1147.87 c 0,0 -552.598,-131.78 -600.871,662.4 0,0 765.411,-118.55 600.871,-662.4"
         style="fill:#f9ab43;fill-opacity:1;fill-rule:nonzero;stroke:none"
         id="path76" />
      <g
         id="g78">
        <g
           id="g80"
           clip-path="url(#clipPath84)">
          <path
             d="m 641.922,1884.01 -8.129,-2.64 c 54.629,-167.2 55.176,-308.26 53.918,-349.61 -35.367,46.78 -67.191,92.22 -94.43,133.01 0.586,15.43 2.403,121.73 -51.316,242.23 l -7.805,-3.47 c 45.215,-101.43 50.488,-192.35 50.719,-226.12 -58.434,88.43 -93.758,152.01 -94.805,153.92 l -7.492,-4.12 c 1.059,-1.94 37.152,-66.89 96.797,-156.93 -93.129,28.45 -175.438,95.8 -176.289,96.51 l -5.442,-6.59 c 0.887,-0.74 90.258,-73.93 189.079,-100.96 27.355,-40.9 59.289,-86.45 94.781,-133.33 -123.379,30.69 -256.664,116.46 -258.035,117.35 l -4.657,-7.17 c 1.422,-0.92 143.293,-92.26 270.879,-120.94 34.68,-45.32 72.59,-91.6 112.84,-135.93 -180.051,33.87 -352.347,128.15 -354.105,129.12 l -4.129,-7.49 c 1.804,-1 182.371,-99.85 367.785,-132.08 30.41,-32.94 62.074,-64.67 94.652,-93.9 -200.316,6.55 -363.832,93.49 -365.488,94.38 l -4.066,-7.52 c 1.707,-0.93 172.496,-91.84 379.582,-95.71 32.961,-28.89 66.785,-55.11 101.104,-77.46 -144.94,-16.79 -339.315,17.54 -349.948,22.09 l -3.356,-7.87 c 11.52,-4.91 214.063,-41.79 364.614,-21.44 33.45,-20.87 67.32,-37.97 101.26,-50.03 l 2.87,8.04 c -32.77,11.66 -65.49,28.08 -97.84,48.09 4.23,9.26 15.38,36.24 26.3,84.51 0.86,3.81 1.73,7.77 2.58,11.86 13.13,62.55 27.38,169.88 20.78,325.96 l -8.54,-0.37 c 11.26,-266.14 -37.89,-393.37 -48.47,-417.41 -35.729,22.75 -70.952,49.88 -105.253,79.89 2.172,6.57 7.555,23.72 13.309,49.18 18.133,80.17 39.508,240.94 -27.305,400.08 l -7.887,-3.3 c 83.805,-199.61 26.926,-401.87 14.899,-439.77 -33.715,29.99 -66.492,62.7 -97.914,96.77 3.199,26.3 28.672,261.19 -56.074,440.66 l -7.723,-3.64 c 78.449,-166.18 61.215,-380.94 56.141,-428.65 -40.868,44.91 -79.348,91.9 -114.489,137.87 1.141,20.38 7.344,175.47 -53.902,362.93"
             style="fill:#eb725f;fill-opacity:1;fill-rule:nonzero;stroke:none"
             id="path86" />
        </g>
      </g>
      <path
         d="m 1030.26,1139.86 c 2,6.97 3.82,14.03 5.43,21.17 1.1,4.83 2.09,9.66 2.99,14.49 18.51,-11.12 37.14,-21.06 55.84,-29.6 -12.13,-2.12 -34.73,-5.32 -64.26,-6.06 m 74.96,10.63 c -21.76,9.5 -43.44,20.96 -64.98,34.03 1.18,7.34 2.14,14.66 2.89,21.99 5.21,14.41 11.97,35.95 18.64,65.44 0.86,3.81 1.73,7.77 2.58,11.86 6.9,32.87 14.11,78.12 18.44,136.31 h 24.27 c 13.15,-38.22 20.53,-79.93 20.55,-125.48 0.01,-44.36 -6.95,-92.29 -22.39,-144.15 m -60.16,90.82 c 0.58,62.27 -14.18,123.14 -41.63,178.81 h 70.76 c -6.23,-82.35 -18.53,-141.03 -29.13,-178.81"
         style="fill:#e0a14c;fill-opacity:1;fill-rule:nonzero;stroke:none"
         id="path88" />
      <path
         d="m 1094.52,1145.92 c -18.7,8.54 -37.33,18.48 -55.84,29.6 0.56,3 1.08,6 1.56,9 21.54,-13.07 43.22,-24.53 64.98,-34.03 v 0 c -0.26,-0.86 -0.53,-1.76 -0.79,-2.62 v 0 c 0,0 -3.48,-0.82 -9.91,-1.95 m -51.39,60.59 c 1.18,11.63 1.82,23.24 1.93,34.8 10.6,37.78 22.9,96.46 29.13,178.81 h 8.6 c -4.33,-58.19 -11.54,-103.44 -18.44,-136.31 -0.85,-4.09 -1.72,-8.05 -2.58,-11.86 -6.67,-29.49 -13.43,-51.03 -18.64,-65.44"
         style="fill:#d36e66;fill-opacity:1;fill-rule:nonzero;stroke:none"
         id="path90" />
      <path
         d="m 503.629,1809.17 c 0,0 -0.004,0 -0.004,0.01 l 0.004,-0.01"
         style="fill:#e5ecf5;fill-opacity:1;fill-rule:nonzero;stroke:none"
         id="path92" />
      <path
         d="m 889.629,1564.46 c -22.438,18.96 -46.953,36.1 -73.258,51.04 -4.211,33.62 -10.504,68.51 -19.656,103.06 31.125,-14.46 62.535,-30.99 92.914,-49.77 v -104.33 m -82.508,56.16 c -36.137,19.51 -75.551,34.96 -117.582,45.46 -3.535,30.42 -8.766,64.45 -16.441,101.08 35.55,-11.73 74.218,-26.23 113.531,-43.98 9.48,-34.28 16.047,-68.98 20.492,-102.56 m -126.43,47.59 c -0.812,0.19 -1.621,0.37 -2.437,0.56 -28.457,6.43 -56.832,10.33 -84.856,11.86 -0.343,22.05 -2.789,63 -14.164,113.61 24.192,-6 52.989,-13.9 84.485,-24.02 7.91,-36.95 13.312,-71.3 16.972,-102.01 m -163.437,10.74 c -0.356,2.35 -0.707,4.71 -1.055,7.08 4.309,-2.05 8.688,-4.07 13.117,-6.03 -4.031,-0.31 -8.054,-0.66 -12.062,-1.05 m 67.582,2.07 c -0.797,0.03 -1.598,0.06 -2.395,0.08 -36.398,55.26 -63.562,100.46 -78.711,126.39 -0.035,0.56 -0.07,1.12 -0.101,1.68 l -0.004,0.01 c -0.02,0.36 -0.043,0.73 -0.066,1.09 v 0 c 0,0 25.589,-3.96 66.414,-13.76 11.961,-51.53 14.504,-93.25 14.863,-115.49 m -36.012,0.05 c -11.73,4.67 -23.136,9.8 -34.07,15.17 -4.039,29.21 -7.316,59.91 -9.723,92.21 15.391,-25.88 38.223,-63.16 67.063,-107.12 -1.973,0.03 -3.938,0.04 -5.903,0.04 -5.808,0 -11.601,-0.1 -17.367,-0.3"
         style="fill:#e0a14c;fill-opacity:1;fill-rule:nonzero;stroke:none"
         id="path94" />
      <path
         d="m 816.371,1615.5 c -3.066,1.74 -6.133,3.44 -9.25,5.12 -4.445,33.58 -11.012,68.28 -20.492,102.56 3.359,-1.52 6.719,-3.05 10.086,-4.62 9.152,-34.55 15.445,-69.44 19.656,-103.06 m -126.832,50.58 c -2.937,0.74 -5.887,1.45 -8.848,2.13 -3.66,30.71 -9.062,65.06 -16.972,102.01 3.101,-1 6.222,-2.02 9.379,-3.06 7.675,-36.63 12.906,-70.66 16.441,-101.08 M 529.316,1680 c -4.429,1.96 -8.808,3.98 -13.117,6.03 -0.492,3.39 -0.972,6.78 -1.445,10.21 10.934,-5.37 22.34,-10.5 34.07,-15.17 -6.531,-0.23 -13.035,-0.59 -19.508,-1.07 m 64.082,0.63 c -2.855,0.15 -5.71,0.28 -8.562,0.39 -0.359,22.24 -2.902,63.96 -14.863,115.49 3.011,-0.73 6.09,-1.48 9.261,-2.27 11.375,-50.61 13.821,-91.56 14.164,-113.61 m -10.957,0.47 c -3.453,0.12 -6.906,0.19 -10.347,0.23 -28.84,43.96 -51.672,81.24 -67.063,107.12 -0.465,6.29 -0.898,12.63 -1.301,19.04 15.149,-25.93 42.313,-71.13 78.711,-126.39"
         style="fill:#d36e66;fill-opacity:1;fill-rule:nonzero;stroke:none"
         id="path96" />
      <path
         d="m 4046.07,1500.12 c 0,-44.01 -36,-80 -80,-80 H 969.629 c -44,0 -80,35.99 -80,80 v 1805.62 c 0,44 36,80 80,80 H 3966.07 c 44,0 80,-36 80,-80 V 1500.12"
         style="fill:#6e7fdd;fill-opacity:1;fill-rule:nonzero;stroke:none"
         id="path98" />
      <path
         d="m 978.719,1516.51 h 2978.25 V 3289.34 H 978.719 Z"
         style="fill:#d0dbf7;fill-opacity:1;fill-rule:nonzero;stroke:none"
         id="path100" />
      <path
         d="m 2957.86,1174.68 h -980.02 v 245.44 h 980.02 v -245.44"
         style="fill:#8397ed;fill-opacity:1;fill-rule:nonzero;stroke:none"
         id="path102" />
      <path
         d="m 3426.91,1033.76 c -179.22,144.7 -541.41,243.63 -959.06,243.63 -417.65,0 -779.83,-98.93 -959.06,-243.63 h 1918.12"
         style="fill:#6e7fdd;fill-opacity:1;fill-rule:nonzero;stroke:none"
         id="path104" />
      <path
         d="m 1508.79,1008.76 c 17.13,0 34.26,0 51.39,0 46.62,0 93.23,0 139.84,0 68.59,0 137.19,0 205.78,0 84.03,0 168.08,0 252.12,0 92.06,0 184.13,0 276.19,0 92.52,0 185.04,0 277.56,0 86.66,0 173.32,0 259.99,0 73.22,0 146.45,0 219.68,0 52.44,0 104.89,0 157.34,0 24.97,0 50.03,-0.61 74.99,0 1.09,0.03 2.16,0 3.24,0 32.17,0 32.23,50 0,50 -17.13,0 -34.26,0 -51.39,0 -46.61,0 -93.23,0 -139.85,0 -68.59,0 -137.17,0 -205.77,0 -84.04,0 -168.07,0 -252.12,0 -92.07,0 -184.13,0 -276.19,0 -92.52,0 -185.04,0 -277.56,0 -86.66,0 -173.33,0 -259.99,0 -73.22,0 -146.45,0 -219.68,0 -52.45,0 -104.89,0 -157.34,0 -24.97,0 -50.03,0.61 -75,0 -1.07,-0.02 -2.16,0 -3.23,0 -32.17,0 -32.23,-50 0,-50"
         style="fill:#8397ed;fill-opacity:1;fill-rule:nonzero;stroke:none"
         id="path106" />
      <path
         d="M 1141.39,1632.18 H 3794.31 V 3166 H 1141.39 Z"
         style="fill:#ffffff;fill-opacity:1;fill-rule:nonzero;stroke:none"
         id="path108" />
      <path
         d="m 1141.39,3018.2 h 2652.92 v 147.801 H 1141.39 Z"
         style="fill:#e2e6ff;fill-opacity:1;fill-rule:nonzero;stroke:none"
         id="path110" />
      <path
         d="m 1270.35,3088.7 c 0,-18.69 -15.15,-33.83 -33.83,-33.83 -18.68,0 -33.82,15.14 -33.82,33.83 0,18.68 15.14,33.82 33.82,33.82 18.68,0 33.83,-15.14 33.83,-33.82"
         style="fill:#eb725f;fill-opacity:1;fill-rule:nonzero;stroke:none"
         id="path112" />
      <path
         d="m 1384.23,3088.7 c 0,-18.69 -15.14,-33.83 -33.82,-33.83 -18.68,0 -33.82,15.14 -33.82,33.83 0,18.68 15.14,33.82 33.82,33.82 18.68,0 33.82,-15.14 33.82,-33.82"
         style="fill:#f9ab43;fill-opacity:1;fill-rule:nonzero;stroke:none"
         id="path114" />
      <path
         d="m 1498.12,3088.7 c 0,-18.69 -15.14,-33.83 -33.82,-33.83 -18.68,0 -33.82,15.14 -33.82,33.83 0,18.68 15.14,33.82 33.82,33.82 18.68,0 33.82,-15.14 33.82,-33.82"
         style="fill:#6e7fdd;fill-opacity:1;fill-rule:nonzero;stroke:none"
         id="path116" />
      <path
         d="m 3405.23,2369.44 c 0,-91.41 -78.56,-166.2 -174.58,-166.2 H 1754.68 c -96.01,0 -174.57,74.79 -174.57,166.2 0,91.41 78.56,166.2 174.57,166.2 h 1475.97 c 96.02,0 174.58,-74.79 174.58,-166.2"
         style="fill:#e2e6ff;fill-opacity:1;fill-rule:nonzero;stroke:none"
         id="path118" />
      <path
         d="m 1788.95,2350.48 c -10.38,9.66 -16.38,22.77 -16.89,36.94 -0.51,14.17 4.53,27.69 14.19,38.07 9.65,10.38 22.77,16.37 36.94,16.88 14.17,0.51 27.68,-4.53 38.06,-14.19 10.38,-9.65 16.38,-22.77 16.89,-36.94 0.51,-14.17 -4.53,-27.69 -14.18,-38.07 -9.66,-10.37 -22.78,-16.36 -36.95,-16.87 -14.17,-0.52 -27.68,4.52 -38.06,14.18 z m 156.25,-59.39 -60.57,56.36 c 9.14,12.94 13.86,28.4 13.28,44.5 -0.7,19.46 -8.93,37.46 -23.18,50.72 -14.25,13.26 -32.81,20.17 -52.25,19.47 -19.45,-0.69 -37.46,-8.93 -50.72,-23.18 -13.25,-14.24 -20.17,-32.8 -19.47,-52.25 0.7,-19.44 8.93,-37.46 23.18,-50.71 14.25,-13.27 32.8,-20.18 52.25,-19.48 16.11,0.58 31.18,6.4 43.43,16.45 l 60.57,-56.36 13.48,14.48"
         style="fill:#6e7fdd;fill-opacity:1;fill-rule:nonzero;stroke:none"
         id="path120" />
      <path
         d="m 2224.98,2372.28 c 0,-9.47 -7.67,-17.13 -17.13,-17.13 -9.46,0 -17.13,7.66 -17.13,17.13 0,9.45 7.67,17.12 17.13,17.12 9.46,0 17.13,-7.67 17.13,-17.12"
         style="fill:#b6c3f2;fill-opacity:1;fill-rule:nonzero;stroke:none"
         id="path122" />
      <path
         d="m 2424.97,2372.28 c 0,-9.47 -7.67,-17.13 -17.12,-17.13 -9.46,0 -17.13,7.66 -17.13,17.13 0,9.45 7.67,17.12 17.13,17.12 9.45,0 17.12,-7.67 17.12,-17.12"
         style="fill:#b6c3f2;fill-opacity:1;fill-rule:nonzero;stroke:none"
         id="path124" />
      <path
         d="m 2624.97,2372.28 c 0,-9.47 -7.67,-17.13 -17.12,-17.13 -9.46,0 -17.13,7.66 -17.13,17.13 0,9.45 7.67,17.12 17.13,17.12 9.45,0 17.12,-7.67 17.12,-17.12"
         style="fill:#b6c3f2;fill-opacity:1;fill-rule:nonzero;stroke:none"
         id="path126" />
      <path
         d="m 2824.97,2372.28 c 0,-9.47 -7.67,-17.13 -17.12,-17.13 -9.46,0 -17.13,7.66 -17.13,17.13 0,9.45 7.67,17.12 17.13,17.12 9.45,0 17.12,-7.67 17.12,-17.12"
         style="fill:#b6c3f2;fill-opacity:1;fill-rule:nonzero;stroke:none"
         id="path128" />
      <path
         d="M 3064.47,2311.95 H 4384.94 V 3764.74 H 3064.47 Z"
         style="fill:#f5f9ff;fill-opacity:1;fill-rule:nonzero;stroke:none"
         id="path130" />
      <path
         d="M 4384.94,3600.97 H 3064.47 v 163.77 h 1320.47 v -163.77"
         style="fill:#e2e6ff;fill-opacity:1;fill-rule:nonzero;stroke:none"
         id="path132" />
      <path
         d="m 3207.36,3679.08 c 0,-20.7 -16.78,-37.48 -37.48,-37.48 -20.69,0 -37.48,16.78 -37.48,37.48 0,20.69 16.79,37.47 37.48,37.47 20.7,0 37.48,-16.78 37.48,-37.47"
         style="fill:#eb725f;fill-opacity:1;fill-rule:nonzero;stroke:none"
         id="path134" />
      <path
         d="m 3333.55,3679.08 c 0,-20.7 -16.77,-37.48 -37.48,-37.48 -20.69,0 -37.47,16.78 -37.47,37.48 0,20.69 16.78,37.47 37.47,37.47 20.71,0 37.48,-16.78 37.48,-37.47"
         style="fill:#f9ab43;fill-opacity:1;fill-rule:nonzero;stroke:none"
         id="path136" />
      <path
         d="m 3459.76,3679.08 c 0,-20.7 -16.79,-37.48 -37.48,-37.48 -20.71,0 -37.49,16.78 -37.49,37.48 0,20.69 16.78,37.47 37.49,37.47 20.69,0 37.48,-16.78 37.48,-37.47"
         style="fill:#6e7fdd;fill-opacity:1;fill-rule:nonzero;stroke:none"
         id="path138" />
      <path
         d="m 4486.04,2365.22 -54.54,-54.54 -488.8,488.81 54.54,54.54 488.8,-488.81"
         style="fill:#eb725f;fill-opacity:1;fill-rule:nonzero;stroke:none"
         id="path140" />
      <path
         d="m 4157.22,2742.13 -102.61,-102.62 -143.04,143.04 102.61,102.61 143.04,-143.03"
         style="fill:#6e7fdd;fill-opacity:1;fill-rule:nonzero;stroke:none"
         id="path142" />
      <path
         d="m 3738.1,2730.87 c -83.98,0 -167.94,31.96 -231.87,95.89 -127.85,127.85 -127.85,335.89 0,463.74 63.93,63.92 147.9,95.89 231.87,95.89 83.98,0 167.94,-31.96 231.87,-95.89 110.23,-110.23 125.43,-280.05 45.58,-406.71 l -1.37,1.37 -102.61,-102.61 1.38,-1.37 c -53.21,-33.53 -114.04,-50.31 -174.85,-50.31"
         style="fill:#f5f9ff;fill-opacity:1;fill-rule:nonzero;stroke:none"
         id="path144" />
      <path
         d="m 3912.95,2781.18 -1.38,1.37 102.61,102.61 1.37,-1.37 c -12.76,-20.25 -27.96,-39.41 -45.58,-57.03 -17.63,-17.63 -36.77,-32.81 -57.02,-45.58"
         style="fill:#8997e4;fill-opacity:1;fill-rule:nonzero;stroke:none"
         id="path146" />
      <path
         d="m 3529.64,3267.09 c -114.94,-114.95 -114.94,-301.97 0,-416.91 114.94,-114.95 301.97,-114.96 416.91,0 114.95,114.94 114.95,301.96 0,416.91 -114.94,114.94 -301.96,114.95 -416.91,0 z m 471.45,-471.46 c -145.01,-145.01 -380.97,-145.02 -525.99,0 -145.01,145.02 -145.01,380.99 0,526 145.02,145.01 380.97,145.02 525.99,0 145.02,-145.02 145.02,-380.98 0,-526"
         style="fill:#eb725f;fill-opacity:1;fill-rule:nonzero;stroke:none"
         id="path148" />
      <path
         d="m 3901.2,3173.7 -48.03,48.03 -115.07,-115.07 -115.07,115.07 -48.03,-48.03 115.07,-115.07 -115.07,-115.07 48.03,-48.02 115.07,115.06 115.07,-115.06 48.03,48.02 -115.07,115.07 115.07,115.07"
         style="fill:#f9ab43;fill-opacity:1;fill-rule:nonzero;stroke:none"
         id="path150" />
      <path
         d="M 1633.82,2086.26 H 1036.49 V 1007.15 h 921.35 v 768.71 l -324.02,310.4"
         style="fill:#eb725f;fill-opacity:1;fill-rule:nonzero;stroke:none"
         id="path152" />
      <path
         d="m 1633.82,2086.26 324.02,-310.4 h -324.02 z"
         style="fill:#f4aea6;fill-opacity:1;fill-rule:nonzero;stroke:none"
         id="path154" />
      <path
         d="m 1398.9,1671.55 c 0,-32.39 -18.82,-58.64 -42.03,-58.64 -23.21,0 -42.03,26.25 -42.03,58.64 0,32.4 18.82,58.65 42.03,58.65 23.21,0 42.03,-26.25 42.03,-58.65"
         style="fill:#ffffff;fill-opacity:1;fill-rule:nonzero;stroke:none"
         id="path156" />
      <path
         d="m 1678.32,1671.55 c 0,-32.39 -18.82,-58.64 -42.03,-58.64 -23.21,0 -42.03,26.25 -42.03,58.64 0,32.4 18.82,58.65 42.03,58.65 23.21,0 42.03,-26.25 42.03,-58.65"
         style="fill:#ffffff;fill-opacity:1;fill-rule:nonzero;stroke:none"
         id="path158" />
      <path
         d="m 1379.68,1495.49 c 17.49,19.15 41.82,34.21 66.02,42.94 61.26,22.09 120.48,-0.99 167.15,-42.94 12.46,-11.2 30.97,7.19 18.45,18.45 -51.72,46.5 -118.83,73.81 -187.64,51.33 -30.17,-9.86 -60.82,-27.65 -82.43,-51.33 -11.3,-12.39 7.1,-30.88 18.45,-18.45"
         style="fill:#ffffff;fill-opacity:1;fill-rule:nonzero;stroke:none"
         id="path160" />
      <path
         d="M 1319.09,3905.78 H 647.191 c -40.078,0 -72.871,-32.79 -72.871,-72.87 v -471.3 c 0,-40.08 32.793,-72.88 72.871,-72.88 H 883.27 l 99.871,-121.65 99.869,121.65 h 236.08 c 40.08,0 72.87,32.8 72.87,72.88 v 471.3 c 0,40.08 -32.79,72.87 -72.87,72.87"
         style="fill:#f9ab43;fill-opacity:1;fill-rule:nonzero;stroke:none"
         id="path162" />
      <path
         d="m 983.141,3415.17 c -42.235,0 -81.094,14.61 -111.879,38.99 l 253.418,253.43 c 24.39,-30.78 39.01,-69.65 39.01,-111.88 0,-99.55 -80.99,-180.54 -180.549,-180.54 z m 0,361.08 c 42.229,0 81.089,-14.61 111.879,-38.99 L 841.598,3483.83 c -24.387,30.79 -39.004,69.65 -39.004,111.88 0,99.55 80.996,180.54 180.547,180.54 z m 0,41.96 c -122.688,0 -222.5,-99.81 -222.5,-222.5 0,-122.68 99.812,-222.5 222.5,-222.5 122.689,0 222.499,99.82 222.499,222.5 0,122.69 -99.81,222.5 -222.499,222.5"
         style="fill:#ffffff;fill-opacity:1;fill-rule:nonzero;stroke:none"
         id="path164" />
      <path
         d="m 3826.99,2010.72 -557.26,3.68 -6.65,-1006.72 859.55,-5.68 4.72,717.15 -300.36,291.57"
         style="fill:#d0dbf7;fill-opacity:1;fill-rule:nonzero;stroke:none"
         id="path166" />
      <path
         d="m 3826.99,2010.72 300.36,-291.57 -302.27,1.99 z"
         style="fill:#e3ebfc;fill-opacity:1;fill-rule:nonzero;stroke:none"
         id="path168" />
      <path
         d="m 3878.47,1635.45 -53.08,53.79 -128.87,-127.17 -127.16,128.86 -53.79,-53.09 127.17,-128.85 -128.86,-127.16 53.08,-53.79 128.86,127.16 127.18,-128.85 53.78,53.07 -127.17,128.86 128.86,127.17"
         style="fill:#eef4ff;fill-opacity:1;fill-rule:nonzero;stroke:none"
         id="path170" />
      <path
         d="m 1017.26,2787.25 -333.514,167.16 -301.984,-602.5 514.414,-257.83 215.114,429.19 -94.03,263.98"
         style="fill:#d0dbf7;fill-opacity:1;fill-rule:nonzero;stroke:none"
         id="path172" />
      <path
         d="m 1017.26,2787.25 94.03,-263.98 -180.899,90.68 z"
         style="fill:#e3ebfc;fill-opacity:1;fill-rule:nonzero;stroke:none"
         id="path174" />
      <path
         d="m 937.086,2546.69 -15.953,48.01 -115.016,-38.22 -38.211,115.01 -48.008,-15.94 38.215,-115.01 -115.011,-38.22 15.945,-48 115.016,38.21 38.218,-115.01 48.008,15.95 -38.219,115.01 115.016,38.21"
         style="fill:#eef4ff;fill-opacity:1;fill-rule:nonzero;stroke:none"
         id="path176" />
      <path
         d="m 2264.76,3905.63 -266.92,-86.86 156.91,-482.21 411.71,133.97 -111.77,343.51 -189.93,91.59"
         style="fill:#d0dbf7;fill-opacity:1;fill-rule:nonzero;stroke:none"
         id="path178" />
      <path
         d="m 2264.76,3905.63 189.93,-91.59 -144.79,-47.11 z"
         style="fill:#e3ebfc;fill-opacity:1;fill-rule:nonzero;stroke:none"
         id="path180" />
      <path
         d="m 2349.04,3734.46 -33.92,17.26 -41.37,-81.27 -81.26,41.37 -17.27,-33.92 81.27,-41.37 -41.37,-81.27 33.92,-17.26 41.37,81.27 81.27,-41.37 17.27,33.93 -81.27,41.36 41.36,81.27"
         style="fill:#eef4ff;fill-opacity:1;fill-rule:nonzero;stroke:none"
         id="path182" />
      <path
         d="m 2870.29,3813.16 c -51.15,0.18 -92.47,41.79 -92.29,92.94 0.17,51.15 41.78,92.47 92.93,92.3 51.15,-0.18 92.48,-41.79 92.29,-92.94 -0.17,-51.15 -41.77,-92.47 -92.93,-92.3 z m 218.5,138.73 -23.38,0.09 c -4.88,20.66 -12.95,40.04 -23.68,57.68 l 16.6,16.49 c 12.95,12.86 13.03,33.99 0.17,46.94 l -19.28,19.41 c -12.86,12.95 -34,13.03 -46.94,0.16 l -16.62,-16.49 c -17.55,10.86 -36.88,19.06 -57.51,24.09 l 0.08,23.37 c 0.07,18.26 -14.82,33.25 -33.07,33.31 l -27.36,0.1 c -18.25,0.06 -33.24,-14.83 -33.31,-33.08 l -0.08,-23.38 c -20.65,-4.89 -40.03,-12.95 -57.68,-23.69 l -16.49,16.61 c -12.87,12.96 -33.99,13.03 -46.94,0.16 l -19.41,-19.27 c -12.95,-12.87 -13.03,-33.99 -0.16,-46.94 l 16.49,-16.61 c -10.85,-17.57 -19.06,-36.89 -24.09,-57.52 l -23.37,0.08 c -18.26,0.07 -33.25,-14.82 -33.31,-33.08 l -0.09,-27.35 c -0.06,-18.25 14.82,-33.24 33.07,-33.31 l 23.38,-0.08 c 4.88,-20.65 12.96,-40.03 23.69,-57.68 l -16.61,-16.49 c -12.95,-12.86 -13.03,-33.99 -0.16,-46.94 l 19.27,-19.41 c 12.86,-12.95 34,-13.03 46.95,-0.16 l 16.61,16.49 c 17.56,-10.85 36.88,-19.06 57.51,-24.09 l -0.08,-23.37 c -0.06,-18.26 14.82,-33.25 33.07,-33.31 l 27.36,-0.09 c 18.26,-0.07 33.24,14.82 33.31,33.08 l 0.08,23.37 c 20.66,4.88 40.04,12.96 57.68,23.69 l 16.5,-16.61 c 12.86,-12.95 33.98,-13.03 46.94,-0.16 l 19.4,19.27 c 12.95,12.87 13.03,33.99 0.16,46.95 l -16.48,16.6 c 10.85,17.57 19.05,36.89 24.08,57.52 l 23.37,-0.08 c 18.26,-0.06 33.25,14.82 33.31,33.08 l 0.1,27.35 c 0.06,18.26 -14.83,33.25 -33.08,33.3"
         style="fill:#eb725f;fill-opacity:1;fill-rule:nonzero;stroke:none"
         id="path184" />
      <path
         d="m 2870.32,3823.72 c -45.31,0.16 -81.92,37.02 -81.77,82.34 0.16,45.33 37.03,81.94 82.35,81.78 45.31,-0.15 81.93,-37.02 81.78,-82.34 -0.16,-45.32 -37.04,-81.94 -82.36,-81.78 z m 0.74,214.21 c -72.97,0.24 -132.34,-58.71 -132.59,-131.69 -0.25,-72.98 58.71,-132.35 131.69,-132.6 72.97,-0.25 132.34,58.7 132.59,131.68 0.26,72.99 -58.7,132.35 -131.69,132.61"
         style="fill:#f9ab43;fill-opacity:1;fill-rule:nonzero;stroke:none"
         id="path186" />
      <g
         id="g188"
         transform="scale(10)">
        <text
           xml:space="preserve"
           transform="matrix(1,0,0,-1,122.88,129.859)"
           style="font-variant:normal;font-weight:900;font-size:11.4745px;font-family:Prompt;-inkscape-font-specification:Prompt-Black;writing-mode:lr-tb;fill:#ffffff;fill-opacity:1;fill-rule:nonzero;stroke:none"
           id="text192"><tspan
             x="0 9.3403234 19.541018 24.130865 32.62207 41.675289 48.215813"
             y="0"
             sodipodi:role="line"
             id="tspan190">NO DATA</tspan></text>
      </g>
    </g>
  </g>
</svg>
