<svg width="245" height="160" viewBox="0 0 245 160" fill="none" xmlns="http://www.w3.org/2000/svg">
<g clip-path="url(#clip0_39040_14827)">
<path d="M244.279 156.219C244.279 156.294 189.679 156.359 122.343 156.359C55.0065 156.359 0.390625 156.294 0.390625 156.219C0.390625 156.143 54.9796 156.079 122.343 156.079C189.706 156.079 244.279 156.138 244.279 156.219Z" fill="#263238"/>
<path d="M165.526 0H76.8752C73.4384 0 70.6523 2.78608 70.6523 6.22289V149.818C70.6523 153.255 73.4384 156.041 76.8752 156.041H165.526C168.963 156.041 171.749 153.255 171.749 149.818V6.22289C171.749 2.78608 168.963 0 165.526 0Z" fill="#455A64"/>
<path d="M124.298 148.783C124.243 149.539 123.969 150.262 123.509 150.864C123.05 151.466 122.424 151.921 121.71 152.172C120.995 152.424 120.223 152.462 119.488 152.28C118.752 152.099 118.086 151.707 117.57 151.153C117.054 150.598 116.711 149.905 116.583 149.158C116.456 148.412 116.549 147.644 116.852 146.95C117.154 146.255 117.653 145.664 118.286 145.249C118.92 144.834 119.661 144.613 120.418 144.613C121.485 144.654 122.492 145.116 123.219 145.897C123.946 146.679 124.334 147.717 124.298 148.783Z" fill="#263238"/>
<path d="M135.766 4.49365H106.634C106.271 4.49365 105.977 4.78794 105.977 5.15096V5.56044C105.977 5.92346 106.271 6.21775 106.634 6.21775H135.766C136.129 6.21775 136.423 5.92346 136.423 5.56044V5.15096C136.423 4.78794 136.129 4.49365 135.766 4.49365Z" fill="#263238"/>
<path d="M168.819 8.95459H74.1016V140.605H168.819V8.95459Z" fill="#263238"/>
<path d="M106.862 121.591H106.148V116.607L109.536 120.156V116.922H110.25V121.878L106.862 118.329V121.591ZM113.31 120.597L113.884 120.919C113.753 121.153 113.588 121.332 113.387 121.458C113.158 121.608 112.869 121.682 112.519 121.682C112.108 121.682 111.777 121.556 111.525 121.304C111.236 121.015 111.091 120.639 111.091 120.177C111.091 119.692 111.247 119.288 111.56 118.966C111.826 118.7 112.155 118.567 112.547 118.567C112.93 118.567 113.245 118.696 113.492 118.952C113.767 119.237 113.905 119.652 113.905 120.198V120.282H111.791C111.81 120.53 111.894 120.728 112.043 120.877C112.169 121.003 112.344 121.066 112.568 121.066C112.75 121.066 112.906 121.017 113.037 120.919C113.144 120.835 113.235 120.728 113.31 120.597ZM111.84 119.722H113.205C113.177 119.559 113.107 119.426 112.995 119.323C112.874 119.211 112.72 119.155 112.533 119.155C112.337 119.155 112.176 119.218 112.05 119.344C111.947 119.438 111.877 119.564 111.84 119.722ZM114.155 118.644H114.925L115.688 120.331L116.514 118.392L117.34 120.331L118.103 118.644H118.873L117.34 121.801L116.514 119.918L115.688 121.801L114.155 118.644ZM121.693 121.591H120.965L121.945 116.572L123.569 120.198L125.207 116.572L126.089 121.591H125.361L124.885 118.777L123.527 121.808L122.183 118.77L121.693 121.591ZM129.096 118.987V118.644H129.782V121.591H129.096V121.283C128.868 121.549 128.574 121.682 128.214 121.682C127.78 121.682 127.433 121.528 127.171 121.22C126.915 120.912 126.786 120.544 126.786 120.114C126.786 119.648 126.924 119.274 127.199 118.994C127.479 118.71 127.82 118.567 128.221 118.567C128.59 118.567 128.882 118.707 129.096 118.987ZM128.305 119.183C128.063 119.183 127.864 119.274 127.71 119.456C127.561 119.638 127.486 119.862 127.486 120.128C127.486 120.39 127.561 120.611 127.71 120.793C127.864 120.975 128.063 121.066 128.305 121.066C128.539 121.066 128.735 120.985 128.893 120.821C129.057 120.658 129.138 120.429 129.138 120.135C129.138 119.832 129.057 119.599 128.893 119.435C128.735 119.267 128.539 119.183 128.305 119.183ZM130.652 118.644H131.338V121.591H130.652V118.644ZM130.68 117.741C130.596 117.657 130.554 117.552 130.554 117.426C130.554 117.3 130.596 117.195 130.68 117.111C130.764 117.027 130.869 116.985 130.995 116.985C131.121 116.985 131.226 117.027 131.31 117.111C131.394 117.195 131.436 117.3 131.436 117.426C131.436 117.552 131.394 117.657 131.31 117.741C131.226 117.825 131.121 117.867 130.995 117.867C130.869 117.867 130.764 117.825 130.68 117.741ZM132.204 116.488H132.89V121.591H132.204V116.488Z" fill="white"/>
<path d="M144.368 126.48L144.719 126.448C145.059 126.427 145.397 126.382 145.731 126.313C146.272 126.198 146.797 126.017 147.294 125.774C147.976 125.452 148.598 125.015 149.131 124.481C149.806 123.816 150.331 123.016 150.672 122.132C151.07 121.082 151.22 119.953 151.108 118.835C150.988 117.466 150.453 116.167 149.575 115.11C148.697 114.053 147.518 113.289 146.195 112.919C145.827 112.819 145.453 112.747 145.074 112.704C144.686 112.704 144.298 112.66 143.894 112.666H141.437H136.227H124.724H98.3728C97.2307 112.674 96.1086 112.967 95.1078 113.517C94.1275 114.072 93.3023 114.865 92.7083 115.823C92.1143 116.78 91.7704 117.871 91.7082 118.996C91.6207 120.097 91.7885 121.204 92.1984 122.229C92.6174 123.219 93.2612 124.097 94.0788 124.794C94.8874 125.47 95.8432 125.948 96.8696 126.189C97.8913 126.373 98.9311 126.437 99.9676 126.378H103.022L124.547 126.41L139.056 126.453L143 126.48H139.056L124.547 126.523L103.022 126.556H98.3836C98.1196 126.556 97.8448 126.556 97.5808 126.507C97.3146 126.474 97.0503 126.427 96.7888 126.367C95.7207 126.118 94.726 125.621 93.8848 124.918C93.0329 124.193 92.3615 123.28 91.9237 122.251C91.5011 121.194 91.326 120.055 91.4118 118.921C91.4825 117.772 91.844 116.66 92.4624 115.688C93.0836 114.692 93.9474 113.868 94.9731 113.296C96.016 112.72 97.1867 112.414 98.3782 112.407H124.73H136.233H143.9C144.298 112.407 144.702 112.407 145.101 112.445C145.49 112.494 145.876 112.571 146.254 112.677C147.621 113.067 148.835 113.868 149.732 114.971C150.628 116.075 151.163 117.427 151.265 118.846C151.371 119.986 151.211 121.135 150.796 122.202C150.442 123.097 149.902 123.907 149.212 124.578C148.665 125.115 148.029 125.552 147.332 125.871C146.826 126.115 146.292 126.296 145.742 126.41C145.404 126.472 145.062 126.506 144.719 126.512C144.508 126.486 144.368 126.48 144.368 126.48Z" fill="white"/>
<path d="M84.8605 54.8478L156.604 54.3306L158.603 103.106L84.3164 102.416L84.8605 54.8478Z" fill="#006FFF"/>
<path d="M84.8594 54.8476L121.281 25.3765L156.603 54.3304" fill="#006FFF"/>
<g opacity="0.3">
<path d="M84.8594 54.8476L121.281 25.3765L156.603 54.3304" fill="black"/>
</g>
<path d="M84.3175 102.416C84.2259 102.335 89.9693 96.0641 97.1458 88.4081C104.322 80.7521 110.206 74.6207 110.297 74.707C110.389 74.7932 104.645 81.0591 97.469 88.7152C90.2925 96.3712 84.4091 102.503 84.3175 102.416Z" fill="#263238"/>
<path d="M158.603 103.106C158.511 103.187 152.919 97.0452 146.114 89.3838C139.309 81.7224 133.862 75.4456 133.954 75.3756C134.045 75.3056 139.638 81.4368 146.443 89.0983C153.247 96.7597 158.694 103.026 158.603 103.106Z" fill="#263238"/>
<g opacity="0.5">
<path d="M156.603 54.3306L120.575 83.1121L84.8594 54.8478" fill="black"/>
</g>
<path d="M88.4749 57.5147L88.3672 36.6478L151.204 35.1069L151.889 57.9403L120.575 82.7349L88.4749 57.5147Z" fill="#EBEBEB"/>
<path d="M121.454 75.2352C119.25 75.241 117.069 74.7802 115.055 73.8832C113.042 72.9862 111.241 71.6733 109.77 70.0306C108.3 68.388 107.194 66.4529 106.525 64.3524C105.856 62.2519 105.64 60.0337 105.889 57.8434C106.355 53.7238 108.439 49.9583 111.682 47.3752C114.925 44.7921 119.061 43.603 123.181 44.0696C127.301 44.5361 131.066 46.6201 133.649 49.8629C136.232 53.1058 137.421 57.242 136.955 61.3616C136.525 65.1738 134.707 68.6945 131.849 71.253C128.99 73.8115 125.29 75.2289 121.454 75.2352ZM121.411 44.5248C118.501 44.528 115.654 45.3727 113.213 46.9573C110.772 48.5419 108.841 50.7987 107.654 53.4556C106.467 56.1126 106.073 59.0562 106.521 61.9317C106.969 64.8072 108.239 67.4918 110.178 69.6619C112.117 71.832 114.642 73.395 117.449 74.1624C120.256 74.9298 123.225 74.8689 125.999 73.9871C128.772 73.1052 131.231 71.44 133.079 69.1922C134.928 66.9444 136.087 64.21 136.416 61.3185C136.641 59.3485 136.475 57.3535 135.929 55.4476C135.382 53.5417 134.465 51.7622 133.23 50.211C131.995 48.6597 130.466 47.3672 128.731 46.4072C126.996 45.4473 125.089 44.8387 123.119 44.6164C122.552 44.543 121.982 44.5017 121.411 44.4925V44.5248Z" fill="#006FFF"/>
<path d="M110.797 61.7714L113.41 58.5709L119.52 62.9836L129.45 51.2812L132.445 53.916L119.671 68.6353L110.797 61.7714Z" fill="#006FFF"/>
<path d="M189.047 82.9289C189.074 83.0247 189.122 83.1131 189.188 83.1871C189.255 83.2612 189.337 83.3189 189.429 83.3559C189.521 83.3929 189.621 83.4082 189.72 83.4005C189.819 83.3928 189.915 83.3623 190.001 83.3115C190.166 83.1904 190.293 83.0247 190.368 82.8338C190.442 82.643 190.461 82.4349 190.421 82.2339C190.335 81.8362 190.172 81.4592 189.941 81.124C190.099 81.212 190.274 81.2629 190.454 81.2729C190.634 81.2829 190.814 81.2517 190.98 81.1816C191.146 81.1116 191.294 81.0046 191.413 80.8688C191.531 80.7329 191.617 80.5718 191.664 80.3977C191.711 80.2237 191.718 80.0412 191.683 79.8642C191.649 79.6872 191.575 79.5203 191.467 79.3763C191.358 79.2323 191.218 79.1149 191.058 79.0331C190.897 78.9513 190.72 78.9072 190.539 78.9043C191.052 78.8295 191.537 78.6276 191.951 78.317C192.153 78.1547 192.299 77.934 192.371 77.6851C192.442 77.4363 192.435 77.1715 192.35 76.9269C192.297 76.8128 192.217 76.7129 192.118 76.6353C192.019 76.5577 191.903 76.5046 191.78 76.4805C191.656 76.4563 191.529 76.4617 191.408 76.4962C191.287 76.5307 191.176 76.5934 191.084 76.6791C191.362 76.5239 191.606 76.313 191.8 76.0595C191.895 75.9313 191.95 75.7776 191.956 75.6181C191.963 75.4587 191.922 75.3009 191.838 75.1651C191.711 75.0316 191.545 74.9419 191.364 74.909C191.183 74.8761 190.996 74.9016 190.83 74.982C190.501 75.1407 190.183 75.3207 189.877 75.5207C189.489 75.7264 189.053 75.8262 188.614 75.8101C188.176 75.794 187.749 75.6626 187.377 75.4291L185.367 77.0886L189.047 82.9289Z" fill="#263238"/>
<path d="M178.309 73.8073C177.752 73.9916 177.259 74.3315 176.888 74.7869C176.518 75.2423 176.286 75.7941 176.219 76.3773C176.185 76.5889 176.194 76.8051 176.245 77.0132C176.296 77.2213 176.388 77.4172 176.515 77.5895C176.695 77.7746 176.922 77.9081 177.171 77.9763C177.42 78.0445 177.683 78.0449 177.932 77.9774C178.427 77.8398 178.888 77.5993 179.284 77.2717C179.599 77.0907 179.874 76.8481 180.092 76.5583C180.311 76.2685 180.468 75.9375 180.556 75.5853C180.574 75.227 180.48 74.872 180.287 74.5697C180.094 74.2675 179.811 74.033 179.478 73.8989C179.145 73.7728 178.789 73.7181 178.434 73.7386C178.078 73.759 177.731 73.854 177.415 74.0174" fill="#263238"/>
<path d="M180.053 83.7586C179.877 84.4738 179.576 85.1522 179.164 85.7629C178.957 86.0672 178.689 86.3247 178.376 86.5186C178.063 86.7126 177.713 86.8388 177.349 86.8889C176.983 86.9294 176.615 86.8492 176.3 86.6604C175.985 86.4716 175.74 86.1848 175.603 85.8437C175.543 86.0531 175.428 86.243 175.271 86.3943C175.114 86.5456 174.92 86.653 174.709 86.7057C174.495 86.7517 174.272 86.7284 174.073 86.6393C173.873 86.5502 173.707 86.3998 173.599 86.2101C173.502 86.0153 173.48 85.7917 173.538 85.5819C173.595 85.3721 173.728 85.191 173.911 85.0732C173.48 85.3157 172.941 85.5635 172.516 85.3103C172.333 85.195 172.199 85.0167 172.139 84.8092C171.918 84.1304 172.338 83.4192 172.807 82.8804C173.276 82.3416 173.825 81.8029 173.938 81.1132C173.971 80.5414 173.885 79.969 173.685 79.4322C173.51 78.8187 173.484 78.1721 173.61 77.5465C173.674 77.2325 173.803 76.9353 173.989 76.6738C174.174 76.4122 174.412 76.1921 174.687 76.0272C174.962 75.8659 175.279 75.7896 175.597 75.8078C175.915 75.826 176.221 75.938 176.476 76.1295L176.567 77.0455L180.07 83.7586" fill="#263238"/>
<path d="M188.43 94.4371C188.43 94.4371 189.686 107.718 188.63 109.447C187.574 111.177 174.622 129.253 174.622 129.253H174.654C174.401 129.361 174.115 129.463 173.835 129.576C173.383 129.736 172.908 129.82 172.429 129.824C171.835 129.852 171.24 129.795 170.662 129.657C170.123 129.474 169.676 130.018 169.956 130.427C170.236 130.837 171.653 131.365 173.409 131.198C175.166 131.031 173.188 132.976 172.483 133.698C171.777 134.42 169.697 136.763 169.751 137.157C169.826 137.733 170.457 137.76 171.147 137.022C171.836 136.284 174.05 134.21 174.417 134.603C174.783 134.996 171.13 138.622 171.13 138.622C171.13 138.622 170.225 139.274 170.635 139.743C171.362 140.583 174.945 136.435 175.284 136.031C175.516 135.751 175.925 136.16 175.661 136.446C175.397 136.731 171.944 139.991 172.682 140.853C173.248 141.515 175.667 137.464 176.755 137.189C177.843 136.914 174.6 140.072 175.177 140.686C175.387 140.912 175.575 141.052 177.17 138.967C178.432 137.151 179.592 135.266 180.645 133.321C182.342 131.483 199.071 113.321 199.201 109.927C199.335 106.355 199.976 94.2646 199.976 94.2646L188.43 94.4371Z" fill="#EB996E"/>
<path d="M168.479 153.552L168.323 148.622L177.558 148.277L177.859 155.486L177.288 155.545C174.745 155.783 164.358 156.569 162.617 156.117C160.699 155.61 168.479 153.552 168.479 153.552Z" fill="#006FFF"/>
<g opacity="0.4">
<path d="M164.678 154.694C164.678 154.694 161.957 155.588 162.318 156.03C162.679 156.472 173.218 156.068 177.856 155.491L177.829 155.287L165.54 155.858C165.54 155.858 165.217 154.694 164.678 154.694Z" fill="white"/>
</g>
<path d="M177.977 155.271H177.821L177.368 155.314L175.693 155.454C174.276 155.556 172.32 155.675 170.154 155.761C167.988 155.847 166.027 155.874 164.61 155.879H162.929H162.471C162.417 155.887 162.363 155.887 162.309 155.879H162.471H162.929L164.605 155.852C166.027 155.825 167.988 155.782 170.149 155.696C172.309 155.61 174.27 155.508 175.687 155.421L177.363 155.319H177.821L177.977 155.271Z" fill="#263238"/>
<path d="M165.546 156.02C165.464 155.743 165.35 155.478 165.207 155.228C165.031 155 164.83 154.792 164.609 154.608C164.897 154.697 165.142 154.889 165.298 155.147C165.491 155.394 165.58 155.707 165.546 156.02Z" fill="#263238"/>
<path d="M168.221 154.511C168.221 154.511 168.059 154.376 167.919 154.166C167.817 154.05 167.743 153.912 167.703 153.762C167.73 153.762 167.865 153.897 168.01 154.102C168.156 154.306 168.248 154.495 168.221 154.511Z" fill="#263238"/>
<path d="M168.95 154.086C168.95 154.086 168.783 154.021 168.616 153.881C168.449 153.741 168.336 153.617 168.358 153.59C168.379 153.563 168.525 153.66 168.692 153.795C168.859 153.929 168.972 154.064 168.95 154.086Z" fill="#263238"/>
<path d="M169.395 153.196C169.243 153.258 169.079 153.285 168.915 153.277C168.901 153.335 168.867 153.385 168.818 153.419C168.769 153.453 168.711 153.468 168.652 153.461C168.593 153.454 168.538 153.426 168.499 153.382C168.46 153.337 168.438 153.28 168.438 153.22C168.438 153.161 168.46 153.104 168.499 153.059C168.538 153.015 168.593 152.987 168.652 152.98C168.711 152.973 168.769 152.988 168.818 153.022C168.867 153.056 168.901 153.106 168.915 153.164C169.075 153.139 169.24 153.15 169.395 153.196Z" fill="#263238"/>
<path d="M169.534 152.577C169.376 152.688 169.189 152.75 168.996 152.754C168.814 152.786 168.628 152.768 168.457 152.701C168.634 152.666 168.815 152.646 168.996 152.641C169.173 152.602 169.353 152.581 169.534 152.577Z" fill="#263238"/>
<path d="M167.875 153.719C167.679 153.753 167.478 153.753 167.282 153.719C167.067 153.7 166.855 153.662 166.647 153.606C166.52 153.574 166.397 153.528 166.28 153.471C166.207 153.432 166.151 153.366 166.124 153.288C166.113 153.245 166.115 153.2 166.13 153.158C166.144 153.116 166.17 153.079 166.205 153.051C166.426 152.929 166.683 152.888 166.932 152.936C167.18 152.985 167.403 153.119 167.562 153.315C167.66 153.428 167.731 153.56 167.773 153.703C167.784 153.756 167.784 153.811 167.773 153.864C167.704 153.684 167.606 153.516 167.482 153.369C167.337 153.214 167.149 153.105 166.943 153.056C166.826 153.022 166.704 153.01 166.582 153.023C166.461 153.036 166.344 153.073 166.237 153.132C166.146 153.207 166.189 153.315 166.296 153.374C166.403 153.428 166.515 153.472 166.63 153.503C166.833 153.566 167.04 153.611 167.25 153.638C167.649 153.708 167.875 153.697 167.875 153.719Z" fill="#263238"/>
<path d="M167.726 153.752C167.65 153.63 167.621 153.484 167.645 153.342C167.655 153.186 167.705 153.036 167.791 152.906C167.836 152.815 167.903 152.737 167.988 152.68C168.072 152.624 168.169 152.59 168.27 152.583C168.33 152.593 168.384 152.626 168.42 152.676C168.456 152.725 168.472 152.786 168.464 152.847C168.457 152.943 168.425 153.035 168.373 153.116C168.301 153.251 168.212 153.376 168.109 153.488C167.925 153.676 167.785 153.752 167.775 153.741C167.764 153.73 167.888 153.628 168.049 153.434C168.139 153.322 168.217 153.201 168.281 153.073C168.357 152.944 168.405 152.712 168.254 152.696C168.103 152.679 167.963 152.836 167.877 152.96C167.798 153.078 167.745 153.212 167.721 153.353C167.71 153.486 167.712 153.619 167.726 153.752Z" fill="#263238"/>
<path d="M177.691 152.749C177.691 152.749 177.427 152.749 177.013 152.797C176.472 152.884 175.965 153.117 175.547 153.471C175.136 153.83 174.832 154.297 174.669 154.818C174.54 155.222 174.54 155.486 174.518 155.486C174.509 155.423 174.509 155.36 174.518 155.297C174.528 155.128 174.555 154.96 174.599 154.796C174.744 154.248 175.051 153.756 175.481 153.385C175.911 153.015 176.443 152.784 177.007 152.722C177.175 152.703 177.345 152.703 177.514 152.722C177.574 152.72 177.634 152.729 177.691 152.749Z" fill="#263238"/>
<path d="M176.592 148.945C176.679 149.572 176.729 150.204 176.742 150.836C176.794 151.469 176.807 152.104 176.78 152.738C176.696 152.109 176.646 151.476 176.629 150.842C176.577 150.211 176.565 149.578 176.592 148.945Z" fill="#263238"/>
<path d="M173.312 154.683C172.875 154.802 172.424 154.864 171.971 154.867C171.518 154.906 171.062 154.888 170.613 154.813C170.613 154.78 171.222 154.813 171.965 154.753C172.709 154.694 173.307 154.651 173.312 154.683Z" fill="#263238"/>
<path d="M175.121 154.614C175.121 154.614 175.073 154.743 175.019 154.883C174.965 155.023 174.933 155.147 174.9 155.147C174.868 155.147 174.847 155.002 174.9 154.84C174.954 154.678 175.078 154.592 175.121 154.614Z" fill="#263238"/>
<path d="M175.77 153.735C175.77 153.735 175.738 153.854 175.646 153.956C175.555 154.058 175.463 154.123 175.436 154.101C175.409 154.08 175.474 153.983 175.565 153.881C175.657 153.778 175.749 153.714 175.77 153.735Z" fill="#263238"/>
<path d="M176.732 153.326C176.732 153.358 176.603 153.363 176.468 153.417C176.334 153.471 176.237 153.547 176.215 153.525C176.194 153.504 176.264 153.374 176.431 153.31C176.598 153.245 176.738 153.283 176.732 153.326Z" fill="#263238"/>
<path d="M177.418 153.105C177.418 153.132 177.38 153.18 177.304 153.213C177.229 153.245 177.159 153.25 177.143 153.213C177.127 153.175 177.186 153.132 177.261 153.099C177.337 153.067 177.407 153.072 177.418 153.105Z" fill="#263238"/>
<g opacity="0.3">
<path d="M177.67 152.501L168.441 152.701L168.414 151.585L177.724 151.914L177.67 152.501Z" fill="black"/>
</g>
<path d="M203.239 120.105L174.048 119.706C174.048 119.706 165.918 120.46 165.918 131.042L166.947 151.876H179.387L178.542 131.909C179.237 131.909 188.654 132.222 188.654 132.222L203.239 120.105Z" fill="#263238"/>
<path d="M166.955 151.876C166.93 151.758 166.917 151.637 166.917 151.515C166.917 151.251 166.879 150.906 166.858 150.481L166.637 146.677C166.448 143.444 166.098 139.032 165.839 134.118C165.753 131.667 165.565 129.318 165.839 127.179C165.905 126.658 166.012 126.142 166.157 125.638C166.309 125.164 166.51 124.707 166.755 124.275C167.198 123.5 167.77 122.808 168.447 122.227C169.005 121.752 169.621 121.348 170.279 121.026C170.779 120.801 171.298 120.62 171.831 120.487L172.413 120.347L172.849 120.277C172.968 120.252 173.089 120.24 173.21 120.239C173.097 120.284 172.98 120.314 172.86 120.331L172.434 120.428L171.858 120.589C171.341 120.753 170.837 120.953 170.349 121.188C169.711 121.516 169.116 121.922 168.576 122.394C167.931 122.973 167.385 123.654 166.96 124.409C166.738 124.832 166.557 125.276 166.421 125.735C166.285 126.228 166.184 126.73 166.12 127.238C165.845 129.328 166.039 131.678 166.12 134.129C166.362 139.032 166.696 143.466 166.836 146.688C166.912 148.304 166.949 149.597 166.965 150.497C166.965 150.928 166.965 151.267 166.965 151.537C166.974 151.65 166.971 151.764 166.955 151.876Z" fill="#455A64"/>
<path d="M222.668 153.557L217.743 153.886L217.102 144.673L224.295 144.134L224.376 144.673C224.699 147.205 225.852 157.604 225.453 159.312C225.001 161.262 222.668 153.557 222.668 153.557Z" fill="#006FFF"/>
<g opacity="0.4">
<path d="M223.946 157.313C223.946 157.313 224.932 160.007 225.363 159.624C225.794 159.242 225.018 148.73 224.285 144.118H224.08L225.088 156.386C225.088 156.386 223.924 156.774 223.946 157.313Z" fill="white"/>
</g>
<path d="M224.047 144.005C224.064 144.055 224.075 144.108 224.079 144.161C224.079 144.296 224.117 144.447 224.139 144.614C224.193 145.066 224.257 145.627 224.333 146.284C224.489 147.696 224.677 149.646 224.834 151.806C224.99 153.967 225.098 155.923 225.152 157.345C225.152 158.002 225.189 158.568 225.205 159.021C225.205 159.193 225.205 159.344 225.205 159.479C225.211 159.532 225.211 159.586 225.205 159.64C225.202 159.586 225.202 159.532 225.205 159.479C225.205 159.344 225.205 159.193 225.179 159.026C225.179 158.568 225.125 158.008 225.087 157.345C225.012 155.928 224.898 153.972 224.742 151.812C224.586 149.651 224.403 147.701 224.268 146.289C224.209 145.632 224.155 145.072 224.112 144.619C224.112 144.447 224.085 144.301 224.069 144.161C224.052 144.021 224.047 144.005 224.047 144.005Z" fill="#263238"/>
<path d="M225.214 156.396C224.943 156.494 224.683 156.618 224.438 156.768C224.214 156.95 224.014 157.158 223.84 157.388C223.924 157.092 224.116 156.838 224.378 156.677C224.613 156.484 224.91 156.385 225.214 156.396Z" fill="#263238"/>
<path d="M223.633 153.778C223.633 153.805 223.504 153.945 223.305 154.096C223.105 154.247 222.922 154.349 222.9 154.322C222.879 154.296 223.035 154.155 223.234 154.005C223.351 153.903 223.486 153.826 223.633 153.778Z" fill="#263238"/>
<path d="M223.185 153.061C223.185 153.061 223.12 153.234 222.991 153.406C222.862 153.579 222.732 153.697 222.711 153.676C222.689 153.654 222.77 153.503 222.905 153.336C223.039 153.169 223.158 153.045 223.185 153.061Z" fill="#263238"/>
<path d="M222.283 152.658C222.315 152.658 222.358 152.868 222.38 153.132C222.416 153.291 222.416 153.457 222.38 153.617C222.347 153.617 222.304 153.407 222.283 153.143C222.261 152.879 222.25 152.658 222.283 152.658Z" fill="#263238"/>
<path d="M221.656 152.539C221.776 152.694 221.844 152.882 221.85 153.078C221.892 153.257 221.88 153.444 221.818 153.617C221.775 153.44 221.75 153.259 221.742 153.078C221.696 152.902 221.667 152.721 221.656 152.539Z" fill="#263238"/>
<path d="M222.851 154.15C222.902 154.343 222.916 154.544 222.894 154.743C222.882 154.959 222.849 155.174 222.797 155.384C222.771 155.511 222.731 155.636 222.678 155.755C222.642 155.828 222.581 155.886 222.506 155.917C222.462 155.93 222.416 155.93 222.372 155.918C222.328 155.905 222.289 155.881 222.258 155.847C222.128 155.629 222.079 155.373 222.119 155.123C222.16 154.872 222.287 154.644 222.479 154.479C222.589 154.378 222.72 154.303 222.861 154.258C222.91 154.236 222.964 154.226 223.018 154.231C222.838 154.302 222.674 154.406 222.533 154.538C222.384 154.684 222.283 154.872 222.242 155.077C222.21 155.194 222.203 155.317 222.22 155.437C222.238 155.558 222.28 155.673 222.344 155.777C222.42 155.869 222.527 155.825 222.581 155.712C222.631 155.603 222.671 155.489 222.7 155.373C222.754 155.168 222.792 154.959 222.813 154.748C222.851 154.403 222.835 154.155 222.851 154.15Z" fill="#263238"/>
<path d="M222.894 154.301C222.775 154.384 222.629 154.421 222.484 154.403C222.329 154.394 222.178 154.35 222.043 154.274C221.951 154.23 221.871 154.163 221.812 154.081C221.752 153.998 221.715 153.901 221.703 153.8C221.712 153.74 221.744 153.686 221.793 153.648C221.841 153.611 221.901 153.594 221.962 153.6C222.058 153.605 222.153 153.633 222.236 153.681C222.373 153.747 222.5 153.833 222.614 153.934C222.725 154.018 222.816 154.127 222.878 154.252C222.878 154.252 222.764 154.145 222.565 153.994C222.448 153.909 222.324 153.835 222.193 153.773C222.059 153.703 221.832 153.66 221.816 153.81C221.8 153.961 221.972 154.101 222.096 154.182C222.217 154.258 222.353 154.306 222.495 154.322C222.628 154.33 222.762 154.323 222.894 154.301Z" fill="#263238"/>
<path d="M221.542 144.376C221.542 144.376 221.542 144.64 221.617 145.055C221.72 145.591 221.968 146.089 222.334 146.494C222.709 146.892 223.186 147.181 223.713 147.329C224.123 147.437 224.387 147.431 224.387 147.453C224.324 147.463 224.26 147.463 224.198 147.453C224.029 147.45 223.861 147.428 223.697 147.388C223.144 147.261 222.642 146.97 222.257 146.553C221.872 146.136 221.623 145.612 221.542 145.05C221.522 144.882 221.522 144.712 221.542 144.543C221.533 144.488 221.533 144.432 221.542 144.376Z" fill="#263238"/>
<path d="M217.777 145.611C218.401 145.503 219.031 145.431 219.663 145.395C220.292 145.32 220.926 145.284 221.56 145.287C220.936 145.398 220.306 145.47 219.674 145.503C219.045 145.578 218.411 145.614 217.777 145.611Z" fill="#263238"/>
<path d="M223.628 148.687C223.762 149.121 223.84 149.57 223.859 150.023C223.921 150.474 223.921 150.93 223.859 151.381C223.827 151.381 223.821 150.777 223.757 150.034C223.692 149.29 223.595 148.698 223.628 148.687Z" fill="#263238"/>
<path d="M223.491 146.86C223.491 146.86 223.62 146.903 223.766 146.952C223.911 147 224.03 147.027 224.03 147.06C224.03 147.092 223.89 147.119 223.728 147.06C223.566 147 223.469 146.903 223.491 146.86Z" fill="#263238"/>
<path d="M222.592 146.263C222.592 146.263 222.716 146.295 222.819 146.381C222.921 146.467 222.991 146.559 222.97 146.586C222.948 146.613 222.851 146.554 222.743 146.467C222.636 146.381 222.576 146.29 222.592 146.263Z" fill="#263238"/>
<path d="M222.135 145.319C222.168 145.319 222.178 145.443 222.232 145.578C222.286 145.713 222.372 145.804 222.351 145.826C222.329 145.847 222.2 145.788 222.13 145.621C222.06 145.454 222.108 145.314 222.135 145.319Z" fill="#263238"/>
<path d="M221.903 144.641C221.903 144.641 221.983 144.673 222.016 144.748C222.048 144.824 222.059 144.894 222.016 144.91C221.973 144.926 221.935 144.872 221.897 144.797C221.859 144.721 221.876 144.651 221.903 144.641Z" fill="#263238"/>
<g opacity="0.3">
<path d="M221.294 144.404L221.816 153.622L220.707 153.692V144.377L221.294 144.404Z" fill="black"/>
</g>
<path d="M192.482 144.446C192.482 144.446 217.357 130.864 220.175 126.44C221.02 125.146 221.537 123.664 221.682 122.125C221.826 120.586 221.594 119.034 221.005 117.604L200.073 120.401L185.187 135.309C181.954 137.879 176.098 143.25 176.098 148.546C176.098 157.609 187.816 156.127 196.226 156.149C207.724 156.176 220.628 156.224 220.628 156.224L220.66 143.87L192.482 144.446Z" fill="#263238"/>
<path d="M186.57 147.033C187.619 146.705 188.643 146.304 189.635 145.831C190.659 145.43 191.651 144.952 192.604 144.403C191.554 144.731 190.53 145.134 189.538 145.61C188.515 146.01 187.522 146.485 186.57 147.033Z" fill="#455A64"/>
<path d="M188.547 144.005C189.256 144.145 189.979 144.208 190.702 144.193C191.431 144.255 192.164 144.239 192.889 144.145C192.18 144.005 191.457 143.94 190.734 143.951C190.005 143.886 189.271 143.904 188.547 144.005Z" fill="#455A64"/>
<path d="M198.433 122.497C198.363 122.59 198.286 122.677 198.201 122.756L197.49 123.456L194.844 126.005L186.046 134.334C184.327 135.95 182.657 137.475 181.197 138.914C179.896 140.167 178.746 141.568 177.771 143.089C177.123 144.119 176.646 145.247 176.359 146.43L176.235 146.968C176.235 147.13 176.197 147.265 176.176 147.389C176.169 147.504 176.147 147.618 176.111 147.728C176.098 147.613 176.098 147.498 176.111 147.383C176.111 147.259 176.111 147.119 176.143 146.958C176.176 146.796 176.203 146.602 176.24 146.386C176.49 145.177 176.948 144.019 177.593 142.965C178.553 141.412 179.699 139.981 181.003 138.704C182.452 137.243 184.117 135.729 185.852 134.102L194.71 125.848L197.404 123.37L198.152 122.702C198.24 122.626 198.334 122.558 198.433 122.497Z" fill="#455A64"/>
<path d="M190.969 95.5093C190.444 95.7928 189.864 95.9627 189.269 96.008C188.674 96.0534 188.076 95.9731 187.513 95.7725C186.951 95.5718 186.437 95.2553 186.005 94.8433C185.573 94.4314 185.232 93.9332 185.005 93.3812L184.057 91.0698C184.057 91.0698 180.824 92.212 179.208 89.2649C178.292 87.6109 176.993 84.7877 176.034 82.6272C175.638 81.7286 175.479 80.7433 175.574 79.7658C175.668 78.7884 176.012 77.8516 176.573 77.0454C179.208 73.7212 181.298 74.2761 185.484 74.955L186.109 75.0573L192.849 90.0084C193.291 90.993 193.342 92.1083 192.993 93.1292C192.644 94.1502 191.921 95.0007 190.969 95.5093Z" fill="#FFBE9D"/>
<path d="M178.084 84.087C178.117 83.9955 178.123 83.8962 178.099 83.8017C178.076 83.7072 178.025 83.6217 177.953 83.5563C177.881 83.4909 177.791 83.4485 177.694 83.4344C177.598 83.4203 177.5 83.4352 177.412 83.4772C177.324 83.5192 177.251 83.5864 177.201 83.6702C177.152 83.7541 177.128 83.8508 177.134 83.948C177.14 84.0452 177.174 84.1385 177.233 84.216C177.292 84.2935 177.372 84.3518 177.464 84.3833C177.525 84.4047 177.588 84.4139 177.652 84.4106C177.716 84.4072 177.778 84.3913 177.836 84.3638C177.893 84.3362 177.945 84.2976 177.988 84.2501C178.03 84.2027 178.063 84.1472 178.084 84.087Z" fill="#263238"/>
<path d="M176.758 83.5918C176.834 83.6187 177.001 83.2362 177.41 83.0153C177.82 82.7944 178.229 82.8429 178.245 82.7675C178.262 82.692 178.159 82.6651 177.976 82.6381C177.734 82.6022 177.487 82.6497 177.276 82.7728C177.059 82.8941 176.889 83.0835 176.791 83.3116C176.694 83.4679 176.726 83.581 176.758 83.5918Z" fill="#263238"/>
<path d="M181.629 81.668C181.58 81.7519 181.557 81.8484 181.563 81.9453C181.569 82.0422 181.604 82.1351 181.663 82.2124C181.721 82.2896 181.802 82.3476 181.894 82.379C181.986 82.4104 182.085 82.4139 182.179 82.3889C182.272 82.364 182.357 82.3117 182.421 82.2387C182.485 82.1658 182.526 82.0755 182.539 81.9792C182.551 81.883 182.535 81.7851 182.492 81.6981C182.449 81.611 182.381 81.5387 182.297 81.4902C182.242 81.4575 182.18 81.4361 182.117 81.4274C182.053 81.4186 181.988 81.4226 181.926 81.4392C181.864 81.4557 181.805 81.4845 181.754 81.5238C181.703 81.5631 181.661 81.6121 181.629 81.668Z" fill="#263238"/>
<path d="M181.22 81.5713C181.296 81.5982 181.463 81.2157 181.872 80.9948C182.282 80.7739 182.691 80.8224 182.707 80.7469C182.724 80.6715 182.621 80.6446 182.438 80.6176C182.196 80.5817 181.949 80.6292 181.738 80.7523C181.521 80.8736 181.351 81.063 181.253 81.2911C181.177 81.4474 181.188 81.5605 181.22 81.5713Z" fill="#263238"/>
<path d="M181.544 85.8977C181.288 85.9233 181.04 85.9964 180.811 86.1132C180.698 86.1563 180.601 86.1778 180.563 86.1132C180.502 86.0088 180.47 85.8895 180.472 85.7683C180.434 85.4397 180.391 85.111 180.348 84.7662C180.279 83.8986 180.118 83.0408 179.868 82.207C179.856 83.0761 179.93 83.9442 180.089 84.7986C180.138 85.1434 180.186 85.472 180.235 85.8007C180.238 85.9745 180.3 86.142 180.412 86.2748C180.449 86.3077 180.493 86.3313 180.541 86.3434C180.589 86.3556 180.639 86.3561 180.687 86.3448C180.757 86.33 180.824 86.3046 180.887 86.2694C181.328 86.0755 181.582 85.93 181.544 85.8977Z" fill="#263238"/>
<path d="M184.027 91.0323C185.41 90.3204 186.548 89.2116 187.297 87.8481C187.297 87.8481 187.534 90.472 184.436 91.8028L184.027 91.0323Z" fill="#EB996E"/>
<path d="M187.434 78.3762C187.482 78.3223 189.804 76.9484 190.494 79.4806C191.092 81.6735 188.614 82.0506 188.581 81.9806C188.549 81.9105 187.434 78.3762 187.434 78.3762Z" fill="#FFBE9D"/>
<path d="M189.026 80.6929C189.026 80.6929 189.069 80.6929 189.144 80.6929C189.245 80.6964 189.343 80.6618 189.419 80.5959C189.522 80.4598 189.587 80.2989 189.608 80.1296C189.629 79.9603 189.604 79.7885 189.537 79.6315C189.477 79.4493 189.376 79.2833 189.241 79.1466C189.197 79.0886 189.14 79.042 189.075 79.0111C189.009 78.9801 188.937 78.9656 188.864 78.9688C188.819 78.9744 188.777 78.995 188.745 79.0272C188.712 79.0594 188.692 79.1014 188.686 79.1466C188.686 79.2166 188.686 79.2544 188.686 79.2597C188.686 79.2651 188.627 79.2597 188.616 79.152C188.607 79.096 188.618 79.0384 188.649 78.9904C188.69 78.9249 188.756 78.8785 188.832 78.8611C188.924 78.8455 189.019 78.8542 189.106 78.8863C189.194 78.9184 189.272 78.9728 189.333 79.0442C189.488 79.1938 189.604 79.3787 189.672 79.583C189.747 79.7626 189.768 79.9601 189.733 80.1515C189.697 80.3428 189.607 80.5197 189.473 80.6606C189.424 80.6979 189.366 80.7236 189.306 80.7358C189.245 80.7479 189.183 80.7461 189.123 80.7306C189.047 80.7468 189.02 80.7037 189.026 80.6929Z" fill="#EB996E"/>
<path d="M186.357 95.1374C186.357 95.1374 192.149 85.4394 201.103 93.6019C206.949 98.9358 216.485 109.938 219.891 114.248C220.656 115.212 221.846 116.683 221.011 117.588C218.457 120.347 211.496 126.532 198.614 121.899L186.395 104.905C185.374 103.485 184.821 101.781 184.813 100.032C184.804 98.2825 185.34 96.5738 186.346 95.1428L186.357 95.1374Z" fill="#006FFF"/>
<path d="M193.782 90.5205L192.149 87.8481L183.809 94.4859L185.366 96.9912L193.782 90.5205Z" fill="#006FFF"/>
<g opacity="0.3">
<path d="M193.424 90.8652C193.424 90.8652 186.856 96.5439 186.764 96.447C186.673 96.35 184.141 94.5289 184.141 94.5289L186.452 95.8274L193.424 90.8652Z" fill="black"/>
</g>
<path d="M193.851 90.4883C193.702 90.5453 193.561 90.6213 193.431 90.7146C193.173 90.8762 192.801 91.1187 192.354 91.4311C191.449 92.0507 190.236 92.9505 188.9 93.9418C187.99 94.6153 187.133 95.2349 186.4 95.7414H186.508C185.727 95.3211 185.075 94.9709 184.617 94.7392C184.382 94.6013 184.135 94.4858 183.879 94.3944C184.088 94.568 184.316 94.718 184.558 94.8416C184.999 95.111 185.635 95.4828 186.406 95.9192L186.459 95.9461L186.513 95.9138C187.262 95.4181 188.13 94.8093 189.04 94.1358L192.451 91.5712L193.485 90.7954C193.619 90.7086 193.743 90.6054 193.851 90.4883Z" fill="#263238"/>
<path d="M158.244 115.983L156.66 115.342C155.73 115.087 154.827 114.74 153.966 114.307C153.534 114.102 153.142 113.823 152.807 113.483C152.371 113.078 151.994 112.613 151.687 112.104C151.654 111.988 151.583 111.887 151.485 111.816C151.388 111.745 151.27 111.709 151.149 111.714C151.029 111.718 150.914 111.763 150.822 111.84C150.73 111.918 150.666 112.024 150.641 112.141C150.55 112.632 151.18 114.011 152.511 115.142C153.842 116.274 151.089 116.22 150.081 116.22C149.074 116.22 145.943 116.382 145.695 116.694C145.335 117.147 145.76 117.615 146.773 117.589C147.786 117.562 150.819 117.696 150.792 118.23C150.765 118.763 145.625 118.704 145.625 118.704C145.625 118.704 144.548 118.515 144.478 119.129C144.392 120.245 149.866 119.894 150.404 119.846C150.765 119.814 150.76 120.385 150.367 120.412C149.973 120.439 145.238 120.239 145.135 121.371C145.06 122.238 149.645 121.128 150.604 121.71C151.563 122.292 147.042 122.2 147.005 123.03C147.005 123.343 147.005 123.569 149.629 123.251C152.252 122.933 159.375 120.859 159.375 120.859L158.179 115.897" fill="#FFBE9D"/>
<path d="M189.188 98.521C189.188 98.521 180.67 110.266 178.698 110.724C176.726 111.182 154.766 114.636 154.766 114.636L155.843 121.802C155.843 121.802 183.1 121.037 185.74 118.628C188.38 116.22 196.354 103.973 196.354 103.973L189.188 98.521Z" fill="#FFBE9D"/>
<path d="M183.191 118.424C183.191 118.424 183.251 118.521 183.418 118.623C183.664 118.758 183.946 118.816 184.226 118.79C184.437 118.772 184.642 118.706 184.824 118.597C185.006 118.488 185.161 118.338 185.276 118.16C185.425 117.942 185.511 117.687 185.523 117.423C185.536 117.16 185.474 116.898 185.346 116.667C185.213 116.416 184.99 116.223 184.722 116.128C184.467 116.047 184.19 116.068 183.951 116.188C183.852 116.24 183.764 116.313 183.694 116.401C183.623 116.488 183.571 116.59 183.542 116.698C183.512 116.807 183.505 116.92 183.52 117.032C183.536 117.143 183.575 117.25 183.633 117.346C183.721 117.467 183.846 117.555 183.989 117.598C184.132 117.641 184.285 117.635 184.425 117.583C184.614 117.502 184.662 117.384 184.651 117.378C184.641 117.373 184.565 117.448 184.393 117.492C184.279 117.519 184.158 117.512 184.049 117.469C183.939 117.427 183.845 117.352 183.779 117.255C183.739 117.18 183.715 117.098 183.708 117.013C183.701 116.929 183.71 116.844 183.735 116.764C183.761 116.683 183.802 116.608 183.857 116.544C183.911 116.479 183.978 116.426 184.053 116.387C184.24 116.301 184.452 116.289 184.646 116.355C184.856 116.43 185.03 116.579 185.136 116.775C185.23 116.954 185.279 117.152 185.28 117.353C185.281 117.555 185.234 117.754 185.143 117.933C185.052 118.113 184.919 118.268 184.756 118.386C184.593 118.505 184.403 118.582 184.204 118.612C183.856 118.647 183.504 118.582 183.191 118.424Z" fill="#EB996E"/>
<path d="M198.915 102.099L190.833 115.972L181.512 108.257C181.512 108.257 187.978 97.6859 191.022 94.4102L198.915 102.099Z" fill="#006FFF"/>
<path d="M175.734 128.585C176.482 128.854 177.137 129.333 177.62 129.965C178.104 130.596 178.395 131.354 178.46 132.146C177.973 130.689 177.014 129.435 175.734 128.585Z" fill="#455A64"/>
<path d="M185.385 79.6373C185.443 79.747 185.526 79.8416 185.627 79.9136C185.728 79.9856 185.844 80.033 185.967 80.0522C186.21 80.1007 186.457 80.0953 186.705 80.1438C187.09 80.2167 187.439 80.4203 187.691 80.7202C187.791 80.857 187.905 80.9834 188.031 81.0974C188.095 81.1525 188.175 81.1867 188.26 81.1953C188.345 81.204 188.43 81.1868 188.505 81.1459C188.72 80.9842 188.623 80.6502 188.505 80.4078C187.998 79.4056 187.495 78.4035 186.996 77.4014L184.141 78.021L185.369 79.4487" fill="#263238"/>
<path d="M176.06 76.2266C176.389 75.8332 176.879 75.51 177.267 75.8494C177.626 76.2254 177.859 76.7036 177.935 77.2179C178.015 77.7293 178.187 78.2221 178.441 78.6726C178.626 78.9419 178.88 79.1561 179.177 79.2924C179.473 79.4287 179.801 79.482 180.126 79.4466C180.45 79.4112 180.759 79.2885 181.02 79.0915C181.28 78.8945 181.482 78.6305 181.604 78.3278C181.958 78.9388 182.414 79.4853 182.951 79.9441C183.222 80.1679 183.546 80.3202 183.891 80.387C184.236 80.4538 184.593 80.4331 184.928 80.3267C185.09 80.265 185.238 80.1713 185.363 80.0513C185.489 79.9313 185.588 79.7873 185.657 79.628C185.725 79.4686 185.761 79.2972 185.761 79.1238C185.762 78.9504 185.728 78.7787 185.661 78.6187C186.027 78.9228 186.484 79.0971 186.96 79.1144C187.195 79.1212 187.428 79.059 187.629 78.9356C187.83 78.8121 187.99 78.6327 188.091 78.4194C188.133 78.31 188.153 78.1931 188.148 78.0758C188.144 77.9586 188.116 77.8435 188.065 77.7376C188.015 77.6317 187.943 77.5371 187.855 77.4598C187.767 77.3825 187.664 77.324 187.552 77.2879C187.815 77.4611 188.124 77.5502 188.439 77.5435C188.754 77.5367 189.059 77.4345 189.314 77.2502C189.561 77.0548 189.731 76.778 189.793 76.4693C189.855 76.1605 189.806 75.8397 189.653 75.5639C189.483 75.3057 189.217 75.1255 188.914 75.0629C188.611 75.0003 188.296 75.0603 188.037 75.2298C188.408 75.0456 188.723 74.7645 188.948 74.4163C189.053 74.2388 189.086 74.0274 189.038 73.8264C188.991 73.6254 188.868 73.4506 188.694 73.3387C188.247 73.134 187.768 73.5488 187.277 73.6404C186.48 73.7859 185.828 73.0693 185.187 72.5629C184.589 72.1394 183.909 71.8463 183.191 71.7024C182.472 71.5586 181.732 71.5672 181.017 71.7278C179.585 72.0635 178.265 72.7652 177.186 73.7643C176.464 74.3947 175.769 75.3106 176.06 76.2212" fill="#263238"/>
<path d="M177.773 82.0347C177.773 82.2664 177.552 82.4657 177.283 82.5735C177.169 82.6346 177.04 82.6621 176.912 82.6525C176.783 82.643 176.659 82.5969 176.556 82.5196C176.399 82.3526 176.556 81.9808 176.976 81.7923C177.396 81.6037 177.773 81.803 177.773 82.0347Z" fill="#263238"/>
<path d="M182.018 79.9873C181.969 80.219 181.684 80.3644 181.398 80.4991C181.113 80.6338 180.805 80.7416 180.601 80.6177C180.55 80.5683 180.517 80.5033 180.507 80.433C180.497 80.3627 180.511 80.2911 180.547 80.2297C180.647 80.0062 180.828 79.829 181.053 79.7341C181.275 79.6266 181.53 79.6092 181.764 79.6856C181.942 79.7556 182.028 79.8742 182.018 79.9873Z" fill="#263238"/>
<path d="M183.25 84.9545C183.32 84.9276 183.503 85.4933 183.25 86.086C182.997 86.6786 182.458 86.9372 182.431 86.8672C182.404 86.7972 182.765 86.5008 182.97 85.9728C183.174 85.4448 183.158 84.9653 183.25 84.9545Z" fill="#263238"/>
<path d="M189.468 76.345C189.468 76.345 189.43 76.3773 189.344 76.4204C189.214 76.4747 189.075 76.504 188.935 76.5066C188.667 76.5152 188.403 76.4479 188.172 76.3125C187.942 76.1771 187.754 75.9791 187.631 75.7415L187.776 75.7739C187.29 76.2187 186.657 76.4698 185.998 76.4797C185.595 76.495 185.194 76.4224 184.822 76.2671C184.45 76.1117 184.116 75.8772 183.843 75.5799L184.08 75.4829C184.081 75.666 184.034 75.8463 183.946 76.0065C183.857 76.1668 183.729 76.3018 183.574 76.3989C183.267 76.6056 182.896 76.6955 182.529 76.6521C181.953 76.5295 181.436 76.214 181.063 75.7577C180.691 75.3536 180.395 74.9334 180.05 74.6047C179.747 74.2792 179.353 74.0521 178.919 73.9528C178.538 73.8907 178.147 73.9393 177.793 74.0929C177.266 74.3285 176.794 74.6717 176.408 75.1004C176.266 75.2638 176.111 75.4152 175.945 75.553C176.051 75.3589 176.179 75.1781 176.327 75.0142C176.698 74.5418 177.171 74.1603 177.712 73.8989C178.102 73.718 178.536 73.6526 178.962 73.7104C179.445 73.8074 179.887 74.0499 180.228 74.4054C180.6 74.7556 180.907 75.1758 181.263 75.5584C181.594 75.9627 182.051 76.2452 182.561 76.3611C183.154 76.4473 183.838 76.0271 183.811 75.4829V75.0896L184.07 75.3913C184.319 75.6625 184.624 75.8776 184.963 76.0225C185.302 76.1673 185.668 76.2387 186.036 76.2318C186.641 76.2322 187.227 76.0184 187.69 75.6284L187.787 75.5422L187.836 75.6553C187.939 75.8717 188.1 76.0557 188.3 76.1876C188.5 76.3196 188.733 76.3945 188.972 76.4042C189.139 76.3989 189.305 76.379 189.468 76.345Z" fill="#455A64"/>
<path d="M200.267 99.9543C200.24 99.9543 200.267 99.631 200.143 99.0707C200 98.2734 199.701 97.512 199.265 96.8294C198.63 95.8153 197.699 95.02 196.598 94.5504C195.244 93.9907 193.733 93.9372 192.342 94.3995C191.634 94.6466 190.973 95.0109 190.386 95.4771C189.833 95.9167 189.327 96.4133 188.878 96.9587C188.124 97.9008 187.439 98.8966 186.83 99.9381C186.291 100.816 185.85 101.554 185.521 102.012C185.365 102.255 185.23 102.433 185.138 102.551C185.047 102.67 184.998 102.734 184.988 102.729C185.116 102.458 185.263 102.197 185.429 101.948C185.742 101.409 186.157 100.692 186.658 99.8304C187.25 98.7643 187.926 97.7465 188.678 96.7863C189.599 95.5754 190.837 94.643 192.256 94.0924C193.709 93.606 195.291 93.6693 196.701 94.2702C197.647 94.692 198.469 95.3483 199.091 96.1771C199.712 97.0059 200.112 97.9796 200.251 99.006C200.282 99.2291 200.294 99.4544 200.289 99.6795C200.299 99.7716 200.292 99.8649 200.267 99.9543Z" fill="#263238"/>
<path d="M197.888 105.03C197.885 104.945 197.864 104.862 197.827 104.786C197.79 104.71 197.737 104.643 197.673 104.588C197.518 104.468 197.33 104.396 197.134 104.383C196.848 104.377 196.564 104.326 196.294 104.232C195.963 104.046 195.678 103.788 195.459 103.478C195.24 103.168 195.092 102.812 195.027 102.438C194.914 102.04 194.828 101.625 194.677 101.221C194.548 100.806 194.294 100.441 193.95 100.175C193.586 99.9337 193.167 99.7873 192.732 99.7499C192.313 99.7204 191.891 99.7204 191.472 99.7499C190.737 99.8312 189.994 99.7198 189.316 99.4266C189.088 99.3135 188.886 99.154 188.722 98.9582C188.559 98.7625 188.438 98.5348 188.368 98.2898C188.332 98.1565 188.322 98.0172 188.341 97.8803C188.345 97.8333 188.357 97.7875 188.379 97.7456C188.397 97.9272 188.427 98.1072 188.471 98.2844C188.644 98.7229 188.98 99.0779 189.408 99.2757C190.071 99.5244 190.785 99.6059 191.488 99.5128C192.28 99.4805 193.282 99.405 194.138 99.9923C194.528 100.289 194.814 100.699 194.957 101.167C195.114 101.598 195.194 102.024 195.297 102.417C195.347 102.757 195.469 103.082 195.655 103.371C195.841 103.66 196.086 103.906 196.374 104.092C196.627 104.19 196.891 104.252 197.161 104.276C197.384 104.3 197.593 104.399 197.754 104.556C197.808 104.603 197.852 104.661 197.883 104.726C197.915 104.791 197.933 104.861 197.937 104.933C197.921 104.987 197.894 105.03 197.888 105.03Z" fill="#FAFAFA"/>
<path d="M194.674 109.636C194.641 109.636 194.631 109.458 194.442 109.205C194.163 108.872 193.786 108.634 193.365 108.526C192.826 108.348 192.136 108.37 191.377 108.122C190.967 107.995 190.608 107.74 190.353 107.395C190.1 107.034 189.96 106.613 189.728 106.274C189.254 105.584 188.402 105.353 187.68 105.196C186.999 105.085 186.347 104.838 185.762 104.469C185.374 104.19 185.101 103.778 184.997 103.311C184.954 103.14 184.969 102.96 185.04 102.799C185.067 102.799 185.04 102.982 185.105 103.284C185.231 103.697 185.496 104.055 185.854 104.297C186.428 104.624 187.059 104.841 187.713 104.938C188.114 105.016 188.505 105.135 188.882 105.293C189.304 105.467 189.669 105.756 189.933 106.128C190.191 106.516 190.326 106.931 190.552 107.244C190.77 107.548 191.08 107.775 191.436 107.89C192.131 108.133 192.837 108.138 193.402 108.348C193.859 108.48 194.257 108.766 194.528 109.156C194.597 109.267 194.643 109.389 194.663 109.517C194.679 109.593 194.685 109.636 194.674 109.636Z" fill="#FAFAFA"/>
<path d="M209.56 102.335C209.574 102.41 209.574 102.487 209.56 102.562C209.511 102.774 209.432 102.977 209.323 103.165C208.886 103.838 208.255 104.362 207.513 104.668C207.06 104.878 206.548 105.067 206.02 105.299C205.458 105.527 204.944 105.86 204.506 106.279C203.59 107.184 203.143 108.585 202.497 109.959C202.201 110.652 201.777 111.283 201.247 111.818C201.117 111.948 200.975 112.063 200.821 112.163C200.678 112.273 200.525 112.369 200.363 112.448C200.05 112.597 199.721 112.709 199.383 112.782C198.073 113.063 196.883 112.992 195.951 113.289C195.201 113.469 194.552 113.937 194.146 114.593C194.013 114.843 193.921 115.112 193.871 115.39C193.871 115.39 193.871 115.309 193.871 115.164C193.893 114.948 193.955 114.738 194.054 114.544C194.248 114.191 194.511 113.88 194.827 113.631C195.144 113.382 195.508 113.2 195.897 113.095C196.866 112.766 198.079 112.815 199.329 112.529C199.647 112.458 199.957 112.349 200.25 112.206C200.399 112.132 200.539 112.044 200.67 111.942C200.813 111.849 200.945 111.741 201.064 111.619C201.566 111.103 201.968 110.498 202.249 109.835C202.885 108.494 203.326 107.055 204.329 106.096C204.795 105.657 205.345 105.314 205.945 105.089C206.484 104.857 206.995 104.685 207.443 104.485C208.164 104.207 208.79 103.729 209.248 103.106C209.384 102.863 209.489 102.605 209.56 102.335Z" fill="#FAFAFA"/>
<path d="M214.976 109C214.936 109.306 214.817 109.595 214.631 109.841C214.131 110.515 213.448 111.033 212.665 111.333C211.706 111.775 210.456 111.975 209.27 112.616C208.652 112.941 208.141 113.439 207.799 114.049C207.459 114.732 207.157 115.433 206.894 116.15C206.293 117.559 205.252 118.735 203.926 119.501C202.848 120.124 201.62 120.439 200.375 120.412C199.545 120.397 198.725 120.229 197.956 119.916C197.747 119.831 197.544 119.734 197.347 119.625C197.212 119.544 197.148 119.501 197.153 119.49C197.159 119.48 197.449 119.62 197.994 119.814C198.761 120.08 199.568 120.215 200.38 120.212C201.582 120.211 202.761 119.889 203.796 119.28C205.062 118.532 206.057 117.399 206.636 116.048C206.901 115.311 207.21 114.592 207.562 113.893C207.934 113.245 208.484 112.717 209.146 112.373C210.396 111.716 211.646 111.544 212.589 111.134C213.35 110.858 214.025 110.386 214.545 109.766C214.714 109.526 214.858 109.269 214.976 109Z" fill="#FAFAFA"/>
<path d="M219.86 114.27C219.089 114.615 218.364 115.056 217.705 115.584C217.004 116.175 216.424 116.896 215.997 117.707C215.749 118.154 215.576 118.671 215.35 119.205C215.14 119.785 214.765 120.292 214.273 120.665C213.748 120.981 213.155 121.166 212.543 121.204C211.967 121.268 211.422 121.284 210.927 121.371C210.021 121.514 209.143 121.792 208.319 122.195C207.56 122.586 206.839 123.046 206.164 123.569C206.303 123.383 206.466 123.216 206.649 123.073C207.13 122.657 207.656 122.296 208.217 121.996C209.051 121.557 209.949 121.254 210.878 121.096C211.417 120.999 211.956 120.977 212.495 120.907C213.066 120.871 213.62 120.699 214.111 120.406C214.56 120.064 214.902 119.6 215.097 119.07C215.318 118.531 215.506 118.025 215.765 117.556C216.218 116.724 216.833 115.991 217.575 115.401C218.066 115.005 218.61 114.681 219.192 114.437C219.402 114.356 219.563 114.302 219.677 114.27C219.79 114.237 219.854 114.259 219.86 114.27Z" fill="#FAFAFA"/>
<path d="M198.246 104.297C198.706 104.128 199.124 103.864 199.474 103.521C199.841 103.138 200.133 102.691 200.336 102.201C200.58 101.591 200.773 100.962 200.913 100.321C201.062 99.6634 201.277 99.0227 201.554 98.4082C201.795 97.9017 202.14 97.4519 202.567 97.0882C202.852 96.8352 203.191 96.6509 203.558 96.5494C203.69 96.5066 203.831 96.4955 203.968 96.517C203.499 96.6584 203.066 96.8971 202.696 97.2175C202.314 97.5852 202.005 98.0222 201.786 98.5051C201.529 99.1085 201.329 99.7343 201.188 100.375C201.039 101.031 200.833 101.672 200.573 102.293C200.346 102.804 200.02 103.265 199.614 103.65C199.339 103.911 199.01 104.107 198.65 104.227C198.524 104.287 198.384 104.311 198.246 104.297Z" fill="#FAFAFA"/>
<path d="M196.688 94.5989C196.797 94.0256 197.064 93.494 197.458 93.0632C197.852 92.6323 198.357 92.3191 198.918 92.1582C198.951 92.2336 198.272 92.5731 197.663 93.2358C197.054 93.8985 196.763 94.6474 196.688 94.5989Z" fill="#FAFAFA"/>
<path d="M192.908 89.0815C192.666 89.5287 192.383 89.9525 192.063 90.3477C191.748 90.8031 191.41 91.2419 191.05 91.6623C190.82 91.918 190.542 92.1251 190.231 92.2711C189.888 92.4048 189.521 92.4654 189.153 92.4489C188.811 92.4243 188.467 92.4243 188.124 92.4489C187.82 92.4933 187.526 92.5919 187.257 92.7398C186.795 92.9977 186.431 93.4012 186.222 93.8874C186.044 94.3505 185.968 94.8469 186.001 95.3421C185.933 95.2184 185.896 95.0796 185.894 94.9381C185.851 94.5565 185.901 94.1703 186.039 93.812C186.237 93.2689 186.618 92.8118 187.117 92.5189C187.411 92.3432 187.737 92.2278 188.076 92.1795C188.434 92.1431 188.794 92.1341 189.153 92.1526C189.472 92.1814 189.792 92.1344 190.089 92.0155C190.386 91.8966 190.651 91.7091 190.861 91.4683C191.276 91.0319 191.605 90.5686 191.906 90.2076C192.204 89.8014 192.54 89.4243 192.908 89.0815Z" fill="#FAFAFA"/>
<g opacity="0.2">
<path d="M200.062 101.695L195.972 118.262L192.395 113.279L200.062 101.695Z" fill="black"/>
</g>
<path d="M217.796 156.235C217.721 156.235 217.656 153.482 217.656 150.088C217.656 146.694 217.721 143.935 217.796 143.935C217.871 143.935 217.936 146.688 217.936 150.088C217.936 153.488 217.877 156.235 217.796 156.235Z" fill="#455A64"/>
</g>
<defs>
<clipPath id="clip0_39040_14827">
<rect width="245" height="160" fill="white"/>
</clipPath>
</defs>
</svg>
