<svg width="59" height="55" viewBox="0 0 59 55" fill="none" xmlns="http://www.w3.org/2000/svg">
<path d="M9.74164 0.346287C8.27679 0.674412 7.03461 1.65879 6.3432 3.07676C6.03851 3.68613 6.01508 3.85019 6.01508 5.09238C6.01508 6.33456 6.03851 6.49863 6.3432 7.108C6.81195 8.06894 7.70258 8.99472 8.55804 9.4166C8.95648 9.61582 9.3432 9.77988 9.43695 9.77988C9.51898 9.77988 9.58929 9.82675 9.58929 9.89707C9.58929 9.95566 9.47211 10.0143 9.31976 10.0143C8.87445 10.0143 7.85492 10.5885 7.43304 11.0924C6.65961 11.9947 6.65961 11.9361 6.5307 19.4947L6.41351 26.3385L3.51898 30.5572C1.92523 32.8775 0.495545 35.0221 0.35492 35.3033C-0.254455 36.4518 -0.0669549 37.8932 0.82367 38.901C2.11273 40.3541 4.30414 40.401 5.61664 39.0064C6.17914 38.4088 12.6127 28.9869 12.7651 28.5299C12.894 28.19 12.894 28.19 13.2338 28.3541C13.5737 28.5299 13.5737 28.5416 13.5737 29.6197C13.5854 30.2057 13.6323 31.858 13.6791 33.2877C13.7612 35.4674 13.808 35.9478 14.0073 36.3932C14.5698 37.6705 15.6479 38.3736 17.019 38.3736C18.6713 38.3619 19.8784 37.401 20.2416 35.8072C20.3823 35.1627 20.0776 25.9518 19.8901 25.3775C19.6791 24.733 19.2104 24.0885 18.683 23.7369C18.4135 23.5611 17.101 22.8932 15.7416 22.2721C14.394 21.6393 13.2338 21.0885 13.187 21.0416C13.1401 20.9947 13.1166 20.2916 13.1284 19.483L13.1635 18.0182L14.394 18.4752C15.4955 18.8971 15.7182 18.9322 16.4448 18.8971C17.1948 18.8502 17.4995 18.733 20.1713 17.5025C21.7768 16.776 23.2651 16.0143 23.4877 15.8385C24.1791 15.2643 24.5073 14.5611 24.5659 13.5299C24.6127 12.8033 24.5776 12.5338 24.3784 12.1002C23.8159 10.8346 22.6791 10.0846 21.308 10.0963C20.6049 10.0963 20.3823 10.1783 18.3432 11.1041L16.1401 12.1119L13.5151 11.0924C12.0737 10.5416 10.9018 10.0611 10.9252 10.0494C10.937 10.026 11.2416 9.96738 11.5932 9.89707C14.2299 9.39316 16.0463 6.85019 15.5776 4.31894C15.4252 3.48691 14.933 2.42051 14.476 1.90488C13.269 0.580662 11.4291 -0.0287132 9.74164 0.346287ZM12.226 2.49082C14.312 3.62754 14.2885 6.58066 12.1674 7.7291C10.5971 8.57285 8.69867 7.88144 7.99554 6.20566C7.78461 5.69003 7.78461 4.49472 8.00726 3.96738C8.71039 2.2916 10.6088 1.62363 12.226 2.49082ZM13.2924 13.0143L16.1401 14.1158L16.7026 13.8932C17.0073 13.7643 18.062 13.3072 19.0229 12.8619C21.1205 11.8893 21.308 11.8307 21.812 12.0533C22.7377 12.4283 23.0307 13.5416 22.3979 14.233C21.9643 14.69 16.8315 17.0455 16.2455 17.0455C16.0346 17.0455 15.1088 16.7525 14.1948 16.401C12.519 15.7564 12.0971 15.6627 11.6987 15.8736C11.3002 16.0846 11.2299 16.6471 11.2299 19.3893C11.2299 21.815 11.2534 22.0611 11.4409 22.2369C11.558 22.3541 12.976 23.0455 14.5815 23.7955C17.476 25.1432 17.8276 25.3424 18.0385 25.7525C18.1088 25.8697 18.226 28.0494 18.308 30.6158C18.4838 35.69 18.4721 35.7486 17.851 36.2408C17.6284 36.4166 17.3588 36.4986 17.0073 36.4986C16.5737 36.4986 16.4096 36.4283 16.0932 36.1119C15.6127 35.6314 15.5893 35.4791 15.5073 31.2838C15.4604 29.4791 15.3784 27.8268 15.308 27.6041C15.2026 27.2525 15.062 27.1471 13.8784 26.5963C12.2377 25.8228 12.1088 25.7877 11.7104 25.9518C11.2885 26.1158 11.1127 26.5143 11.1127 27.2291C11.1127 27.7799 11.0073 27.9439 7.71429 32.7603C5.73383 35.6666 4.18695 37.8111 3.99945 37.9283C3.31976 38.3619 2.38226 38.1041 2.04242 37.3893C1.80805 36.8853 1.80805 36.5807 2.0307 36.1353C2.13617 35.9478 3.48383 33.9439 5.0307 31.6939C6.56586 29.4439 7.93695 27.4283 8.06586 27.2174C8.27679 26.8541 8.30023 26.4322 8.4057 19.8111C8.51117 13.2135 8.53461 12.7682 8.74554 12.4869C9.05023 12.0533 9.69476 11.7486 10.1049 11.8424C10.2807 11.8775 11.7221 12.4049 13.2924 13.0143Z" fill="#3498DB"/>
<path d="M38.2182 0.54549C38.0776 0.697834 37.808 1.24862 37.5971 1.77596L37.2338 2.7369L36.6244 2.93612C36.2846 3.04158 35.6518 3.2994 35.2065 3.52205L34.4096 3.90877L33.308 3.44002C32.2768 2.99471 32.1948 2.98299 31.8315 3.13533C31.6205 3.22908 30.8002 3.96737 30.0151 4.77596C28.9369 5.8658 28.5737 6.32284 28.5737 6.54549C28.5737 6.69784 28.7612 7.2369 28.9838 7.7408C29.2065 8.23299 29.394 8.71346 29.394 8.80721C29.394 8.88924 29.2768 9.19393 29.1362 9.46346C29.0073 9.73299 28.7494 10.3424 28.5737 10.8228L28.2573 11.7017L27.308 12.065C25.7963 12.6392 25.8784 12.4752 25.8784 15.1705C25.8784 17.8658 25.7846 17.6666 27.2846 18.2525L28.2455 18.6275L28.5737 19.5064C28.7494 19.9869 29.0073 20.608 29.1362 20.8775C29.2768 21.1471 29.394 21.4283 29.394 21.4986C29.394 21.5689 29.2065 22.0728 28.9721 22.6119C28.644 23.3502 28.5619 23.6666 28.6205 23.9244C28.7377 24.3346 31.3041 26.9713 31.8315 27.2056C32.1948 27.358 32.2768 27.3463 33.308 26.8892L34.3979 26.4088L35.2065 26.8072C35.6518 27.0299 36.2846 27.2994 36.6244 27.4049L37.2338 27.6041L37.5971 28.565C38.1713 30.0767 38.1244 30.0533 40.7494 30.0533C43.351 30.0533 43.2455 30.1002 43.808 28.6002L44.183 27.6158L45.0737 27.2994C45.5776 27.1236 46.2221 26.8541 46.5268 26.7017L47.0776 26.4205L47.8744 26.7838C49.0112 27.2994 49.2221 27.358 49.6205 27.1822C49.808 27.1002 50.6049 26.3736 51.4018 25.5767C52.5268 24.4283 52.8315 24.0416 52.8315 23.7955C52.8315 23.6197 52.644 23.0221 52.3979 22.4713L51.976 21.4752L52.351 20.7017C52.5502 20.2681 52.808 19.6353 52.9252 19.2838L53.1362 18.651L54.0151 18.3228C55.1987 17.8658 55.3627 17.7721 55.5151 17.4322C55.5971 17.2681 55.644 16.3775 55.644 15.1705C55.644 13.9635 55.5971 13.0728 55.5151 12.9088C55.3627 12.5689 55.1987 12.4752 54.0034 12.0181C53.1596 11.7017 53.1245 11.6666 52.9838 11.1744C52.9018 10.9049 52.644 10.2603 52.3979 9.75643L51.976 8.84237L52.3979 7.84627C52.644 7.30721 52.8315 6.72127 52.8315 6.54549C52.8315 6.28768 52.5151 5.91268 51.3549 4.72908C50.5346 3.90877 49.726 3.17049 49.5385 3.10018C49.2573 2.97127 49.0815 3.01815 48.1323 3.44002L47.0659 3.90877L46.5151 3.63924C46.2221 3.4869 45.5776 3.21737 45.0737 3.04158L44.183 2.72518L43.808 1.7408C43.2455 0.229084 43.351 0.287678 40.7026 0.287678C38.5229 0.287678 38.4526 0.299397 38.2182 0.54549ZM42.3432 3.12362C42.5307 3.62752 42.7768 4.10799 42.8705 4.20174C42.9643 4.28377 43.433 4.47127 43.9018 4.6119C44.3705 4.75252 45.2143 5.10408 45.7651 5.38533C46.3276 5.6783 46.8784 5.91268 46.9838 5.91268C47.101 5.91268 47.6049 5.72518 48.0971 5.50252L49.0112 5.08065L49.8666 5.93612C50.3354 6.40487 50.7221 6.85018 50.7221 6.92049C50.7221 6.9908 50.5698 7.40096 50.3705 7.82284C50.183 8.25643 50.019 8.72518 50.019 8.88924C50.019 9.04159 50.2299 9.58065 50.4877 10.0963C50.7455 10.6002 51.0971 11.4439 51.2612 11.9713C51.5893 13.0611 51.6596 13.1314 52.9018 13.6002L53.769 13.94V15.1471V16.3541L53.101 16.6353C51.5893 17.2799 51.6362 17.233 51.2495 18.4049C51.0502 18.9908 50.6987 19.8463 50.4526 20.3033C50.2182 20.7603 50.019 21.276 50.019 21.44C50.019 21.6041 50.183 22.0846 50.3705 22.5181C50.5698 22.94 50.7221 23.3502 50.7221 23.4205C50.7221 23.4908 50.3354 23.9361 49.8666 24.4049L49.0112 25.2603L48.1205 24.8385C47.6284 24.6158 47.1244 24.4283 47.0073 24.4283C46.8784 24.4283 46.3276 24.6627 45.7768 24.9439C45.226 25.2369 44.3823 25.5767 43.9018 25.7174C43.433 25.858 42.9643 26.0455 42.8705 26.1392C42.7768 26.233 42.5307 26.7135 42.3432 27.2174L41.9799 28.1197H40.7143H39.4369L39.1088 27.2525C38.933 26.7838 38.6987 26.2916 38.5932 26.1861C38.4877 26.0689 37.9604 25.8346 37.4096 25.6705C36.8588 25.4947 36.0268 25.1431 35.5346 24.8971C35.0541 24.6392 34.5619 24.4283 34.4448 24.4283C34.3276 24.4283 33.8119 24.6158 33.308 24.8502L32.394 25.2603L31.5151 24.3814L30.6362 23.5025L31.0229 22.6119C31.2455 22.1314 31.4213 21.6041 31.4213 21.44C31.4213 21.2877 31.1987 20.7486 30.9409 20.2447C30.683 19.7408 30.3549 18.9322 30.2143 18.4517C30.0737 17.9713 29.8393 17.4556 29.6987 17.3267C29.5698 17.1861 29.0659 16.9283 28.6088 16.7525L27.7534 16.4361V15.1705V13.9049L28.6088 13.5885C29.0659 13.4127 29.5698 13.1549 29.6987 13.0142C29.8393 12.8853 30.0737 12.3697 30.2143 11.8892C30.3549 11.4088 30.7065 10.5533 30.9877 10.0025C31.269 9.45174 31.5034 8.95955 31.5034 8.91268C31.5034 8.8658 31.3041 8.38534 31.0698 7.83455L30.6362 6.83846L31.5151 5.95955L32.394 5.09237L33.3432 5.50252C33.8588 5.72518 34.3627 5.91268 34.4565 5.91268C34.5502 5.91268 35.1479 5.65487 35.7924 5.33846C36.4252 5.02205 37.269 4.68221 37.6557 4.56502C38.5229 4.31893 38.6987 4.16658 38.9916 3.40487C39.1205 3.07674 39.2729 2.65487 39.3432 2.47908L39.4721 2.15096L40.726 2.18612L41.9799 2.22127L42.3432 3.12362Z" fill="#3498DB"/>
<path d="M39.4136 6.14707C35.8745 6.6627 32.8394 9.35801 31.8902 12.8268C31.6089 13.8932 31.6089 16.4596 31.9019 17.5143C32.7573 20.6315 35.2769 23.1393 38.3823 23.983C39.7066 24.3346 41.7691 24.3346 43.0347 23.9713C47.1011 22.8346 49.7847 19.3307 49.7847 15.1705C49.7847 9.60411 44.8863 5.33848 39.4136 6.14707ZM42.9292 8.30332C45.2261 9.02989 47.1948 11.1393 47.7339 13.4244C47.9566 14.3854 47.9566 15.9557 47.7339 16.9166C47.3589 18.5104 46.105 20.2565 44.6519 21.2174C44.2886 21.4635 43.5386 21.815 42.9878 22.0143C42.1323 22.3072 41.8159 22.3658 40.7613 22.3658C39.3433 22.3658 38.5816 22.1783 37.3042 21.5221C36.273 20.983 34.9722 19.7174 34.398 18.6744C32.8863 15.9674 33.3081 12.5572 35.4409 10.2604C37.3628 8.17442 40.2105 7.43614 42.9292 8.30332Z" fill="#3498DB"/>
<path d="M39.6361 12.194C37.9134 12.8268 37.0814 14.9127 37.9017 16.5533C38.6517 18.0533 40.2806 18.6862 41.8627 18.1002C42.5775 17.8307 43.3275 17.1041 43.6439 16.3776C43.9017 15.8033 43.9017 14.5494 43.6673 13.9869C43.4095 13.3893 42.683 12.6276 42.1205 12.3346C41.4994 12.0182 40.2923 11.9479 39.6361 12.194ZM41.3236 14.0455C41.7103 14.2447 41.9681 14.6901 41.9681 15.1705C41.9681 15.9088 41.4056 16.4596 40.6322 16.4596C40.3744 16.4596 40.1517 16.3424 39.8705 16.0612C39.5423 15.733 39.472 15.569 39.472 15.1705C39.472 14.7721 39.5423 14.608 39.8705 14.2799C40.3158 13.8346 40.7728 13.7643 41.3236 14.0455Z" fill="#3498DB"/>
<path d="M53.7104 26.1393C48.7417 28.2369 48.6597 28.2838 48.5073 28.6002C48.4136 28.8112 48.3784 32.4205 48.3784 41.5963V54.2994L48.6597 54.6276L48.9409 54.9557H53.2417H57.5425L57.8237 54.6276L58.105 54.2994V39.8268V25.3541L57.812 25.0729C57.6362 24.8854 57.4019 24.7799 57.2026 24.7916C57.0269 24.7916 55.4565 25.401 53.7104 26.1393ZM56.23 40.1315V53.1393H53.2417H50.2534V41.3854V29.6432L53.2183 28.3893C54.8354 27.6979 56.1831 27.1354 56.2065 27.1354C56.2183 27.1237 56.23 32.9713 56.23 40.1315Z" fill="#3498DB"/>
<path d="M28.7495 31.5182C26.4995 32.526 24.5542 33.4517 24.4487 33.5807C24.2495 33.815 24.2378 34.483 24.2378 44.0689V54.2994L24.519 54.6275L24.8003 54.9557L28.8901 54.9908C31.1284 55.0142 33.0854 54.9908 33.2261 54.9557C33.3667 54.9205 33.6011 54.7799 33.73 54.6392C33.9644 54.3814 33.9644 54.276 33.9644 42.3346V30.276L33.6714 29.9947C33.519 29.8307 33.2729 29.7017 33.1206 29.7017C32.9683 29.7017 31.0112 30.5221 28.7495 31.5182ZM32.0894 42.651V53.1392H29.1011H26.1128L26.1362 43.9283L26.1714 34.7174L29.0425 33.44C30.6245 32.7369 31.9487 32.1627 32.0073 32.1627C32.0542 32.1627 32.0894 36.8853 32.0894 42.651Z" fill="#3498DB"/>
<path d="M36.9407 32.5143C36.2728 32.7838 36.3079 32.233 36.3079 43.7291V54.2994L36.5892 54.6276L36.8704 54.9557H41.1478H45.4251L45.7298 54.6744L46.0345 54.3932V43.694V33.0065L45.6712 32.7018L45.3079 32.3971L41.2532 32.4088C39.015 32.4088 37.0697 32.4557 36.9407 32.5143ZM44.1595 43.7057V53.1393H41.1712H38.1829V43.7057V34.2721H41.1712H44.1595V43.7057Z" fill="#3498DB"/>
<path d="M12.5073 39.1822L12.2261 39.4049L12.1909 46.8463L12.1675 54.2877L12.4487 54.6275L12.73 54.9557L16.8198 54.9908C19.0581 55.0142 21.0151 54.9908 21.1558 54.9557C21.2964 54.9205 21.5308 54.7799 21.6597 54.6392C21.894 54.3932 21.894 54.2525 21.894 46.9752C21.894 39.6627 21.894 39.5689 21.6479 39.2642L21.4136 38.9596H17.0894C13.0229 38.9596 12.7651 38.9713 12.5073 39.1822ZM20.019 46.9869V53.1392H17.0308H14.0425V46.9869V40.8346H17.0308H20.019V46.9869Z" fill="#3498DB"/>
<path d="M0.437012 44.5728L0.155762 44.7955L0.120605 49.5416L0.0854492 54.2877L0.378418 54.6275L0.659668 54.9557L4.74951 54.9908C6.98779 55.0142 8.94482 54.9908 9.08545 54.9557C9.22607 54.9205 9.46045 54.7799 9.58936 54.6392C9.81201 54.3932 9.82373 54.2408 9.82373 49.6236V44.8541L9.5542 44.608C9.28467 44.3502 9.23779 44.3502 4.99561 44.3502C0.952637 44.3502 0.694824 44.3619 0.437012 44.5728ZM7.94873 49.6822V53.1392H4.96045H1.97217V49.6822V46.2252H4.96045H7.94873V49.6822Z" fill="#3498DB"/>
</svg>
