<svg width="36" height="36" viewBox="0 0 36 36" fill="none" xmlns="http://www.w3.org/2000/svg">
<path d="M4.5794 0.0839462C3.20558 0.396511 1.96987 1.17428 1.17029 2.23554C0.712352 2.83159 0.501554 3.23865 0.239874 3.99461C0.0145378 4.63428 0.0072689 4.7215 0 5.76095C0 6.70591 0.0218067 6.92398 0.167185 7.39645C0.864999 9.59166 2.5005 11.0672 4.74659 11.5107C6.14222 11.7796 7.7123 11.467 8.94074 10.6602L9.4641 10.3186L10.8525 11.7142L12.2408 13.1025L11.9137 13.5387C11.2159 14.4618 10.6562 15.8284 10.4963 17.035C10.4236 17.5802 10.4381 18.6342 10.5181 19.2738C10.5399 19.3901 10.2419 19.4919 8.03213 20.0879C6.65104 20.4587 5.50982 20.764 5.48802 20.764C5.46621 20.764 5.3281 20.5895 5.18272 20.3787C4.87743 19.9426 4.42676 19.6155 3.82344 19.3829C3.22739 19.1575 2.27516 19.2084 1.67185 19.4992C1.11941 19.7608 0.559705 20.3206 0.283487 20.8803C0.0944956 21.28 0.072689 21.3818 0.072689 22.0796C0.072689 22.7556 0.0944956 22.8865 0.268949 23.2645C0.654201 24.0786 1.24298 24.5947 2.10071 24.8563C3.82344 25.3797 5.58978 24.1513 5.75697 22.3122L5.79331 21.8979L8.20658 21.251C9.52952 20.8948 10.6635 20.5895 10.7362 20.5677C10.8234 20.5459 10.9252 20.6913 11.1432 21.1565C11.5139 21.9561 11.9428 22.5739 12.5316 23.199C12.975 23.657 13.8182 24.3548 14.0144 24.4275C14.0726 24.4493 13.8763 24.9145 13.4838 25.7068C13.0186 26.6518 12.8441 26.9425 12.7569 26.9062C12.5243 26.8189 11.921 26.7317 11.5285 26.7317C10.1183 26.739 8.5991 27.6694 7.98125 28.9124C7.15259 30.5697 7.43608 32.4015 8.71541 33.6808C11.0124 35.9778 14.8867 34.8002 15.5627 31.6019C15.868 30.1554 15.3301 28.658 14.1525 27.6621L13.9127 27.4659L14.5087 26.281C14.8358 25.6268 15.112 25.0817 15.1266 25.0671C15.1484 25.0453 15.381 25.1035 15.6499 25.1907C17.9324 25.9249 20.4474 25.5251 22.3882 24.1295L22.897 23.766L24.2854 25.1471L25.681 26.5355L25.3321 27.0661C23.8202 29.3776 24.1763 32.4378 26.1826 34.3713C26.9676 35.1273 27.7381 35.5634 28.8212 35.8615C29.5408 36.0577 30.9437 36.0432 31.6778 35.8324C32.7755 35.5198 33.4951 35.0982 34.2947 34.3132C36.2354 32.4015 36.5625 29.3485 35.0724 27.0734C33.7931 25.1035 31.4234 24.0786 29.1701 24.5074C28.4141 24.6528 27.5491 25.0017 26.9967 25.387L26.5315 25.7141L25.1358 24.3184L23.7402 22.9228L23.9074 22.6975C24.7797 21.549 25.3612 20.1243 25.5138 18.7141L25.5574 18.2998H25.8627C26.0299 18.2998 27.3601 18.2489 28.8212 18.1908C30.275 18.1326 31.4671 18.0963 31.4743 18.1035C31.5179 18.3216 31.9105 18.8958 32.1794 19.1357C33.0299 19.899 34.3455 19.8844 35.2396 19.1066C35.385 18.9758 35.6103 18.656 35.7339 18.4016C36.1773 17.5002 36.0101 16.5044 35.305 15.8066C34.0839 14.6072 32.1285 15.0288 31.5107 16.628C31.4598 16.7661 31.4089 16.8896 31.4016 16.9042C31.3798 16.926 26.357 17.1295 25.7973 17.1368H25.492L25.4411 16.7951C25.2812 15.7339 24.6997 14.3746 24.031 13.4878C23.6893 13.0444 22.9624 12.3102 22.41 11.8668L22.1411 11.6488L22.6935 10.6529C23.2314 9.68616 23.2459 9.66435 23.4277 9.72977C23.5294 9.77338 23.8638 9.82427 24.1618 9.84607C26.139 9.99872 27.8762 8.35595 27.8762 6.34246C27.8689 4.74331 26.6914 3.2968 25.114 2.95516C24.5979 2.84613 23.7184 2.90428 23.2096 3.09327C21.5595 3.68205 20.571 5.52835 21.0071 7.2002C21.1598 7.80351 21.4432 8.31234 21.8576 8.74847L22.2137 9.12645L21.6977 10.0569C21.4142 10.573 21.1598 11.0164 21.1307 11.0454C21.1016 11.0672 20.7527 10.98 20.3529 10.8492C18.0269 10.0714 15.4464 10.4857 13.5056 11.9395L13.084 12.2593L11.6957 10.871L10.3 9.48263L10.6344 8.96654C11.7611 7.22927 11.8919 5.07768 10.9833 3.23138C10.2637 1.75579 9.02797 0.709072 7.41427 0.200249C6.76734 -0.00328064 5.24814 -0.0686989 4.5794 0.0839462ZM6.89818 1.29058C8.95528 1.81395 10.4236 3.68205 10.4309 5.78276C10.4309 6.69137 10.082 7.76717 9.52952 8.52313L9.26784 8.88658V8.59582C9.26784 8.16696 9.07885 7.51276 8.82444 7.02574C8.61364 6.62595 7.95944 5.92814 7.63234 5.73915C7.50877 5.67373 7.5015 5.63738 7.57419 5.52835C8.06847 4.816 8.21385 4.09638 8.00305 3.37676C7.83587 2.80978 7.37793 2.25735 6.83276 1.98113C6.45478 1.79214 6.33121 1.76306 5.78604 1.76306C5.05188 1.76306 4.62302 1.93025 4.14327 2.40999C3.67806 2.8752 3.49634 3.32587 3.49634 4.01642C3.48907 4.5107 3.51815 4.65608 3.68533 4.99772C3.79436 5.21579 3.9252 5.45566 3.97609 5.52835C4.05604 5.63738 4.04878 5.67373 3.9252 5.73915C3.5981 5.92814 2.9439 6.62595 2.7331 7.02574C2.47869 7.51276 2.2897 8.16696 2.2897 8.59582V8.88658L2.02802 8.52313C1.66458 8.02158 1.35928 7.34557 1.23571 6.73499C0.537898 3.4131 3.61264 0.447392 6.89818 1.29058ZM6.23671 2.9915C6.98541 3.30407 7.16713 4.2781 6.58562 4.85961C5.7715 5.681 4.43403 4.94684 4.64482 3.79835C4.77566 3.11508 5.57524 2.70802 6.23671 2.9915ZM25.3684 4.2781C25.8264 4.49617 26.2625 4.9323 26.4951 5.39751C26.7495 5.9136 26.7495 6.82948 26.4951 7.36011C26.2698 7.82532 25.8337 8.26145 25.3684 8.48679C24.8378 8.7412 23.9219 8.7412 23.4058 8.48679C22.9406 8.26145 22.5045 7.82532 22.2792 7.36011C22.0248 6.84402 22.0248 5.92814 22.2792 5.39751C22.5845 4.77238 23.1732 4.29264 23.842 4.11819C24.2345 4.01642 24.9759 4.09638 25.3684 4.2781ZM6.49112 6.49511C7.02902 6.66957 7.50877 7.06936 7.79226 7.57818C7.9231 7.81805 8.03213 8.03612 8.03213 8.06519C8.03213 8.10154 7.02175 8.12334 5.77877 8.12334C4.53579 8.12334 3.52541 8.10881 3.52541 8.087C3.52541 8.07246 3.56176 7.96343 3.61264 7.85439C4.10693 6.69864 5.33537 6.1244 6.49112 6.49511ZM8.50461 9.54805C7.30524 10.4203 5.79331 10.6529 4.35407 10.2022C3.81617 10.0278 2.95844 9.55532 2.84214 9.36633C2.80579 9.30817 3.63445 9.28637 5.82965 9.28637H8.86805L8.50461 9.54805ZM19.0809 11.7142C20.4183 11.9541 21.5232 12.5356 22.4972 13.5023C24.6561 15.6685 24.9977 18.9395 23.3259 21.5127C22.4754 22.8356 21.1089 23.7951 19.4734 24.2312C18.7247 24.4275 17.2055 24.4202 16.4277 24.2094C14.1017 23.577 12.4225 21.8979 11.7901 19.5719C11.5648 18.7432 11.5648 17.2749 11.7901 16.4462C12.488 13.8658 14.5233 12.0631 17.1909 11.6633C17.6125 11.5979 18.572 11.627 19.0809 11.7142ZM34.1493 16.3663C34.9052 16.6788 35.0797 17.6383 34.4909 18.2271C34.0112 18.7069 33.357 18.7141 32.8845 18.2344C31.9831 17.3403 32.979 15.872 34.1493 16.3663ZM3.40911 20.4223C3.8089 20.5386 4.41222 21.1419 4.52852 21.5417C4.73205 22.225 4.58667 22.7702 4.07058 23.279C3.33642 24.0204 2.406 24.0204 1.67185 23.279C0.930419 22.5448 0.930419 21.6144 1.67185 20.8803C2.18067 20.3642 2.72584 20.2261 3.40911 20.4223ZM31.3217 25.7141C32.1721 25.9321 32.8409 26.3174 33.4805 26.9498C35.1015 28.5635 35.2978 31.0931 33.953 32.9466L33.6913 33.3101V33.0193C33.6913 32.5904 33.5023 31.9362 33.2479 31.4492C33.0371 31.0494 32.3829 30.3516 32.0558 30.1626C31.9323 30.0972 31.925 30.0609 31.9977 29.9518C32.492 29.2395 32.6373 28.5199 32.4265 27.8002C32.2594 27.2333 31.8014 26.6808 31.2563 26.4046C30.8783 26.2156 30.7547 26.1866 30.2095 26.1866C29.4608 26.1866 29.061 26.3392 28.5886 26.8189C28.1088 27.2987 27.9198 27.7421 27.9198 28.4399C27.9126 28.9342 27.9416 29.0796 28.1088 29.4212C28.2179 29.6393 28.3487 29.8792 28.3996 29.9518C28.4795 30.0609 28.4723 30.0972 28.3487 30.1626C28.0216 30.3516 27.3674 31.0494 27.1566 31.4492C26.9022 31.9362 26.7132 32.5904 26.7132 33.0193V33.3101L26.4515 32.9466C25.8991 32.1761 25.6301 31.4202 25.572 30.4752C25.3903 27.3714 28.3196 24.9436 31.3217 25.7141ZM30.6602 27.415C31.4089 27.7276 31.5906 28.7016 31.0091 29.2831C30.5366 29.7556 29.8679 29.7556 29.3954 29.2831C28.4941 28.389 29.4899 26.9207 30.6602 27.415ZM12.786 28.171C13.4475 28.4763 13.8691 28.8979 14.1962 29.5521C14.4506 30.0754 14.4651 30.1408 14.4651 30.8023C14.4651 31.4638 14.4506 31.5292 14.1962 32.0526C13.8691 32.714 13.4475 33.1211 12.7715 33.4409C12.328 33.6517 12.219 33.6735 11.5939 33.6735C10.9688 33.6735 10.8597 33.6517 10.4163 33.4409C9.74032 33.1211 9.31872 32.714 8.99162 32.0526C8.73721 31.5292 8.72268 31.4638 8.72268 30.8096C8.72268 30.1772 8.74448 30.0681 8.95528 29.6247C9.24604 29.0069 9.66036 28.5562 10.2055 28.2727C10.7725 27.9674 11.0923 27.8947 11.7538 27.9238C12.1972 27.9456 12.4225 28.0038 12.786 28.171ZM30.9146 30.9186C31.4525 31.0931 31.9323 31.4928 32.2157 32.0017C32.3466 32.2415 32.4556 32.4596 32.4556 32.4887C32.4556 32.525 31.4452 32.5468 30.2023 32.5468C28.9666 32.5468 27.9489 32.5323 27.9489 32.5105C27.9489 32.496 27.9852 32.3869 28.0361 32.2779C28.5304 31.1221 29.7589 30.5479 30.9146 30.9186ZM32.9281 33.9715C32.1721 34.5167 31.0963 34.8729 30.195 34.8729C29.3009 34.8729 28.0216 34.4367 27.4401 33.9352L27.1857 33.7171L30.2386 33.7099H33.2915L32.9281 33.9715Z" fill="#3498DB"/>
<path d="M17.0603 12.9135C16.5515 13.1025 16.268 13.2843 15.9118 13.6622C15.5265 14.0693 15.3448 14.3819 15.1922 14.9198C14.8723 16.0246 15.3448 17.3621 16.2898 18.0163L16.6096 18.2344L16.1081 18.4888C14.9087 19.0848 14.0582 20.3714 13.9419 21.7525C13.9056 22.2541 13.9128 22.2904 14.0873 22.4721L14.2763 22.6611H17.9907H21.7051L21.8941 22.4721C22.0685 22.2904 22.0758 22.2541 22.0395 21.7525C21.9886 21.1783 21.7633 20.4732 21.458 19.9498C21.1454 19.4265 20.4476 18.7723 19.8806 18.4888L19.3718 18.2344L19.6916 18.0163C20.8692 17.2022 21.2399 15.4649 20.4985 14.1929C20.2368 13.7495 19.6553 13.2334 19.1683 13.008C18.6013 12.7464 17.6273 12.7027 17.0603 12.9135ZM18.5286 14.0257C19.1537 14.2147 19.7352 15.0143 19.7352 15.683C19.7352 16.5843 18.892 17.4275 17.9907 17.4275C17.0894 17.4275 16.2462 16.5843 16.2462 15.683C16.2462 15.2251 16.4133 14.8543 16.7913 14.4836C17.3002 13.9675 17.8453 13.8294 18.5286 14.0257ZM19.1828 19.4483C19.8225 19.7463 20.2586 20.1752 20.5712 20.793C20.7093 21.0692 20.8256 21.3455 20.8256 21.3963C20.8256 21.4836 20.3386 21.4981 17.9907 21.4981C15.6428 21.4981 15.1558 21.4836 15.1558 21.3963C15.1558 21.1637 15.6865 20.2624 15.9845 19.9862C16.3334 19.6591 16.8931 19.3538 17.3147 19.2448C17.8308 19.1139 18.6667 19.2084 19.1828 19.4483Z" fill="#3498DB"/>
</svg>
