<svg width="54" height="60" viewBox="0 0 54 60" fill="none" xmlns="http://www.w3.org/2000/svg">
<g id="Group">
<path id="Vector" d="M40.793 0.0714111C40.3828 0.235474 40.3594 0.55188 40.3008 6.70422L40.2422 12.7863L36.7266 14.6964C34.793 15.7511 33.1758 16.5831 33.1289 16.548C33.0703 16.5245 33.0352 16.4191 33.0352 16.3253C33.0352 15.9855 31.6406 13.3956 31.2539 13.0323C30.3398 12.1534 29.2031 12.0245 27.8438 12.6691C26.3555 13.3839 25.6523 14.4269 25.8047 15.7159C25.8984 16.4425 27.1875 18.9738 27.6914 19.4191L28.0547 19.7355L27.75 20.3683C27.293 21.2823 26.7773 23.0988 26.8711 23.4738C26.918 23.673 27.0938 23.8605 27.3398 23.9659C27.6797 24.13 27.7734 24.1417 28.0664 24.0011C28.3477 23.8605 28.4531 23.6847 28.6758 22.9581C29.1445 21.4581 29.3086 21.0597 29.625 20.7198C29.8008 20.5206 32.3672 19.0558 35.6133 17.298C41.8008 13.9347 41.5781 14.0167 41.1797 15.2355C40.8047 16.3488 40.1953 16.8292 35.5547 19.63C33.2344 21.0245 31.2656 22.255 31.1953 22.3488C31.1133 22.4542 31.043 22.7003 31.043 22.9113C31.043 23.3683 31.5352 23.8253 31.9453 23.7433C32.0977 23.7198 32.2148 23.755 32.2031 23.8253C32.2031 23.8956 31.875 24.9034 31.4766 26.0519L30.75 28.1613L28.8281 28.9581C27.7617 29.3917 26.8711 29.7316 26.8477 29.6964C26.8242 29.673 27 28.9347 27.2461 28.0675C27.6094 26.7316 27.6562 26.4269 27.5508 26.1808C27.293 25.6183 26.3906 25.5363 26.0625 26.0519C25.9805 26.1808 25.6055 27.3527 25.2422 28.6417C24.5156 31.1964 24.5273 31.0792 24.2578 36.4347L24.1523 38.6027L22.2539 42.587C21.1992 44.7784 20.2969 46.6417 20.2266 46.712C20.1445 46.8175 19.6289 46.8644 18.3984 46.8644C16.7812 46.8644 16.6406 46.8878 16.0664 47.1691C14.7891 47.8019 14.4023 48.6573 14.4023 50.8722V52.3722L14.0977 52.255C13.9219 52.1847 12.0234 52.1378 9.52734 52.1378C4.76953 52.1378 4.75781 52.1378 3.92578 52.9347C3.12891 53.6964 3.03516 54.0363 3.03516 56.2628V58.2316H1.80469C0.644531 58.2316 0.550781 58.255 0.28125 58.5245C-0.09375 58.8878 -0.09375 59.3331 0.28125 59.6964L0.5625 59.9894H26.8008H53.0391L53.2852 59.7198C53.625 59.3566 53.625 58.8175 53.2734 58.4894C53.0273 58.255 52.875 58.2316 51.6914 58.2316H50.3789V46.5363V34.8409L50.0742 34.2316C49.9102 33.8917 49.582 33.4698 49.3477 33.2706C48.5742 32.6261 48.1758 32.5675 44.9648 32.5675H42.0586V24.9855V17.3917L42.5273 16.4542C43.0781 15.3409 43.2656 14.3214 43.125 13.2784C42.9961 12.3644 42.8555 12.1183 42.4102 11.9659C42.0703 11.837 42.0586 11.8136 42.0586 11.0753V10.3019H47.4492C53.4844 10.3019 53.4609 10.3019 53.8242 9.54016C54.1992 8.76672 54 8.41516 52.3711 7.00891C51.3047 6.08313 51 5.76672 51.1172 5.67297C51.1992 5.60266 51.832 5.0636 52.5234 4.45422C53.9648 3.20032 54.1875 2.79016 53.8477 2.08704C53.4844 1.3136 53.6953 1.33704 47.6016 1.30188L42.0586 1.26672V0.880005C42.0586 0.247192 41.4023 -0.174683 40.793 0.0714111ZM51.3164 3.15344C51.3164 3.21204 51.2812 3.27063 51.2344 3.27063C51.1758 3.27063 50.6719 3.70422 50.1094 4.24329C49.1719 5.11047 49.0664 5.2511 49.0078 5.71985L48.9375 6.23547L50.1562 7.39563L51.375 8.54407L46.7461 8.52063L42.1172 8.48547L42.082 5.90735C42.0703 4.48938 42.082 3.27063 42.1055 3.1886C42.1875 3.0011 51.3164 2.96594 51.3164 3.15344ZM30.0938 14.3566C30.4805 14.8488 31.3945 16.712 31.3945 17.005C31.3945 17.4152 31.0898 17.7784 30.457 18.0948C29.8125 18.423 29.332 18.4698 28.9922 18.2238C28.8633 18.13 28.4766 17.4855 28.125 16.7706C27.4102 15.3175 27.3984 15.0714 28.0547 14.5675C28.8984 13.923 29.6953 13.8409 30.0938 14.3566ZM40.3008 25.712V32.5675H39.9844C39.5156 32.5675 38.543 33.0597 38.1094 33.505C37.3359 34.3019 37.3125 34.3956 37.2773 38.0402C37.2539 39.8683 37.207 41.3566 37.1602 41.3566C37.1133 41.3566 36.8789 41.298 36.6445 41.2394C36.2578 41.1222 36.2109 41.0753 36.2578 40.7941C36.4336 39.8331 36.9141 35.5792 36.9141 35.0167C36.9258 34.0441 36.6094 33.5284 34.3945 30.9034L32.4609 28.6066L33.5156 25.4425L34.5703 22.2784L36.7617 20.9542C37.9688 20.2277 39.2227 19.4542 39.5391 19.255C39.8672 19.0441 40.1602 18.8683 40.2188 18.8683C40.2656 18.8566 40.3008 21.9386 40.3008 25.712ZM29.5664 34.4425C28.9336 37.9347 28.7578 38.6613 28.5234 39.0128C28.3594 39.2355 26.9766 41.087 25.4414 43.1144C23.0039 46.3488 22.2539 47.2159 22.2539 46.7706C22.2539 46.7003 23.0508 44.9777 24.0117 42.9386C26.0391 38.673 25.8984 39.2706 26.1328 34.6183C26.2031 33.13 26.2969 31.9113 26.3438 31.8878C26.6953 31.7238 30.293 30.2589 30.3047 30.2706C30.3164 30.2823 29.9883 32.1573 29.5664 34.4425ZM33.4453 32.5206C35.0508 34.4191 35.1445 34.5597 35.1445 35.1573C35.1445 35.6027 34.6641 39.7745 34.5 40.7355C34.4414 41.0519 34.3711 41.1222 34.1484 41.1222C33.9844 41.1222 33.8555 41.1105 33.8555 41.087C33.8555 41.0753 33.7266 39.88 33.5742 38.4269C33.3867 36.5988 33.2461 35.673 33.1055 35.4034C32.9766 35.1691 32.6133 34.8175 32.168 34.5363L31.4297 34.0675L31.5703 33.2941C31.6523 32.8605 31.7812 32.1222 31.8633 31.6417C31.9805 30.9503 32.0391 30.798 32.1445 30.9386C32.2148 31.0323 32.8008 31.7472 33.4453 32.5206ZM47.9531 34.4542C48.0938 34.5245 48.3047 34.7003 48.4102 34.8409C48.5977 35.0753 48.6211 35.8722 48.6211 46.6534V58.2316H43.8164H39.0117V55.5245C39.0117 52.337 38.9531 52.1378 38.1094 52.1378C37.875 52.1378 37.6289 52.2316 37.4883 52.3722C37.2656 52.5948 37.2539 52.7589 37.2539 55.4191V58.2316H32.3906H27.5156L27.5508 51.0011C27.5859 43.0441 27.5508 43.4073 28.3008 43.0558C28.8516 42.798 36.0469 42.798 36.5508 43.0558C37.1953 43.3839 37.2539 43.6652 37.2539 46.3956C37.2539 48.8683 37.2539 48.8683 37.5469 49.1495C37.9102 49.5245 38.3555 49.5245 38.7188 49.1495L39.0117 48.8683V41.9894V35.1222L39.4102 34.7238L39.8086 34.3253H43.7578C46.4297 34.3253 47.7773 34.3722 47.9531 34.4542ZM31.4062 36.1183C31.5586 36.2355 31.6523 36.7863 31.8398 38.6613C31.9688 39.9855 32.0625 41.0753 32.0391 41.0988C32.0273 41.1105 31.3711 41.1105 30.5977 41.0988L29.1797 41.0636L29.7539 40.3019C30.375 39.4816 30.5508 38.9542 30.8789 37.1027C30.9961 36.4816 31.1133 35.9659 31.1484 35.9659C31.1836 35.9659 31.3008 36.0363 31.4062 36.1183ZM25.7695 46.3488V47.005L25.3945 46.923C25.1836 46.8761 24.9844 46.8175 24.9609 46.7941C24.9258 46.7589 25.6641 45.6925 25.7344 45.6925C25.7578 45.6925 25.7695 45.9855 25.7695 46.3488ZM25.4297 48.962L25.7695 49.3019V53.7667V58.2316H20.9648H16.1602V53.8839C16.1602 49.3722 16.1719 49.2316 16.6758 48.8331C16.8984 48.6456 17.3086 48.6222 21 48.6222H25.0898L25.4297 48.962ZM13.8281 54.0128C14.2969 54.2706 14.4023 54.7277 14.4023 56.5323V58.2316H9.59766H4.79297V56.4034V54.5753L5.13281 54.2355L5.47266 53.8956H9.53906C12.0938 53.8956 13.6758 53.9425 13.8281 54.0128Z" fill="#17974D"/>
</g>
</svg>
