<svg width="60" height="60" viewBox="0 0 60 60" fill="none" xmlns="http://www.w3.org/2000/svg">
<path d="M4.98047 0.292969L4.6875 0.574219V12.4805V24.375H5.625H6.5625V13.125V1.875H22.0312H37.5V0.9375V0H21.3867H5.26172L4.98047 0.292969Z" fill="#C02222"/>
<path d="M45.0001 0.175779C36.8907 1.52344 32.379 10.1836 35.965 17.5195C36.504 18.6094 37.4415 20.0039 37.8986 20.3789C38.0743 20.5312 37.9806 20.6602 36.8556 21.7969C35.8126 22.8633 35.6251 23.1094 35.6251 23.4258C35.6251 23.6719 35.7306 23.9062 35.9181 24.0937L36.2111 24.3867L42.5157 24.3516C48.5626 24.3047 48.8439 24.293 49.7462 24.0469C53.0626 23.1328 55.7111 21.1758 57.34 18.3984C59.4845 14.7539 59.6134 10.4062 57.6915 6.65625C55.6759 2.71875 51.7736 0.234373 47.3439 0.0585918C46.4884 0.0234356 45.6329 0.0703106 45.0001 0.175779ZM49.3361 2.12109C52.1837 2.76562 54.797 4.86328 56.1447 7.55859C56.8947 9.07031 57.0822 9.90234 57.1525 11.8359C57.1993 13.3711 57.1759 13.6406 56.9181 14.6719C55.8868 18.6445 52.6876 21.6211 48.6915 22.3242C47.8947 22.4648 46.6876 22.5 43.2657 22.5H38.8712L39.5861 21.75C40.5704 20.7305 40.5704 20.5195 39.5509 19.4297C38.1681 17.9297 37.3478 16.4648 36.8439 14.5781C36.6798 13.957 36.6329 13.3711 36.6329 12.0703C36.6447 10.5703 36.6798 10.2422 36.9493 9.33984C37.5353 7.45312 38.4025 6.02344 39.797 4.67578C42.3634 2.22656 45.7618 1.3125 49.3361 2.12109Z" fill="#C02222"/>
<path d="M40.3125 8.62506C40.3125 9.17584 40.6406 9.82037 41.1914 10.3712C42.0469 11.2383 42.9609 11.4493 44.0977 11.0626C45 10.7579 45.9375 9.51568 45.9375 8.62506C45.9375 8.47271 45.7969 8.43756 45.0352 8.43756C44.1211 8.43756 44.1211 8.43756 43.9453 8.82428C43.8398 9.03521 43.6289 9.24615 43.4531 9.30474C42.9844 9.46881 42.5156 9.26959 42.3047 8.82428C42.1289 8.43756 42.1289 8.43756 41.2266 8.43756C40.4531 8.43756 40.3125 8.47271 40.3125 8.62506Z" fill="#C02222"/>
<path d="M47.8125 8.62506C47.8125 9.17584 48.1406 9.82037 48.6914 10.3712C49.5469 11.2383 50.4609 11.4493 51.5977 11.0626C52.5 10.7579 53.4375 9.51568 53.4375 8.62506C53.4375 8.47271 53.2969 8.43756 52.5352 8.43756C51.6211 8.43756 51.6211 8.43756 51.4453 8.82428C51.3398 9.03521 51.1289 9.24615 50.9531 9.30474C50.4844 9.46881 50.0156 9.26959 49.8047 8.82428C49.6289 8.43756 49.6289 8.43756 48.7266 8.43756C47.9531 8.43756 47.8125 8.47271 47.8125 8.62506Z" fill="#C02222"/>
<path d="M45.4805 12.375C43.5 12.9023 41.9531 14.4844 41.4258 16.4883C41.332 16.8516 41.25 17.3086 41.25 17.4844V17.8125H42.1758H43.1016L43.1836 17.2617C43.3594 16.0547 44.168 14.9648 45.293 14.4141C45.7734 14.1797 46.0547 14.1328 46.875 14.1328C47.9648 14.1328 48.5508 14.332 49.3477 14.9883C49.8633 15.4219 50.4609 16.5234 50.5664 17.25L50.6484 17.8125H51.5742H52.5V17.4844C52.5 17.3086 52.418 16.8516 52.3242 16.4883C51.5391 13.4531 48.4219 11.5781 45.4805 12.375Z" fill="#C02222"/>
<path d="M8.4375 4.6875V5.625H15H21.5625V4.6875V3.75H15H8.4375V4.6875Z" fill="#C02222"/>
<path d="M23.4375 4.6875V5.625H24.375H25.3125V4.6875V3.75H24.375H23.4375V4.6875Z" fill="#C02222"/>
<path d="M8.4375 8.4375V9.375H14.0625H19.6875V8.4375V7.5H14.0625H8.4375V8.4375Z" fill="#C02222"/>
<path d="M8.73047 24.668C8.48438 24.9023 8.4375 25.0664 8.4375 25.6055V26.25H6.09375H3.75V27.1875V28.125H6.09375H8.4375V32.8125V37.5H4.21875H0V38.4375V39.375H4.21875H8.4375V40.0195C8.4375 40.5586 8.48438 40.7227 8.73047 40.957L9.01172 41.25H13.125H17.2383L17.5195 40.957C17.7305 40.7578 17.8125 40.5469 17.8125 40.2422V39.8086L18.5625 40.5234L19.3125 41.25H20.9062H22.5V44.707V48.1758L22.793 48.457C23.543 49.2188 26.1211 48.4102 27.457 47.0039C28.6289 45.7734 29.0625 44.5313 29.0625 42.375V41.1914L31.582 41.2266C34.6289 41.2734 34.9805 41.1914 35.7773 40.3125C36.4805 39.5273 36.75 38.4844 36.4453 37.6875C36.3516 37.418 36.375 37.3828 36.7383 37.2656C37.582 36.9844 38.4375 35.6836 38.4375 34.6875C38.4375 33.6914 37.582 32.3906 36.7383 32.1094C36.375 31.9922 36.3516 31.957 36.4453 31.6875C36.75 30.9023 36.4805 29.8477 35.8008 29.0742C35.3203 28.5469 35.3086 28.5234 35.4609 28.125C35.8125 27.1523 35.5898 26.1445 34.8398 25.3125C33.9727 24.3516 34.2422 24.375 26.2734 24.375H19.3125L18.5625 25.1016L17.8125 25.8164V25.3828C17.8125 25.0781 17.7305 24.8672 17.5195 24.668L17.2383 24.375H13.125H9.01172L8.73047 24.668ZM15.9375 32.8125V39.375H13.125H10.3125V32.8125V26.25H13.125H15.9375V32.8125ZM26.2852 26.8359C26.1914 27.6563 26.4258 28.3828 27.0117 29.0391C27.4922 29.5781 27.5039 29.6016 27.3516 30C27.1641 30.5273 27.1523 31.1953 27.3281 31.7813C27.5039 32.3789 28.2422 33.2109 28.8281 33.4688C29.2266 33.6445 29.2617 33.7031 29.168 33.9492C29.0273 34.3125 29.0273 35.0625 29.168 35.4375C29.2734 35.6836 29.25 35.7422 28.957 35.8359C28.6523 35.9414 28.6289 35.918 28.2422 35.1797C27.6797 34.1016 26.7773 33.1641 25.7812 32.6484C24.9492 32.2031 23.7422 31.875 22.9453 31.875H22.5V32.8008V33.7266L23.25 33.8086C24.1641 33.9023 25.2422 34.3945 25.8398 34.9805C26.3555 35.4961 26.8945 36.5859 27.0703 37.4531C27.1523 37.8398 27.1875 39.2109 27.1641 41.0977L27.1289 44.1211L26.7305 44.8594C26.5078 45.2695 26.1328 45.7617 25.9102 45.9492C25.5469 46.2422 24.6094 46.7578 24.4336 46.7578C24.3984 46.7578 24.375 45.2227 24.375 43.3594V39.9492L24.082 39.668C23.8008 39.3867 23.7539 39.375 21.9492 39.375H20.0977L18.9609 38.2383L17.8125 37.0898V32.8125V28.5352L18.9492 27.3984L20.0977 26.25H23.2266H26.3555L26.2852 26.8359ZM33.457 26.543C33.6445 26.7188 33.75 26.9648 33.75 27.1875C33.75 27.4102 33.6445 27.6563 33.457 27.832C33.1758 28.125 33.1523 28.125 30.9375 28.125C28.7227 28.125 28.6992 28.125 28.418 27.832C28.2305 27.6563 28.125 27.4102 28.125 27.1875C28.125 26.9648 28.2305 26.7188 28.418 26.543C28.6992 26.25 28.7227 26.25 30.9375 26.25C33.1523 26.25 33.1758 26.25 33.457 26.543ZM34.3945 30.293C34.582 30.4688 34.6875 30.7148 34.6875 30.9375C34.6875 31.1602 34.582 31.4063 34.3945 31.582C34.1133 31.875 34.0898 31.875 31.875 31.875C29.6602 31.875 29.6367 31.875 29.3555 31.582C29.168 31.4063 29.0625 31.1602 29.0625 30.9375C29.0625 30.7148 29.168 30.4688 29.3555 30.293C29.6367 30 29.6602 30 31.875 30C34.0898 30 34.1133 30 34.3945 30.293ZM36.2695 34.043C36.457 34.2188 36.5625 34.4648 36.5625 34.6875C36.5625 34.9102 36.457 35.1563 36.2695 35.332C35.9883 35.625 35.9648 35.625 33.75 35.625C31.5352 35.625 31.5117 35.625 31.2305 35.332C31.043 35.1563 30.9375 34.9102 30.9375 34.6875C30.9375 34.4648 31.043 34.2188 31.2305 34.043C31.5117 33.75 31.5352 33.75 33.75 33.75C35.9648 33.75 35.9883 33.75 36.2695 34.043ZM34.3945 37.793C34.582 37.9688 34.6875 38.2148 34.6875 38.4375C34.6875 38.6602 34.582 38.9063 34.3945 39.082C34.1133 39.375 34.0898 39.375 31.875 39.375C29.6602 39.375 29.6367 39.375 29.3555 39.082C29.168 38.9063 29.0625 38.6602 29.0625 38.4375C29.0625 38.2148 29.168 37.9688 29.3555 37.793C29.6367 37.5 29.6602 37.5 31.875 37.5C34.0898 37.5 34.1133 37.5 34.3945 37.793Z" fill="#C02222"/>
<path d="M51.5625 41.7188V58.125H34.6875H17.8125V52.793V47.4492L17.5195 47.168L17.2383 46.875H11.8945H6.5625V44.0625V41.25H5.625H4.6875V44.7305V48.2227L10.582 54.1055L16.4648 60H34.6641H52.8633L53.1445 59.707L53.4375 59.4258V42.3633V25.3125H52.5H51.5625V41.7188ZM15.9375 52.7344C15.9375 54.9258 15.9258 56.7188 15.9023 56.7188C15.8906 56.7188 14.0859 54.9258 11.8945 52.7344L7.91016 48.75H11.9297H15.9375V52.7344Z" fill="#C02222"/>
<path d="M0 27.1875V28.125H0.9375H1.875V27.1875V26.25H0.9375H0V27.1875Z" fill="#C02222"/>
<path d="M43.0898 49.6641C42.7852 49.9688 42.5391 50.2734 42.5391 50.332C42.5391 50.3906 42.9961 50.9062 43.5586 51.4688L44.5898 52.5L43.5352 53.5547L42.4805 54.6094L43.1602 55.2773L43.8281 55.957L44.8828 54.9023L45.9375 53.8477L46.9922 54.9023L48.0469 55.957L48.7148 55.2773L49.3945 54.6094L48.3398 53.5547L47.2852 52.5L48.3164 51.4688C48.8789 50.9062 49.3359 50.3906 49.3359 50.3203C49.3359 50.1797 48.2578 49.1016 48.1055 49.1016C48.0469 49.1016 47.5313 49.5586 46.9688 50.1211L45.9375 51.1523L44.9063 50.1211C44.3438 49.5586 43.8281 49.1016 43.7578 49.1016C43.6992 49.1016 43.3945 49.3594 43.0898 49.6641Z" fill="#C02222"/>
<path d="M29.0625 52.5V53.4375H30H30.9375V52.5V51.5625H30H29.0625V52.5Z" fill="#C02222"/>
<path d="M32.8125 52.5V53.4375H37.0312H41.25V52.5V51.5625H37.0312H32.8125V52.5Z" fill="#C02222"/>
</svg>
