<svg width="50" height="54" viewBox="0 0 50 54" fill="none" xmlns="http://www.w3.org/2000/svg">
<g id="Group 3939">
<g id="Group">
<path id="Vector" opacity="0.935" fill-rule="evenodd" clip-rule="evenodd" d="M41.5151 0.0140694C41.9344 -0.0338292 42.325 0.0405743 42.6869 0.237269C43.3981 1.75239 44.1234 3.25899 44.8631 4.75706C46.3511 4.98026 47.8392 5.20346 49.3271 5.42666C49.6125 5.50314 49.8172 5.67054 49.9409 5.92886C50.0321 6.31547 49.9948 6.68747 49.8293 7.04485C48.69 8.14689 47.5925 9.28148 46.5371 10.4486C46.8948 12.1289 47.1365 13.8215 47.2625 15.5264C47.1749 15.7257 47.0448 15.8931 46.8719 16.0286C46.5371 16.1031 46.2023 16.1031 45.8675 16.0286C44.5655 15.3032 43.2636 14.5778 41.9615 13.8524C40.6595 14.5778 39.3576 15.3032 38.0555 16.0286C37.7207 16.1031 37.3859 16.1031 37.0512 16.0286C36.8783 15.8931 36.7482 15.7257 36.6606 15.5264C36.7865 13.8215 37.0283 12.1289 37.3859 10.4486C36.3306 9.28148 35.2331 8.14689 34.0938 7.04485C33.8584 6.56711 33.877 6.1021 34.1496 5.64986C35.7645 5.25662 37.4014 4.95902 39.0599 4.75706C39.7996 3.25899 40.525 1.75239 41.2361 0.237269C41.3472 0.174115 41.4401 0.099711 41.5151 0.0140694ZM41.8499 3.25046C42.4309 4.15133 42.9331 5.11852 43.3565 6.15205C43.4495 6.24505 43.5426 6.33806 43.6355 6.43105C44.7643 6.63131 45.8803 6.85451 46.9835 7.10065C46.2617 7.93425 45.499 8.73405 44.6957 9.50005C44.6669 10.7049 44.7972 11.8953 45.0863 13.0712C45.0492 13.1457 45.0119 13.22 44.9747 13.2944C44.0067 12.7172 43.0023 12.2337 41.9615 11.8436C41.8128 11.8623 41.6639 11.8808 41.5151 11.8994C40.6595 12.3645 39.804 12.8294 38.9483 13.2944C38.9112 13.22 38.8739 13.1457 38.8367 13.0712C39.1259 11.8953 39.2561 10.7049 39.2273 9.50005C38.4241 8.73405 37.6614 7.93425 36.9396 7.10065C38.0434 6.85749 39.1594 6.63429 40.2875 6.43105C40.5616 6.16238 40.7662 5.84617 40.9013 5.48246C41.2504 4.74778 41.5666 4.00378 41.8499 3.25046Z" fill="#C02222"/>
</g>
<g id="Group_2">
<path id="Vector_2" opacity="0.999" fill-rule="evenodd" clip-rule="evenodd" d="M32.5871 25.0124C38.2417 24.9937 43.896 25.0124 49.5503 25.0682C49.6525 25.1099 49.7456 25.1657 49.8293 25.2356C49.959 29.9135 50.0148 34.6007 49.9967 39.2971C49.978 43.9099 49.9595 48.5227 49.9409 53.1355C49.8991 53.2377 49.8433 53.3308 49.7735 53.4145C33.3401 53.6001 16.8978 53.6374 0.446402 53.5261C0.241806 53.4703 0.111603 53.3401 0.0558027 53.1355C-0.0186009 48.6715 -0.0186009 44.2075 0.0558027 39.7435C0.0975633 39.6413 0.153363 39.5482 0.223202 39.4645C5.49616 39.2982 10.7785 39.2424 16.0704 39.2971C16.0517 37.0648 16.0704 34.8328 16.1262 32.6011C16.182 32.3966 16.3122 32.2663 16.5168 32.2105C21.7246 32.1547 26.9326 32.1361 32.1407 32.1547C32.1221 29.9224 32.1407 27.6904 32.1965 25.4588C32.2735 25.2523 32.4037 25.1034 32.5871 25.0124ZM33.9263 26.798C38.6879 26.798 43.4495 26.798 48.2111 26.798C48.2111 35.1308 48.2111 43.4635 48.2111 51.7963C43.4495 51.7963 38.6879 51.7963 33.9263 51.7963C33.9263 43.4635 33.9263 35.1308 33.9263 26.798ZM17.856 33.9403C22.6176 33.9403 27.3791 33.9403 32.1407 33.9403C32.1407 39.8923 32.1407 45.8444 32.1407 51.7963C27.3791 51.7963 22.6176 51.7963 17.856 51.7963C17.856 45.8444 17.856 39.8923 17.856 33.9403ZM1.7856 41.0827C6.54719 41.0827 11.3087 41.0827 16.0704 41.0827C16.0704 44.6539 16.0704 48.2251 16.0704 51.7963C11.3087 51.7963 6.54719 51.7963 1.7856 51.7963C1.7856 48.2251 1.7856 44.6539 1.7856 41.0827Z" fill="#C02222"/>
</g>
</g>
</svg>
