<svg width="60" height="57" viewBox="0 0 60 57" fill="none" xmlns="http://www.w3.org/2000/svg">
<path d="M2.77786 0.281258C1.48856 0.820419 0.64465 1.72293 0.234418 3.03567C0 3.76237 0 4.09055 0 23.266C0 42.4414 0 42.7696 0.234418 43.4963C0.656371 44.8324 1.54716 45.7701 2.91851 46.321L3.57488 46.5906L21.2031 46.6492L38.8314 46.7078L38.972 47.118C39.394 48.337 40.1441 49.4974 41.1521 50.5054C41.7382 51.0914 41.9257 51.2203 42.2539 51.2203C42.5352 51.2203 42.711 51.1383 42.8868 50.9156C43.297 50.3882 43.2033 50.1186 42.289 49.134C40.8357 47.5751 40.2027 46.0163 40.2027 43.9534C40.2027 41.9491 40.8357 40.3082 42.1718 38.8899C43.1212 37.8819 43.9886 37.3076 45.2193 36.8857C47.1532 36.2176 49.1106 36.3582 50.9274 37.2725C52.7207 38.175 54.0686 39.7456 54.6898 41.6444C54.9711 42.4648 55.018 42.8047 55.018 43.9534C55.018 45.6295 54.6898 46.7312 53.799 48.0791C52.873 49.4974 51.6189 50.4702 49.9076 51.0797C49.1341 51.361 48.8996 51.3844 47.2822 51.3961C45.2779 51.3961 45.1255 51.4548 45.1255 52.158C45.1255 52.7441 45.3951 52.955 46.3093 53.1074C47.6924 53.3418 50.1303 53.0136 51.2204 52.451L51.5486 52.2752L53.295 54.1506C55.3227 56.3541 55.6274 56.5416 56.823 56.4713C57.7489 56.4127 58.3701 56.1431 58.9796 55.5336C59.5539 54.9593 59.8939 54.2561 59.9759 53.4942C60.0931 52.4041 59.847 51.9939 57.7841 49.8138L55.9439 47.8799L56.2252 47.2118C56.5417 46.4265 56.8464 44.7738 56.8464 43.9065C56.8347 43.5783 56.7644 42.8868 56.6706 42.371C56.53 41.574 56.4948 38.5149 56.4948 22.6799C56.4948 1.82842 56.5417 3.11772 55.6978 1.8753C55.1703 1.10172 54.4905 0.57428 53.6232 0.246094L52.9668 -4.57764e-05H28.2122H3.45767L2.77786 0.281258ZM53.5411 2.13316C53.799 2.30898 54.174 2.70749 54.3499 3.01223L54.678 3.57483L54.7132 7.11455L54.7484 10.666H28.2591H1.75814V7.26692C1.75814 3.61 1.78158 3.4459 2.40279 2.62544C2.55516 2.42619 2.90679 2.14488 3.18809 2.00423L3.69209 1.75809L28.3763 1.78154L53.0488 1.8167L53.5411 2.13316ZM54.7367 25.2116V37.9991L53.9045 37.2256C52.8848 36.2879 51.9822 35.7253 50.7867 35.2799C46.3914 33.6859 41.5272 35.5964 39.4409 39.7338C38.7962 41.0231 38.5501 41.996 38.4798 43.508L38.4094 44.891H21.5079C10.6543 44.891 4.3719 44.8442 3.97339 44.7738C3.11776 44.6097 2.48483 44.1526 2.08632 43.379L1.75814 42.7578V27.591V12.4241H28.2474H54.7367V25.2116ZM58.1826 52.9199C58.335 53.2949 58.1943 53.7286 57.7724 54.2092C57.3621 54.678 56.8113 54.8655 56.3776 54.7014C56.2135 54.6428 55.4165 53.881 54.6077 53.0136L53.1426 51.4313L54.0803 50.4702L55.0297 49.5091L56.5534 51.0797C57.3973 51.947 58.124 52.7675 58.1826 52.9199Z" fill="#674EA7"/>
<path d="M5.06353 3.9382C3.09442 4.93448 3.10614 7.70061 5.08697 8.62657C5.90744 9.01336 6.59897 8.98991 7.39599 8.57968C8.73218 7.88815 9.18929 6.27066 8.43916 4.95792C7.74762 3.75067 6.28251 3.31699 5.06353 3.9382ZM6.7279 5.63773C7.50148 6.24722 6.73962 7.43103 5.80195 7.0794C5.49721 6.9622 5.27451 6.34099 5.40344 5.98936C5.63786 5.37987 6.20046 5.2275 6.7279 5.63773Z" fill="#674EA7"/>
<path d="M12.7759 3.87963C11.721 4.36018 11.217 5.13376 11.217 6.27069C11.217 9.10715 15.0029 9.91589 16.1867 7.32557C17.1595 5.21581 14.8857 2.91851 12.7759 3.87963ZM14.3465 5.63776C15.1904 6.30585 14.1707 7.59515 13.2799 6.97395C12.94 6.73953 12.8462 6.28241 13.0689 5.87218C13.3385 5.33302 13.8425 5.23925 14.3465 5.63776Z" fill="#674EA7"/>
<path d="M20.16 3.87963C19.1051 4.36018 18.6011 5.13376 18.6011 6.27069C18.6011 9.10715 22.3869 9.91589 23.5707 7.32557C24.5436 5.21581 22.2697 2.91851 20.16 3.87963ZM21.7306 5.63776C22.5745 6.30585 21.5547 7.59515 20.664 6.97395C20.324 6.73953 20.2303 6.28241 20.453 5.87218C20.7226 5.33302 21.2266 5.23925 21.7306 5.63776Z" fill="#674EA7"/>
<path d="M28.013 3.87958C26.9581 4.36014 26.4541 5.13372 26.4541 6.27064C26.4541 7.44274 27.1691 8.45073 28.2357 8.77892C28.5521 8.87269 31.1425 8.90785 37.1201 8.90785C45.442 8.90785 45.5592 8.90785 45.8053 8.67343C46.1804 8.3218 46.157 7.71232 45.7584 7.39585C45.4537 7.14971 45.3599 7.14971 37.1084 7.14971C28.0481 7.14971 28.3646 7.17315 28.2005 6.50506C28.1185 6.16516 28.3763 5.57911 28.6576 5.4619C28.7631 5.42674 33.6976 5.39158 39.6167 5.39158C49.6849 5.39158 50.3882 5.4033 50.6226 5.59083C50.7516 5.70804 50.9039 5.9659 50.9391 6.17688C50.9977 6.48162 50.9508 6.61055 50.7164 6.84497C50.4234 7.13799 50.3413 7.14971 49.1458 7.14971C47.7979 7.16143 47.5635 7.23176 47.3642 7.74748C47.2353 8.09911 47.458 8.72031 47.7627 8.83752C48.0909 8.95473 50.3999 8.91957 50.8805 8.77892C52.8144 8.19287 53.3184 5.54395 51.7478 4.24293C51.5134 4.05539 51.1266 3.84442 50.8805 3.76237C50.5523 3.6686 47.3525 3.63344 39.4878 3.63344C28.7162 3.63344 28.5287 3.64516 28.013 3.87958Z" fill="#674EA7"/>
<path d="M30.4979 18.2964C29.8063 18.648 29.5368 19.0348 28.7163 20.9687C28.0599 22.5042 28.013 22.68 28.142 22.9847C28.3647 23.5473 28.9976 23.7349 29.4547 23.3949C29.5719 23.3012 29.9587 22.551 30.3103 21.7306C30.6737 20.8984 31.0488 20.1248 31.1425 20.0076C31.4121 19.7146 32.0568 19.7497 32.2795 20.0662C32.3849 20.2069 32.467 20.4178 32.467 20.5233C32.467 20.8046 26.7472 34.1196 26.5245 34.3657C26.2549 34.6705 25.6103 34.6353 25.3876 34.3188C25.2821 34.1782 25.2 33.9672 25.2 33.8617C25.2 33.7562 25.8916 32.0567 26.7237 30.0876C28.3764 26.2431 28.3881 26.1728 27.7552 25.7391C26.9699 25.1882 26.7355 25.5164 24.9773 29.6774C23.7584 32.5255 23.4419 33.3929 23.4419 33.8148C23.4419 35.2331 24.5671 36.3466 25.9736 36.3466C26.7589 36.3466 27.5559 35.9949 27.9427 35.4675C28.3412 34.94 34.1314 21.3555 34.19 20.8046C34.3072 19.7849 33.7446 18.7535 32.8069 18.2729C32.1857 17.9682 31.1543 17.9682 30.4979 18.2964Z" fill="#674EA7"/>
<path d="M18.7534 20.1599C18.5307 20.1951 18.1908 20.324 17.9916 20.4178C17.804 20.5233 16.4678 21.7891 15.0496 23.2308C12.2014 26.0907 12.1194 26.2079 12.2132 27.4269C12.2483 27.9192 12.3538 28.2356 12.5765 28.5638C12.7523 28.8099 14.0182 30.1344 15.3778 31.494C17.7454 33.8382 17.9095 33.9789 18.5542 34.1664C19.3863 34.4008 20.1365 34.2719 20.8397 33.7562C21.7071 33.135 22.0587 31.7753 21.625 30.7439C21.5196 30.4978 20.7929 29.6538 19.9021 28.7513L18.3549 27.1925L19.8317 25.7039C20.6405 24.8717 21.3789 24.0395 21.4844 23.852C22.4455 21.9649 20.828 19.7731 18.7534 20.1599ZM19.8435 22.1759C19.949 22.3048 20.0427 22.5275 20.0427 22.6565C20.0427 22.8088 19.3981 23.5473 18.2377 24.7193C16.4561 26.5361 16.1748 26.876 16.1748 27.2628C16.1748 27.3683 17.0422 28.3411 18.1088 29.4194C19.7731 31.0955 20.0427 31.4237 20.0427 31.7402C20.0427 32.1152 19.5973 32.5841 19.2457 32.5841C19.1402 32.5841 17.9095 31.4354 16.503 30.0406C14.3229 27.8605 13.9478 27.4386 13.9478 27.1456C13.9478 26.8526 14.2995 26.4423 16.3272 24.4029C17.6282 23.0901 18.8003 21.9649 18.9292 21.918C19.2457 21.7891 19.5856 21.8829 19.8435 22.1759Z" fill="#674EA7"/>
<path d="M37.9757 20.1599C36.2997 20.4764 35.3971 22.3166 36.1824 23.8403C36.2879 24.0395 37.0264 24.8717 37.8351 25.7039L39.3119 27.1925L37.7179 28.81C35.9597 30.5915 35.8074 30.8611 35.8894 32.0098C36.0066 33.6624 37.6476 34.6587 39.3236 34.1078C39.687 33.9906 40.3668 33.3811 42.289 31.4823C43.7893 30.0055 44.938 28.7748 45.1372 28.4232C45.524 27.7434 45.5943 26.876 45.3013 26.161C45.0786 25.6336 40.2262 20.7108 39.6167 20.4061C39.1127 20.1482 38.5149 20.0544 37.9757 20.1599ZM41.2928 24.3677C43.3674 26.4423 43.719 26.8408 43.719 27.1456C43.719 27.4386 43.3556 27.8606 41.1638 30.0407C39.7573 31.4354 38.5266 32.5841 38.4211 32.5841C38.0695 32.5841 37.6241 32.1153 37.6241 31.7402C37.6241 31.4237 37.8937 31.0955 39.5581 29.4194C40.6247 28.3411 41.492 27.3683 41.492 27.2628C41.492 26.876 41.2107 26.5361 39.4291 24.7194C38.4329 23.7231 37.6241 22.8088 37.6241 22.6916C37.6241 22.1759 38.1398 21.754 38.6204 21.8829C38.7493 21.9063 39.9449 23.0315 41.2928 24.3677Z" fill="#674EA7"/>
<path d="M46.3444 38.2687C44.9965 38.5617 43.8361 39.3236 42.9336 40.5308C42.2187 41.4919 41.9491 42.2772 41.8788 43.6134C41.7733 45.4653 42.3593 46.9304 43.6721 48.1729C47.1063 51.3844 52.5565 49.4856 53.3535 44.7972C53.7638 42.4062 52.3807 39.7924 50.142 38.7375C48.7824 38.0929 47.7392 37.9639 46.3444 38.2687ZM49.2864 40.2495C51.0562 41.0583 52.0408 43.1329 51.5251 44.9613C51.0914 46.4616 50.0248 47.5048 48.5362 47.8916C47.118 48.2432 45.6412 47.7861 44.6332 46.6609C42.6172 44.4222 43.6603 40.8356 46.5671 40.0268C47.3876 39.7924 48.4893 39.8862 49.2864 40.2495Z" fill="#674EA7"/>
</svg>
