<svg width="70" height="36" viewBox="0 0 70 36" fill="none" xmlns="http://www.w3.org/2000/svg">
<path d="M57.6 15.84C54.432 15.84 51.84 13.248 51.84 10.08C51.84 6.912 54.432 4.32 57.6 4.32C60.768 4.32 63.36 6.912 63.36 10.08C63.36 13.248 60.768 15.84 57.6 15.84ZM57.6 7.2C55.872 7.2 54.72 8.352 54.72 10.08C54.72 11.808 55.872 12.96 57.6 12.96C59.328 12.96 60.48 11.808 60.48 10.08C60.48 8.352 59.328 7.2 57.6 7.2ZM67.68 30.24C66.816 30.24 66.24 29.664 66.24 28.8V25.92C66.24 23.616 64.224 21.6 61.92 21.6H53.28C52.416 21.6 51.84 21.024 51.84 20.16C51.84 19.296 52.416 18.72 53.28 18.72H61.92C65.952 18.72 69.12 21.888 69.12 25.92V28.8C69.12 29.664 68.544 30.24 67.68 30.24ZM11.52 15.84C8.352 15.84 5.76 13.248 5.76 10.08C5.76 6.912 8.352 4.32 11.52 4.32C14.688 4.32 17.28 6.912 17.28 10.08C17.28 13.248 14.688 15.84 11.52 15.84ZM11.52 7.2C9.792 7.2 8.64 8.352 8.64 10.08C8.64 11.808 9.792 12.96 11.52 12.96C13.248 12.96 14.4 11.808 14.4 10.08C14.4 8.352 13.248 7.2 11.52 7.2ZM1.44 30.24C0.576 30.24 0 29.664 0 28.8V25.92C0 21.888 3.168 18.72 7.2 18.72H15.84C16.704 18.72 17.28 19.296 17.28 20.16C17.28 21.024 16.704 21.6 15.84 21.6H7.2C4.896 21.6 2.88 23.616 2.88 25.92V28.8C2.88 29.664 2.304 30.24 1.44 30.24ZM34.56 17.28C29.664 17.28 25.92 13.536 25.92 8.64C25.92 3.744 29.664 0 34.56 0C39.456 0 43.2 3.744 43.2 8.64C43.2 13.536 39.456 17.28 34.56 17.28ZM34.56 2.88C31.392 2.88 28.8 5.472 28.8 8.64C28.8 11.808 31.392 14.4 34.56 14.4C37.728 14.4 40.32 11.808 40.32 8.64C40.32 5.472 37.728 2.88 34.56 2.88ZM48.96 36C48.096 36 47.52 35.424 47.52 34.56V28.8C47.52 26.496 45.504 24.48 43.2 24.48H25.92C23.616 24.48 21.6 26.496 21.6 28.8V34.56C21.6 35.424 21.024 36 20.16 36C19.296 36 18.72 35.424 18.72 34.56V28.8C18.72 24.768 21.888 21.6 25.92 21.6H43.2C47.232 21.6 50.4 24.768 50.4 28.8V34.56C50.4 35.424 49.824 36 48.96 36Z" fill="#3498DB"/>
</svg>
