<svg width="35" height="41" viewBox="0 0 35 41" fill="none" xmlns="http://www.w3.org/2000/svg">
<path d="M28.8 30.92C27.216 30.92 25.92 29.624 25.92 28.04C25.92 26.456 27.216 25.16 28.8 25.16C30.384 25.16 31.68 26.456 31.68 28.04C31.68 29.624 30.384 30.92 28.8 30.92ZM28.8 26.6C27.936 26.6 27.36 27.176 27.36 28.04C27.36 28.904 27.936 29.48 28.8 29.48C29.664 29.48 30.24 28.904 30.24 28.04C30.24 27.176 29.664 26.6 28.8 26.6ZM33.84 38.12C33.408 38.12 33.12 37.832 33.12 37.4V35.96C33.12 34.808 32.112 33.8 30.96 33.8H26.64C26.208 33.8 25.92 33.512 25.92 33.08C25.92 32.648 26.208 32.36 26.64 32.36H30.96C32.976 32.36 34.56 33.944 34.56 35.96V37.4C34.56 37.832 34.272 38.12 33.84 38.12ZM5.76 30.92C4.176 30.92 2.88 29.624 2.88 28.04C2.88 26.456 4.176 25.16 5.76 25.16C7.344 25.16 8.64 26.456 8.64 28.04C8.64 29.624 7.344 30.92 5.76 30.92ZM5.76 26.6C4.896 26.6 4.32 27.176 4.32 28.04C4.32 28.904 4.896 29.48 5.76 29.48C6.624 29.48 7.2 28.904 7.2 28.04C7.2 27.176 6.624 26.6 5.76 26.6ZM0.72 38.12C0.288 38.12 0 37.832 0 37.4V35.96C0 33.944 1.584 32.36 3.6 32.36H7.92C8.352 32.36 8.64 32.648 8.64 33.08C8.64 33.512 8.352 33.8 7.92 33.8H3.6C2.448 33.8 1.44 34.808 1.44 35.96V37.4C1.44 37.832 1.152 38.12 0.72 38.12ZM17.28 31.64C14.832 31.64 12.96 29.768 12.96 27.32C12.96 24.872 14.832 23 17.28 23C19.728 23 21.6 24.872 21.6 27.32C21.6 29.768 19.728 31.64 17.28 31.64ZM17.28 24.44C15.696 24.44 14.4 25.736 14.4 27.32C14.4 28.904 15.696 30.2 17.28 30.2C18.864 30.2 20.16 28.904 20.16 27.32C20.16 25.736 18.864 24.44 17.28 24.44ZM24.48 41C24.048 41 23.76 40.712 23.76 40.28V37.4C23.76 36.248 22.752 35.24 21.6 35.24H12.96C11.808 35.24 10.8 36.248 10.8 37.4V40.28C10.8 40.712 10.512 41 10.08 41C9.648 41 9.36 40.712 9.36 40.28V37.4C9.36 35.384 10.944 33.8 12.96 33.8H21.6C23.616 33.8 25.2 35.384 25.2 37.4V40.28C25.2 40.712 24.912 41 24.48 41Z" fill="#674EA7"/>
<path d="M6.548 14H5.12V4.032L11.896 11.13V4.662H13.324V14.574L6.548 7.476V14ZM19.5833 12.012L20.7313 12.656C20.47 13.1227 20.1386 13.482 19.7373 13.734C19.28 14.0327 18.7013 14.182 18.0013 14.182C17.18 14.182 16.5173 13.93 16.0133 13.426C15.4346 12.8473 15.1453 12.096 15.1453 11.172C15.1453 10.2013 15.458 9.394 16.0833 8.75C16.6153 8.218 17.2733 7.952 18.0573 7.952C18.8226 7.952 19.4526 8.20867 19.9473 8.722C20.498 9.29133 20.7733 10.122 20.7733 11.214V11.382H16.5453C16.5826 11.8767 16.7506 12.2733 17.0493 12.572C17.3013 12.824 17.6513 12.95 18.0993 12.95C18.4633 12.95 18.776 12.852 19.0373 12.656C19.252 12.488 19.434 12.2733 19.5833 12.012ZM16.6433 10.262H19.3733C19.3173 9.93533 19.1773 9.66933 18.9533 9.464C18.7106 9.24 18.4026 9.128 18.0293 9.128C17.6373 9.128 17.3153 9.254 17.0633 9.506C16.858 9.69267 16.718 9.94467 16.6433 10.262ZM21.4128 8.106H22.9528L24.4788 11.48L26.1308 7.602L27.7828 11.48L29.3088 8.106H30.8488L27.7828 14.42L26.1308 10.654L24.4788 14.42L21.4128 8.106Z" fill="#674EA7"/>
</svg>
