<svg width="53" height="60" viewBox="0 0 53 60" fill="none" xmlns="http://www.w3.org/2000/svg">
<path d="M5.28799 5.05737C1.13955 9.19409 0.190329 10.2019 0.0965793 10.5652C0.0145481 10.8464 -0.00888942 17.3152 0.00282933 29.1394C0.0379856 49.0847 -0.0206082 47.5964 0.741111 48.4871C1.24502 49.0847 1.88955 49.366 2.94424 49.4246L3.84658 49.4832V49.9285C3.84658 51.2292 4.37392 52.2371 5.33486 52.8113L5.89736 53.1394L16.163 53.1746L26.4286 53.2097L26.4989 54.2527C26.663 56.5378 27.6005 58.1199 29.4286 59.2214C30.7177 59.9832 30.8114 59.9949 39.6942 59.9949C45.0614 59.9949 47.8622 59.948 48.2841 59.866C50.7333 59.3503 52.5731 57.2996 52.831 54.7683C52.9833 53.3855 52.9833 40.0613 52.831 38.7957C52.5497 36.3816 50.8622 34.4128 48.5536 33.8035C47.9911 33.6628 47.0419 33.6277 43.6083 33.6277H39.3544V19.5652V5.50269H40.1044C40.6669 5.50269 40.9247 5.56128 41.1239 5.72534L41.4052 5.948L41.4638 18.3933L41.5224 30.8386L41.8036 31.0613C42.1786 31.366 42.5888 31.3425 42.9286 30.991L43.2216 30.7097V18.3816C43.2216 9.00659 43.1864 5.93628 43.081 5.573C42.8935 4.94019 42.0263 4.073 41.3935 3.8855C41.1239 3.81519 40.5614 3.74487 40.1278 3.74487H39.3544V3.03003C39.3544 1.64722 38.8505 0.768311 37.7841 0.276123L37.1864 -0.00512695H25.9247C14.7099 -0.00512695 14.663 -0.00512695 14.3466 0.240967C14.1239 0.416748 14.0419 0.592529 14.0419 0.873779C14.0419 1.15503 14.1239 1.33081 14.3466 1.50659C14.663 1.75269 14.7099 1.75269 25.8427 1.75269H37.0224L37.3036 2.04565L37.5966 2.3269V17.9832V33.6277H34.5731C32.2763 33.6277 31.3974 33.6746 30.8817 33.8035C28.9599 34.3074 27.413 35.7488 26.7802 37.6472C26.5458 38.3269 26.5341 38.6785 26.4872 43.0378L26.452 47.6902L14.37 47.6667L2.2997 47.6316L2.07705 47.3503C1.85439 47.0808 1.85439 46.6355 1.85439 29.3386V11.5964H5.55752C8.03017 11.5964 9.4247 11.5496 9.71767 11.4558C10.3153 11.28 11.0536 10.6472 11.3817 10.0261C11.6278 9.55737 11.6395 9.42847 11.6747 5.26831C11.6981 2.92456 11.6864 0.885498 11.6395 0.733154C11.5341 0.311279 11.1591 -0.00512695 10.7372 -0.00512695C10.4091 -0.00512695 9.83486 0.522217 5.28799 5.05737ZM9.88174 8.98315C9.84658 9.19409 9.68252 9.46362 9.50674 9.60425C9.22549 9.8269 9.0497 9.83862 6.14345 9.83862H3.08486L6.4833 6.44019L9.88174 3.04175L9.91689 5.81909C9.94033 7.35425 9.91689 8.77222 9.88174 8.98315ZM48.788 35.7371C49.6552 36.1589 50.5224 37.073 50.827 37.8933C51.0731 38.573 51.0731 38.5964 51.0497 46.9636L51.0145 55.366L50.745 55.905C50.3231 56.7722 49.7255 57.3699 48.87 57.7917L48.0849 58.1785H39.706H31.327L30.6708 57.8738C29.3935 57.2644 28.6083 56.2683 28.3388 54.8972C28.245 54.3933 28.2216 51.9089 28.245 46.3425L28.2802 38.491L28.5849 37.8464C29.1122 36.7097 30.0145 35.8894 31.0927 35.5496C31.456 35.4324 33.4247 35.4089 39.8817 35.4207L48.202 35.4441L48.788 35.7371ZM26.4638 50.4441V51.4402H16.5028C5.52236 51.4402 5.99111 51.4753 5.7333 50.7253C5.66299 50.5144 5.60439 50.1511 5.60439 49.905V49.448H16.0341H26.4638V50.4441Z" fill="#008080"/>
<path opacity="0.97" fill-rule="evenodd" clip-rule="evenodd" d="M33.5273 39C33.6641 39 33.8008 39 33.9375 39C34.0371 39.045 34.1348 39.0987 34.2305 39.1611C36.3158 41.2514 38.4057 43.3363 40.5 45.416C42.5943 43.3363 44.6842 41.2514 46.7695 39.1611C46.8652 39.0987 46.9629 39.045 47.0625 39C47.1992 39 47.3359 39 47.4727 39C47.7363 39.0879 47.9121 39.2637 48 39.5273C48 39.6641 48 39.8008 48 39.9375C47.955 40.0371 47.9013 40.1348 47.8389 40.2305C45.7486 42.3158 43.6637 44.4057 41.584 46.5C43.6637 48.5943 45.7486 50.6842 47.8389 52.7695C47.9013 52.8652 47.955 52.9629 48 53.0625C48 53.1992 48 53.3359 48 53.4727C47.9121 53.7363 47.7363 53.9121 47.4727 54C47.3359 54 47.1992 54 47.0625 54C46.9629 53.955 46.8652 53.9013 46.7695 53.8389C44.6842 51.7486 42.5943 49.6637 40.5 47.584C38.4057 49.6637 36.3158 51.7486 34.2305 53.8389C34.1348 53.9013 34.0371 53.955 33.9375 54C33.8008 54 33.6641 54 33.5273 54C33.2637 53.9121 33.0879 53.7363 33 53.4727C33 53.3359 33 53.1992 33 53.0625C33.045 52.9629 33.0987 52.8652 33.1611 52.7695C35.2514 50.6842 37.3363 48.5943 39.416 46.5C37.3363 44.4057 35.2514 42.3158 33.1611 40.2305C33.0987 40.1348 33.045 40.0371 33 39.9375C33 39.8008 33 39.6641 33 39.5273C33.0879 39.2637 33.2637 39.0879 33.5273 39Z" fill="#008080"/>
<path d="M16.3856 5.25657C13.7255 6.10032 13.5145 9.53391 16.0692 10.6003C16.702 10.8698 25.4794 10.8581 26.2411 10.6003C27.3309 10.2136 28.034 9.17063 28.034 7.9636C28.034 6.85032 27.5301 6.00657 26.5223 5.4675C26.0653 5.22141 25.9247 5.20969 21.3661 5.18625C18.788 5.17454 16.5497 5.20969 16.3856 5.25657ZM25.7723 7.08469C26.4169 7.42454 26.5223 8.16282 26.0067 8.67844L25.6669 9.01829H21.2489C16.7489 9.01829 16.5262 8.99485 16.1864 8.56125C15.9403 8.24485 15.9989 7.56516 16.3036 7.29563C16.4442 7.16672 16.6434 7.0261 16.7372 6.99094C16.8309 6.95579 18.8231 6.92063 21.1669 6.92063C24.788 6.90891 25.4676 6.93235 25.7723 7.08469Z" fill="#008080"/>
<path d="M6.90516 16.823C6.58875 17.2332 6.60047 17.491 6.94032 17.8894L7.22157 18.2175L19.3973 18.2527C26.0888 18.2644 31.7372 18.2527 31.9481 18.2175C32.3934 18.1355 32.7919 17.7488 32.7919 17.3855C32.7919 17.2449 32.6864 16.9988 32.5458 16.823L32.3114 16.5183H19.7255H7.13954L6.90516 16.823Z" fill="#008080"/>
<path d="M6.95203 21.9675C6.78796 22.1199 6.65906 22.3894 6.65906 22.5535C6.65906 22.7175 6.78796 22.9871 6.95203 23.1394L7.23328 23.4324H19.7255H32.2177L32.4989 23.1394C32.663 22.9871 32.7919 22.7175 32.7919 22.5535C32.7919 22.3894 32.663 22.1199 32.4989 21.9675L32.2177 21.6746H19.7255H7.23328L6.95203 21.9675Z" fill="#008080"/>
<path d="M6.90516 27.2526C6.58875 27.6628 6.60047 27.9206 6.94032 28.319L7.22157 28.6471L15.12 28.6823C20.3466 28.7057 23.1473 28.6823 23.4286 28.6003C23.6981 28.5182 23.8973 28.3659 23.9794 28.1784C24.1786 27.7565 24.1552 27.6159 23.8739 27.2526L23.6395 26.9479H15.3895H7.13954L6.90516 27.2526Z" fill="#008080"/>
<path d="M26.7098 27.2527C26.3934 27.6628 26.4052 27.9207 26.745 28.3191L27.0263 28.6472L29.2997 28.6824C30.5419 28.7058 31.7372 28.6941 31.9481 28.6472C32.7098 28.5066 33.038 27.7214 32.5575 27.2058C32.3231 26.9597 32.2411 26.948 29.6278 26.948H26.9442L26.7098 27.2527Z" fill="#008080"/>
<path d="M6.95203 32.3972C6.78796 32.5496 6.65906 32.8191 6.65906 32.9832C6.65906 33.1472 6.78796 33.4167 6.95203 33.5691L7.23328 33.8621H12.8466C18.1669 33.8621 18.4833 33.8503 18.7411 33.6394C18.9403 33.4871 19.0106 33.2996 19.0106 32.9832C19.0106 32.6667 18.9403 32.4792 18.7411 32.3269C18.4833 32.116 18.1669 32.1042 12.8466 32.1042H7.23328L6.95203 32.3972Z" fill="#008080"/>
<path d="M7.29187 37.3777C6.98718 37.4949 6.65906 37.9402 6.65906 38.2097C6.65906 38.3152 6.76453 38.5378 6.90515 38.7136L7.13953 39.0183H12.87H18.6005L18.8348 38.7136C19.1512 38.3035 19.1395 38.0457 18.7997 37.6472L18.5184 37.3191L13.0223 37.2957C10.0106 37.2839 7.42078 37.3191 7.29187 37.3777Z" fill="#008080"/>
</svg>
