<svg width="60" height="54" viewBox="0 0 60 54" fill="none" xmlns="http://www.w3.org/2000/svg">
<path d="M11.5078 0.116817C8.35547 0.913692 6.32812 3.81994 6.77344 6.92541C6.9375 7.99182 7.48828 9.26916 8.09766 9.97229C8.46094 10.3824 8.47266 10.4293 8.27344 10.5465C6.49219 11.6129 5.47266 13.0426 5.14453 14.9528C5.07422 15.3395 5.0625 17.6481 5.10938 20.8121L5.17969 26.027L4.6875 31.5348L4.18359 37.0426L2.94141 40.3239L1.71094 43.6051L1.69922 44.7184C1.69922 45.6793 1.74609 45.9254 2.00391 46.4879C2.55469 47.6481 3.41016 48.4567 4.58203 48.8785L5.26172 49.1129L3.42188 49.9332C2.41406 50.3668 1.30078 50.8707 0.960938 51.0231C0.304688 51.3278 0 51.7262 0 52.2887C0 52.6871 0.691406 53.3903 1.08984 53.3903C1.25391 53.3903 3.26953 52.5582 5.57812 51.527C7.89844 50.5074 12.8203 48.3278 16.5234 46.6754C20.2266 45.0348 26.0859 42.4449 29.5312 40.9098C32.9766 39.3864 40.0195 36.2574 45.1758 33.9723C50.332 31.6871 55.6289 29.3434 56.9531 28.7574C59.7305 27.5387 60.0703 27.2809 59.9648 26.5074C59.8828 25.9098 59.4492 25.4996 58.8867 25.4996C58.6523 25.4996 57.8203 25.7926 56.8711 26.2145C55.9805 26.6129 55.0195 27.0348 54.7383 27.152L54.2344 27.3746L54.4805 26.9996C55.4414 25.5465 56.4141 23.0504 56.7305 21.2809C57.0586 19.3824 56.8125 15.6676 56.2969 14.8707C56.2148 14.7301 55.9336 14.5543 55.6875 14.4723C55.0898 14.2965 54.5508 14.566 54.3047 15.1285C54.1641 15.4684 54.1641 15.6324 54.3047 16.3238C54.7266 18.3043 54.6328 20.3434 54.0586 22.3239C52.957 26.1559 49.9219 29.3199 46.125 30.609C43.6055 31.4645 40.5 31.4528 38.0508 30.5739C30.3984 27.8434 27.3281 18.7731 31.7812 12.0231C33.4805 9.44494 36.0703 7.59338 39.1172 6.78479C40.1133 6.51525 40.4883 6.4801 42.1289 6.4801C43.7812 6.4801 44.1445 6.51525 45.1641 6.78479C45.7969 6.96057 46.9219 7.38244 47.6719 7.74572C48.4102 8.09729 49.1602 8.39025 49.3359 8.39025C49.5234 8.39025 49.8281 8.24963 50.0273 8.08557C50.332 7.82775 50.3906 7.69885 50.3906 7.26525C50.3906 6.59729 50.1797 6.37463 48.9258 5.7301C46.7344 4.6051 44.707 4.12463 42.1289 4.12463C38.0625 4.12463 34.6172 5.53088 31.7578 8.39025C30.5039 9.63244 29.6367 10.8395 28.8867 12.3512C28.4648 13.2067 28.2539 13.8043 27.7031 15.6207C27.6797 15.7262 27.5742 15.7262 27.2695 15.5973C27.0469 15.5035 25.8984 15.2692 24.7031 15.0582L22.5234 14.6832L21.3164 13.5817C19.957 12.3512 18.3633 11.2262 17.5312 10.9098C17.2383 10.7926 16.9922 10.6754 16.9922 10.6403C16.9922 10.6051 17.2031 10.3473 17.4727 10.066C18.1523 9.32775 18.7266 8.05041 18.8906 6.92541C19.2891 4.06604 17.5195 1.21838 14.7656 0.304317C13.8281 -0.0120888 12.3516 -0.09412 11.5078 0.116817ZM14.3555 2.63635C15.082 2.96447 15.8789 3.73791 16.2539 4.51135C16.5352 5.06213 16.582 5.30822 16.582 6.1051C16.5703 7.2301 16.3242 7.87463 15.5859 8.6715C14.8359 9.4801 13.9922 9.84338 12.832 9.84338C12.0469 9.84338 11.7891 9.7965 11.2383 9.52697C10.4648 9.15197 9.69141 8.36682 9.33984 7.59338C9 6.83166 8.98828 5.39025 9.33984 4.62854C9.80859 3.58557 10.7695 2.75354 11.8359 2.44885C12.5156 2.24963 13.6875 2.34338 14.3555 2.63635ZM14.6602 12.4332C16.7812 12.8785 17.9766 13.6403 21.0469 16.4996C21.375 16.8043 21.6328 16.8746 23.8711 17.2848C25.2188 17.5309 26.4492 17.8004 26.5898 17.8707C27.5977 18.4098 27.4922 20.1559 26.4258 20.6598C26.0391 20.8473 25.9102 20.8473 24.0234 20.6012L22.0312 20.3434L20.2734 19.4645C19.2656 18.9606 18.375 18.5856 18.1641 18.5856C17.9414 18.5856 17.6719 18.7145 17.4375 18.9254L17.0508 19.2653L17.0859 22.3824L17.1328 25.4996H12.3281H7.53516L7.44141 20.6012C7.35938 15.5035 7.38281 15.0465 7.85156 14.1442C8.14453 13.5465 9.14062 12.6676 9.76172 12.4567C10.4531 12.2106 13.5234 12.1988 14.6602 12.4332ZM20.4141 22.1715C21.1641 22.5465 21.4805 22.6285 23.3672 22.8864C25.6758 23.2028 26.5195 23.191 27.3281 22.8395L27.8438 22.6051L28.0547 23.3199C29.0625 26.777 32.1445 30.3746 35.5664 32.0973C36.4805 32.5543 38.1211 33.0934 39.293 33.3278L40.3477 33.5504L32.1562 37.1832C27.6562 39.1871 23.9531 40.8043 23.9297 40.7926C23.9062 40.7692 24.1641 39.3981 24.4922 37.7223C25.1484 34.3356 25.207 33.4449 24.8438 32.2731C24.5039 31.1832 23.9531 30.4918 21.5742 28.2184L19.4531 26.1793V23.9645C19.4531 22.7457 19.4766 21.7496 19.5117 21.7496C19.5469 21.7496 19.957 21.9371 20.4141 22.1715ZM20.0859 30.0348C22.4766 32.402 22.7227 32.7653 22.7344 33.8082C22.7344 34.6754 21.5977 40.5582 21.3047 41.1793C20.6719 42.5153 18.8203 42.7379 17.8242 41.6129C17.1562 40.8512 17.1445 40.6168 17.6367 37.6637C17.8945 36.1637 18.0469 34.8864 18 34.7106C17.9414 34.4879 16.8164 33.527 13.8047 31.1246L9.69141 27.8434H13.7812H17.8711L20.0859 30.0348ZM11.5312 32.3082C11.5781 32.3551 11.332 34.0192 10.9688 36.0114L10.3125 39.6442L9.12891 42.6793C8.47266 44.3434 7.86328 45.8317 7.76953 45.9723C7.34766 46.6051 6.23438 46.9684 5.47266 46.7223C4.59375 46.4293 3.98438 45.609 3.98438 44.7418C3.98438 44.4489 4.41797 43.1246 5.21484 41.0153L6.45703 37.7457L6.85547 33.4098C7.07812 31.0192 7.26562 29.027 7.26562 28.9801C7.26562 28.9098 10.875 31.734 11.5312 32.3082ZM15.5625 35.5309C15.5859 35.5426 15.4336 36.5856 15.2344 37.8278C14.8945 39.8199 14.8594 40.1715 14.9766 40.8278C15.1406 41.8356 15.6094 42.7379 16.2891 43.4059L16.8633 43.9684L13.4414 45.4801C11.5547 46.3004 9.97266 47.0035 9.92578 47.0387C9.86719 47.0621 9.91406 46.9215 10.0195 46.7106C10.125 46.4996 10.7461 44.9762 11.3906 43.3356C12.5273 40.4059 12.5625 40.2653 13.0195 37.8043C13.2773 36.4215 13.5352 35.0153 13.6055 34.6754L13.7227 34.066L14.625 34.7809C15.1172 35.1676 15.5508 35.5074 15.5625 35.5309Z" fill="#FFC107"/>
<path d="M52.4649 9.80823C52.3594 9.86682 52.1836 10.0895 52.0782 10.2887C51.6797 11.0621 52.2305 11.9645 53.1094 11.9645C53.7305 11.9645 54.2578 11.4137 54.2578 10.7809C54.2578 10.1832 53.7305 9.67932 53.1211 9.67932C52.875 9.67932 52.5821 9.73792 52.4649 9.80823Z" fill="#FFC107"/>
<path d="M41.2149 10.6286C40.043 10.8981 38.8945 11.8239 38.3672 12.9254C37.9922 13.6754 37.8633 14.8356 38.0977 15.2575C38.2852 15.609 38.7656 15.8903 39.1875 15.8903C39.6328 15.8903 40.1719 15.3629 40.2539 14.859C40.3945 13.9801 40.4531 13.8512 40.875 13.4176C41.6367 12.6559 42.7031 12.6794 43.4766 13.4879C43.8164 13.8395 43.875 13.9919 43.9219 14.5661C43.9805 15.3981 43.6992 15.8786 42.8555 16.4294C42.0234 16.9801 41.7539 17.2731 41.3672 18.0465C41.0391 18.6911 41.0156 18.8317 41.0156 20.0387C41.0156 21.5153 41.1094 21.7614 41.7656 21.984C42.082 22.0895 42.2578 22.0778 42.5977 21.9372C43.1602 21.7028 43.3594 21.1989 43.3594 20.027C43.3594 18.9723 43.4297 18.8669 44.4492 18.1872C45.2344 17.6598 45.7266 17.0387 46.0664 16.1247C46.3945 15.2458 46.3359 13.734 45.9375 12.9606C44.9883 11.109 43.1133 10.1833 41.2149 10.6286Z" fill="#FFC107"/>
<path d="M41.7187 24.9254C40.5702 25.3824 40.9218 27.1403 42.164 27.1403C43.371 27.1403 43.7226 25.441 42.6093 24.9723C42.1405 24.7731 42.1171 24.7731 41.7187 24.9254Z" fill="#FFC107"/>
</svg>
