<svg width="143" height="30" viewBox="0 0 143 30" fill="none" xmlns="http://www.w3.org/2000/svg">
<path d="M14.6942 29.8125C22.2573 29.8125 28.3884 23.6844 28.3884 16.125C28.3884 8.5656 22.2573 2.4375 14.6942 2.4375C7.13109 2.4375 1 8.5656 1 16.125C1 23.6844 7.13109 29.8125 14.6942 29.8125Z" stroke="#B2B3B3" stroke-width="0.3" stroke-linecap="round" stroke-linejoin="round"/>
<path fill-rule="evenodd" clip-rule="evenodd" d="M14.6007 29.9062V30C14.6007 29.9375 14.6007 29.9062 14.6007 29.9062ZM8.03496 21.1875L1.46926 12.4688C1.40673 12.4688 1.40673 12.4375 1.46926 12.375C1.46926 12.3125 1.50053 12.2812 1.56306 12.2812H27.9197V12.4688L28.0135 12.5625L27.9197 12.375C27.9822 12.375 28.0135 12.4063 28.0135 12.4688C28.0135 12.5313 27.9822 12.5625 27.9197 12.5625L21.354 21.2812L21.1664 21.0937L27.6383 12.6563H1.75065L8.22256 21.0937L14.6945 29.7187L21.1664 21.0937C21.1664 21.1562 21.1664 21.2187 21.1664 21.2812C21.2602 21.2812 21.354 21.2812 21.354 21.2812L14.7883 30L14.6007 29.8125C14.5381 29.8125 14.5381 29.8437 14.6007 29.9062L8.03496 21.1875ZM14.6945 12.5625C14.757 12.5625 14.7883 12.5313 14.7883 12.4688C14.7883 12.375 14.7883 12.375 14.6945 12.375V12.5625ZM14.6007 29.9062H14.7883C14.7883 29.9062 14.6945 29.9062 14.6007 29.9062Z" fill="#B2B3B3"/>
<path fill-rule="evenodd" clip-rule="evenodd" d="M10.0981 18.0937H10.0043L5.50214 9.65625C5.40834 9.5625 5.50214 9.5625 5.50214 9.46875C5.56467 9.46875 5.59593 9.46875 5.59593 9.46875H23.7923L23.8861 9.5625L23.9799 9.65625L23.8861 9.46875L23.9799 9.5625C23.9174 9.625 23.9174 9.65625 23.9799 9.65625L19.3839 18.0937L19.1963 18L23.6047 9.75H5.78352L10.2857 18C10.1919 17.9062 10.1919 17.9062 10.0981 17.9062C10.0043 18 10.0043 18 10.0043 18.0937L10.2857 18L14.6941 26.25L19.1963 18C19.1963 18 19.1963 18.0937 19.1963 18.1875C19.2588 18.1875 19.3214 18.1875 19.3839 18.1875L14.7879 26.5312L14.6003 26.4375C14.6003 26.4375 14.6003 26.4687 14.6003 26.5312L10.0981 18.0937ZM19.3839 18.0937V18V18.0937ZM14.6003 26.5312H14.8817C14.7879 26.5312 14.7879 26.625 14.6941 26.5312C14.6941 26.5312 14.6629 26.5312 14.6003 26.5312Z" fill="#B2B3B3"/>
<path fill-rule="evenodd" clip-rule="evenodd" d="M10.286 14.3438H19.1028L14.6944 22.7812L10.286 14.3438ZM10.0046 14.25C9.91078 14.25 10.0046 14.1562 10.0046 14.1562C10.0046 14.1562 10.0358 14.1562 10.0984 14.1562H19.2904V14.25H19.3842L19.2904 14.1562C19.3529 14.1562 19.3842 14.1875 19.3842 14.25L17.0393 18.75L14.7882 23.1562L14.6006 23.0625C14.6006 23.0625 14.6006 23.0937 14.6006 23.1562L12.2557 18.75L10.0046 14.25ZM14.6006 23.0625H14.6944C14.6318 23.0625 14.6006 23.0625 14.6006 23.0625ZM14.6006 23.0625L14.7882 23.1562C14.7882 23.1562 14.6944 23.1562 14.6006 23.1562C14.6006 23.1562 14.6006 23.125 14.6006 23.0625Z" fill="#B2B3B3"/>
<path fill-rule="evenodd" clip-rule="evenodd" d="M6.72146 6.28125C6.65893 6.21875 6.65893 6.15625 6.72146 6.09375C6.72146 6.09375 6.75272 6.09375 6.81525 6.09375H22.573C22.698 6.09375 22.7605 6.125 22.7605 6.1875C22.7605 6.1875 22.7293 6.21875 22.6668 6.28125L18.7273 12.1875L18.5397 12L22.3854 6.375H7.00285L10.8485 12C10.8485 12 10.7547 12 10.6609 12L10.5671 12.0937L6.72146 6.28125ZM18.6335 12V12.0937C18.6335 12.0312 18.6335 12 18.6335 12ZM18.6335 12.1875C18.7273 12.1875 18.8211 12.1875 18.8211 12.1875L14.8817 18L14.6941 17.9062C14.6316 17.9687 14.6316 18 14.6941 18L10.6609 12.1875L10.9423 12L14.7879 17.7187L18.6335 12.0937C18.6335 12.1562 18.6335 12.1875 18.6335 12.1875ZM14.8817 18C14.7879 18.0937 14.7879 18.0937 14.6941 18.0937C14.6941 18.0937 14.6941 18.0625 14.6941 18H14.8817Z" fill="#B2B3B3"/>
<path fill-rule="evenodd" clip-rule="evenodd" d="M12.912 17.8125L13.0995 17.7187C13.0995 17.625 13.0058 17.625 13.0058 17.7187C12.912 17.7187 12.912 17.7187 12.912 17.8125L11.2236 15.8438C11.2236 15.75 11.2236 15.6563 11.3174 15.6563C11.3174 15.5938 11.3487 15.5625 11.4112 15.5625H18.0707V15.75L18.1645 15.8438L16.4762 17.8125L14.7879 19.875L14.6003 19.7812C14.5377 19.7812 14.5377 19.8125 14.6003 19.875L12.912 17.8125ZM14.6941 19.875C14.6941 19.875 14.6315 19.875 14.5065 19.875H14.6941ZM16.1948 17.625L17.6955 15.8438H11.5988L13.0995 17.625L14.6003 19.5937L16.1948 17.625ZM18.0707 15.75L17.9769 15.5625L18.0707 15.6563C18.0707 15.7188 18.0707 15.75 18.0707 15.75Z" fill="#B2B3B3"/>
<path fill-rule="evenodd" clip-rule="evenodd" d="M8.0347 11.0625L14.6004 2.4375C14.6004 2.375 14.6004 2.34375 14.6004 2.34375C14.6942 2.34375 14.6942 2.34375 14.788 2.4375L21.3537 11.0625C21.3537 11.0625 21.3537 10.9687 21.2599 11.0625C21.1661 11.0625 21.1661 11.1562 21.1661 11.1562L14.6942 2.625L1.84418 19.6875H27.638L21.2599 11.25L21.4475 11.0625L28.0132 19.6875C28.0757 19.6875 28.107 19.7187 28.107 19.7812C28.107 19.9062 28.0445 19.9687 27.9194 19.9687H1.56279V19.7812H1.46899L8.0347 11.0625ZM1.56279 19.9687V19.875C1.56279 19.875 1.56279 19.9062 1.56279 19.9687ZM1.56279 19.7812V19.875C1.50026 19.875 1.50026 19.8437 1.56279 19.7812ZM14.9756 19.7812C14.9756 19.7187 14.9131 19.6875 14.788 19.6875V19.9687C14.9131 19.9687 14.9756 19.9062 14.9756 19.7812ZM21.2599 11.25C21.2599 11.1875 21.2599 11.1562 21.2599 11.1562V11.25Z" fill="#B2B3B3"/>
<path fill-rule="evenodd" clip-rule="evenodd" d="M24.5427 23.0625C24.6053 23.0625 24.6053 23.0937 24.5427 23.1562C24.5427 23.1562 24.5427 23.25 24.449 23.25H4.93944C4.93944 23.25 4.90817 23.2187 4.84564 23.1562C4.84564 23.1562 4.75185 23.0625 4.84564 23.0625L9.72302 14.625C9.72302 14.625 9.72302 14.7187 9.81682 14.7187C9.81682 14.7812 9.84808 14.7812 9.91061 14.7187L5.12703 23.0625H24.2614L14.6942 6.375L9.91061 14.7187L9.72302 14.5312L14.6004 6.09375C14.6004 6.09375 14.6004 6.0625 14.6004 6C14.6942 6 14.788 6 14.788 6.09375L24.5427 23.0625ZM10.0044 14.7187H9.91061C9.91061 14.7187 9.94188 14.7187 10.0044 14.7187ZM9.72302 14.625C9.72302 14.625 9.72302 14.5937 9.72302 14.5312V14.625Z" fill="#B2B3B3"/>
<path fill-rule="evenodd" clip-rule="evenodd" d="M14.6004 12.4688C14.6004 12.4688 14.6317 12.4375 14.6942 12.375C14.6942 12.375 14.788 12.375 14.788 12.4688L18.1647 19.5C18.0709 19.3125 18.0709 19.3125 17.9771 19.4062C17.9771 19.4062 17.9458 19.4062 17.8833 19.4062L14.788 12.75L11.5052 19.5L8.22231 26.3437H21.1661L17.9771 19.5L18.1647 19.4062L21.5413 26.4375C21.5413 26.5312 21.4475 26.5312 21.3537 26.5312H7.94092V26.4375L11.2238 19.5L14.6004 12.4688ZM17.9771 19.5L17.8833 19.4062C17.8833 19.4062 17.9145 19.4375 17.9771 19.5Z" fill="#B2B3B3"/>
<path fill-rule="evenodd" clip-rule="evenodd" d="M12.4433 13.875L12.2557 13.6875L14.6006 9.5625L14.6944 9.65625C14.7882 9.65625 14.882 9.65625 14.882 9.65625L17.1331 13.7812C17.1331 13.7812 17.1018 13.7812 17.0393 13.7812L16.9455 13.875L14.6944 9.84375L12.4433 13.875ZM17.1331 13.7812L19.3842 17.9062C19.4467 17.9062 19.4779 17.9375 19.4779 18C19.4779 18.0625 19.4467 18.0937 19.3842 18.0937H10.1922C10.1296 18.1562 10.0671 18.1562 10.0046 18.0937C10.0046 18.0937 9.91078 18 10.0046 18V17.9062L12.2557 13.875C12.2557 13.875 12.2557 13.8437 12.2557 13.7812L12.4433 13.875C12.4433 13.9375 12.4433 13.9687 12.4433 13.9687L10.286 17.9062H14.6944V18.0937C14.8194 18.0937 14.882 18.0625 14.882 18C14.882 17.9375 14.8194 17.9062 14.6944 17.9062H19.1966L16.9455 13.9687L17.1331 13.875C17.1331 13.875 17.1331 13.8437 17.1331 13.7812Z" fill="#B2B3B3"/>
<path d="M43.4896 10.3125H42.5517V25.6875L39.3626 22.6875V21.75C39.0499 22.125 38.706 22.5 38.3308 22.875C37.9557 23.25 37.4867 23.5937 36.9239 23.9062C36.4237 24.2812 35.8609 24.5937 35.2356 24.8437C34.6103 25.1562 33.9537 25.4062 33.2659 25.5937C32.578 25.7812 31.9215 25.875 31.2962 25.875C30.4207 25.875 29.6078 25.6875 28.8575 25.3125C28.1071 24.9375 27.5131 24.4375 27.0753 23.8125C26.5751 23.25 26.2312 22.5625 26.0436 21.75C25.7935 20.9375 25.7622 20.0937 25.9498 19.2187C26.0749 18.3437 26.2937 17.4687 26.6064 16.5937C26.9816 15.7187 27.4193 14.8437 27.9195 13.9687C28.4198 13.1562 28.92 12.3437 29.4202 11.5312C29.7329 11.0312 29.983 10.625 30.1706 10.3125H25.7622L27.5443 7.21875H34.11C34.11 7.21875 34.0162 7.40625 33.8286 7.78125C33.6411 8.15625 33.3909 8.59375 33.0783 9.09375C32.7656 9.65625 32.3904 10.3125 31.9527 11.0625C31.5775 11.75 31.2336 12.4375 30.921 13.125C30.0455 14.875 29.4828 16.4375 29.2327 17.8125C28.9825 19.1875 28.9513 20.2812 29.1389 21.0937C29.3264 21.7187 29.7016 22.1875 30.2644 22.5C30.8897 22.875 31.7339 22.9687 32.7969 22.7812C33.8599 22.6562 35.0793 22.0937 36.4549 21.0937C37.0802 20.7187 37.643 20.3125 38.1433 19.875C38.581 19.4375 38.9874 19.0312 39.3626 18.6562V10.3125H36.8301L38.6122 7.21875H45.3655L43.4896 10.3125Z" fill="#3F3F3E"/>
<path d="M58.2154 7.40625C58.7781 7.46875 59.3096 7.65625 59.8099 7.96875C60.3101 8.34375 60.7166 8.78125 61.0292 9.28125C61.3419 9.71875 61.5607 10.2187 61.6858 10.7812C61.8109 11.3437 61.8109 11.875 61.6858 12.375C61.5607 12.9375 61.3106 13.375 60.9354 13.6875C60.5603 14 59.9975 14.1875 59.2471 14.25C58.8719 14.25 58.4967 14.1875 58.1216 14.0625C57.8089 13.875 57.5275 13.6562 57.2774 13.4062C57.0898 13.1562 56.9335 12.8125 56.8084 12.375C56.6834 12.0625 56.6834 11.7187 56.8084 11.3437C56.4958 11.4062 56.1206 11.5312 55.6829 11.7187C55.2452 11.9687 54.8074 12.25 54.3697 12.5625C53.807 12.8125 53.3067 13.0937 52.869 13.4062C52.3688 13.7812 51.8998 14.0937 51.4621 14.3437V25.6875L48.273 22.6875V10.4062H45.6467L47.4288 7.21875H51.4621V12.4687C52.0248 11.8437 52.5564 11.2187 53.0566 10.5937C53.6194 9.96875 54.1196 9.46875 54.5573 9.09375C54.7449 8.90625 54.995 8.71875 55.3077 8.53125C55.5578 8.34375 55.8392 8.15625 56.1519 7.96875C56.527 7.78125 56.871 7.625 57.1836 7.5C57.5588 7.375 57.9027 7.34375 58.2154 7.40625Z" fill="#3F3F3E"/>
<path d="M80.8199 10.3125H79.8819V25.6875L76.7867 22.6875V21.75C76.4115 22.125 76.0363 22.5 75.6611 22.875C75.3485 23.25 74.8795 23.5937 74.2542 23.9062C73.7539 24.2812 73.1912 24.5937 72.5659 24.8437C71.9405 25.1562 71.284 25.4062 70.5961 25.5937C69.9083 25.7812 69.2517 25.875 68.6264 25.875C67.751 25.875 66.9381 25.6875 66.1877 25.3125C65.4999 24.9375 64.9059 24.4375 64.4056 23.8125C63.9054 23.25 63.5615 22.5625 63.3739 21.75C63.1863 20.9375 63.155 20.0937 63.2801 19.2187C63.4051 18.3437 63.6553 17.4687 64.0304 16.5937C64.4056 15.7187 64.8433 14.8437 65.3436 13.9687C65.8438 13.1562 66.3441 12.3437 66.8443 11.5312C67.0944 11.0312 67.3446 10.625 67.5947 10.3125H63.1863L64.8746 7.21875H71.5341C71.5341 7.21875 71.4403 7.40625 71.2527 7.78125C71.0026 8.15625 70.7212 8.59375 70.4085 9.09375C70.0959 9.65625 69.752 10.3125 69.3768 11.0625C68.9391 11.75 68.5639 12.4375 68.2513 13.125C67.4384 14.875 66.9068 16.4375 66.6567 17.8125C66.4066 19.1875 66.3753 20.2812 66.5629 21.0937C66.7505 21.7187 67.1257 22.1875 67.6885 22.5C68.3138 22.875 69.1267 22.9687 70.1272 22.7812C71.1902 22.6562 72.4408 22.0937 73.879 21.0937C74.4418 20.7187 74.9733 20.3125 75.4735 19.875C75.9738 19.4375 76.4115 19.0312 76.7867 18.6562V10.3125H74.1604L75.9425 7.21875H82.6958L80.8199 10.3125Z" fill="#3F3F3E"/>
<path d="M95.8274 25.7812L87.3858 16.9687V25.6875L84.2905 22.6875V0L87.3858 3V12.4687C87.761 12.2187 88.1049 11.9375 88.4175 11.625C88.7927 11.3125 89.1679 11 89.5431 10.6875C89.8557 10.375 90.1684 10.0937 90.481 9.84374C90.7937 9.59374 91.0438 9.37499 91.2314 9.18749C91.419 8.99999 91.6379 8.78124 91.888 8.53124C92.2006 8.28124 92.5133 8.03124 92.8259 7.78124C93.1386 7.59374 93.4512 7.43749 93.7639 7.31249C94.0766 7.18749 94.3267 7.18749 94.5143 7.31249C94.8269 7.43749 95.1083 7.62499 95.3584 7.87499C95.6711 8.18749 95.9837 8.53124 96.2964 8.90624C96.5465 9.28124 96.7966 9.65624 97.0468 10.0312C97.3594 10.4062 97.5783 10.7812 97.7033 11.1562L95.4522 13.5937C95.2646 13.3437 95.077 13.0937 94.8895 12.8437C94.7019 12.5312 94.483 12.25 94.2329 12C93.9828 11.75 93.7326 11.5625 93.4825 11.4375C93.2324 11.3125 93.0135 11.2812 92.8259 11.3437C92.5758 11.4062 92.2944 11.5312 91.9818 11.7187C91.6066 11.9062 91.2314 12.125 90.8562 12.375C90.4185 12.5625 89.9808 12.8125 89.5431 13.125C89.1679 13.375 88.7615 13.625 88.3237 13.875L97.9847 23.4375L95.8274 25.7812Z" fill="#3F3F3E"/>
<path d="M117.401 10.3125H116.463V25.6875L113.367 22.6875V21.75C112.992 22.125 112.617 22.5 112.242 22.875C111.867 23.25 111.398 23.5937 110.835 23.9062C110.272 24.2812 109.678 24.5937 109.053 24.8437C108.428 25.1562 107.771 25.4062 107.083 25.5937C106.458 25.7812 105.832 25.875 105.207 25.875C104.269 25.875 103.456 25.6875 102.768 25.3125C102.081 24.9375 101.487 24.4375 100.986 23.8125C100.424 23.25 100.08 22.5625 99.9546 21.75C99.7045 20.9375 99.6732 20.0937 99.8608 19.2187C99.9859 18.3437 100.236 17.4687 100.611 16.5937C100.924 15.7187 101.33 14.8437 101.831 13.9687C102.331 13.1562 102.862 12.3437 103.425 11.5312C103.675 11.0312 103.894 10.625 104.082 10.3125H99.767L101.455 7.21875H108.021C108.021 7.21875 107.927 7.40625 107.74 7.78125C107.552 8.15625 107.302 8.59375 106.989 9.09375C106.677 9.65625 106.333 10.3125 105.958 11.0625C105.52 11.75 105.145 12.4375 104.832 13.125C103.957 14.875 103.425 16.4375 103.237 17.8125C102.987 19.1875 102.956 20.2812 103.144 21.0937C103.269 21.7187 103.613 22.1875 104.175 22.5C104.863 22.875 105.707 22.9687 106.708 22.7812C107.771 22.6562 108.99 22.0937 110.366 21.0937C110.991 20.7187 111.554 20.3125 112.054 19.875C112.555 19.4375 112.992 19.0312 113.367 18.6562V10.3125H110.741L112.523 7.21875H119.183L117.401 10.3125Z" fill="#3F3F3E"/>
<path d="M124.341 25.7812L121.152 22.6875V0L124.341 3V25.7812Z" fill="#3F3F3E"/>
<path d="M22.4794 10.3125H20.6035V25.6875L17.3206 22.6875V10.4062H12.7246L12.8184 20.625C12.8184 21 12.7871 21.2812 12.7246 21.4687C12.537 22.0312 12.1618 22.3125 11.5991 22.3125C11.0988 22.25 10.0983 21.5312 8.5976 20.1562C7.09687 18.7812 6.3465 17.875 6.3465 17.4375C6.3465 17.0625 6.53409 16.7812 6.90927 16.5937C7.00307 16.5 7.19066 16.4062 7.47205 16.4062H9.53556L9.44176 10.4062H3.72021L5.50234 7.3125H24.2615L22.4794 10.3125Z" fill="#4F46E5"/>
<path fill-rule="evenodd" clip-rule="evenodd" d="M130.532 7.3125C130.97 7.3125 131.439 7.3125 131.939 7.3125C132.814 7.25 133.69 7.25 134.565 7.3125C135.503 7.3125 136.41 7.40625 137.285 7.59375C138.161 7.65625 138.973 7.84375 139.724 8.15625C140.412 8.46875 140.974 8.90625 141.412 9.46875C141.85 9.96875 142.069 10.625 142.069 11.4375V25.7812L139.818 23.625C139.442 24.25 138.786 24.75 137.848 25.125C136.972 25.5 136.003 25.75 134.94 25.875C133.815 25.9375 132.689 25.875 131.564 25.6875C130.375 25.5 129.375 25.125 128.562 24.5625C127.687 24 127.061 23.2812 126.686 22.4062C126.248 21.4687 126.248 20.3125 126.686 18.9375C126.874 18.1875 127.249 17.5625 127.812 17.0625C128.312 16.5625 128.906 16.125 129.594 15.75C130.219 15.375 130.907 15.0937 131.657 14.9062C132.47 14.6562 133.252 14.375 134.002 14.0625C135.44 13.4375 136.472 12.9062 137.098 12.4687C137.723 12.0312 138.035 11.6875 138.035 11.4375C138.035 11.1875 137.817 11 137.379 10.875C136.941 10.75 136.347 10.6562 135.597 10.5937C134.909 10.4687 134.159 10.4375 133.346 10.5C132.971 10.5 128.281 10.5 128.187 10.5L128.75 9.65625L129.312 8.90625L130.532 7.3125ZM138.973 14.5312C138.536 14.8437 138.035 15.1562 137.473 15.4687C136.91 15.6562 136.316 15.9062 135.691 16.2187C135.128 16.4062 134.503 16.625 133.815 16.875C131.751 17.625 128.375 19.6875 129.969 22.3125C130.344 22.9375 130.844 23.3437 131.47 23.5312C132.158 23.7187 132.939 23.7812 133.815 23.7187C134.628 23.5937 135.409 23.3437 136.16 22.9687C136.91 22.5312 137.566 22.0312 138.129 21.4687C138.63 20.9062 138.88 20.3125 138.88 19.6875L138.973 14.5312Z" fill="#3F3F3E"/>
</svg>
