<svg width="16" height="16" viewBox="0 0 16 18" fill="none" xmlns="http://www.w3.org/2000/svg">
<path fill-rule="evenodd" clip-rule="evenodd" d="M10.6877 11.2858H5.02611C3.35983 11.3685 1.88353 12.3863 1.21364 13.9143C0.40565 15.5005 2.01819 17 3.89359 17H11.8203C13.6968 17 15.3094 15.5005 14.5002 13.9143C13.8304 12.3863 12.3541 11.3685 10.6877 11.2858Z" stroke="#3F3F3E" stroke-linecap="round" stroke-linejoin="round"/>
<path fill-rule="evenodd" clip-rule="evenodd" d="M11.2847 4.42851C11.2847 6.32202 9.74977 7.85702 7.8562 7.85702C5.96275 7.85702 4.42773 6.32202 4.42773 4.42851C4.42773 2.535 5.96275 1 7.8562 1C8.76556 1 9.63765 1.36122 10.2806 2.00419C10.9236 2.64716 11.2847 3.51921 11.2847 4.42851Z" stroke="#3F3F3E" stroke-linecap="round" stroke-linejoin="round"/>
</svg>
