<svg width="160" height="164" viewBox="0 0 160 164" fill="none" xmlns="http://www.w3.org/2000/svg">
<path fill-rule="evenodd" clip-rule="evenodd" d="M79.9998 163.999C123.946 163.999 159.792 128.152 159.792 84.2063C159.792 40.2604 123.946 4.42285 79.9998 4.42285C36.0538 4.42285 0.207031 40.2607 0.207031 84.2063C0.207031 128.152 36.0538 163.999 79.9998 163.999Z" fill="#FEE262"/>
<path fill-rule="evenodd" clip-rule="evenodd" d="M79.9991 110.465L117.535 130.622C123.545 133.845 127.041 139.692 127.041 146.52V148.654C113.848 158.297 97.5958 163.999 79.9991 163.999C62.4117 163.999 46.1497 158.297 32.957 148.654V146.52C32.957 139.693 36.4526 133.845 42.4636 130.622L79.9991 110.465Z" fill="#4F46E5"/>
<path fill-rule="evenodd" clip-rule="evenodd" d="M101.473 161.075L106.812 124.856L79.9999 110.465L53.1875 124.856L58.5262 161.075C65.5188 163.017 72.7427 164 79.9999 163.999C87.2571 164.002 94.4811 163.018 101.473 161.075Z" fill="#281FBA"/>
<path d="M29.2148 32.4609H33.2553V82.1725H29.2148V32.4609Z" fill="#0F0C39"/>
<path fill-rule="evenodd" clip-rule="evenodd" d="M112.15 52.5273C112.15 52.5273 115.173 64.8757 115.346 74.7183H44.6602C44.8235 64.8757 47.8473 52.5273 47.8473 52.5273H112.15Z" fill="#442A19"/>
<path fill-rule="evenodd" clip-rule="evenodd" d="M66.5703 98.0713H93.4282V125.474H66.5703V98.0713Z" fill="#F6C9AA"/>
<path fill-rule="evenodd" clip-rule="evenodd" d="M49.6906 64.2588H110.307C114.511 64.2588 117.952 67.6909 117.952 71.8947C117.952 76.0988 114.511 79.5399 110.307 79.5399H49.6906C45.4868 79.5399 42.0547 76.0988 42.0547 71.8947C42.0547 67.6909 45.4868 64.2588 49.6906 64.2588Z" fill="#F3AB7D"/>
<path fill-rule="evenodd" clip-rule="evenodd" d="M36.027 93.0865L34.1929 82.1729H28.2822L26.457 93.0865H36.027Z" fill="#F29506"/>
<path d="M77.9844 126.881C77.9844 125.764 78.8832 124.856 80.0001 124.856C81.117 124.856 82.0248 125.765 82.0248 126.881V149.172C82.0248 150.289 81.1167 151.197 80.0001 151.197C78.8835 151.197 77.9844 150.289 77.9844 149.172V126.881Z" fill="#064B78"/>
<path fill-rule="evenodd" clip-rule="evenodd" d="M93.4282 114.696C89.2968 116.458 84.757 117.438 79.9994 117.438C75.2418 117.438 70.7017 116.458 66.5703 114.696V98.0713H93.4282V114.696Z" fill="#F3AB7D"/>
<path fill-rule="evenodd" clip-rule="evenodd" d="M56.0925 51.4287H103.906V59.1918C103.906 61.3802 105.141 63.2867 106.948 64.2582V83.017C106.948 97.8442 94.8173 109.965 79.9993 109.965C65.1813 109.965 53.0508 97.8439 53.0508 83.017V64.2582C54.8577 63.2867 56.0925 61.3799 56.0925 59.1918V51.4287Z" fill="#F6C9AA"/>
<path fill-rule="evenodd" clip-rule="evenodd" d="M87.726 2.18014L134.114 29.7735C134.299 29.8808 134.452 30.0362 134.556 30.2233C134.66 30.4103 134.711 30.622 134.705 30.8359C134.705 31.2809 134.478 31.6531 134.087 31.8709L94.9538 53.5897H65.0453L25.9201 31.8709C25.5296 31.6531 25.3028 31.2805 25.2936 30.8359C25.2868 30.622 25.3381 30.4103 25.4421 30.2232C25.546 30.0361 25.6987 29.8807 25.8839 29.7735L72.2722 2.18014C77.1663 -0.725412 82.8409 -0.725412 87.726 2.18014Z" fill="#281FBA"/>
<path fill-rule="evenodd" clip-rule="evenodd" d="M112.15 33.0608V53.5899H47.8477V33.0608C47.8477 30.2186 49.5908 27.8035 52.3147 26.8592C70.111 20.7396 89.8868 20.7396 107.683 26.8592C110.407 27.8035 112.15 30.2186 112.15 33.0608Z" fill="#0F0C39"/>
<path fill-rule="evenodd" clip-rule="evenodd" d="M57.2344 122.695C67.4491 140.927 62.7005 139.384 79.9974 124.865L63.8174 116.194C63.1454 115.84 62.4465 115.767 61.72 115.985C60.9846 116.203 60.4397 116.657 60.0858 117.32L57.2344 122.695ZM102.769 122.695L95.8506 135.044C95.7065 135.304 95.5062 135.529 95.2643 135.703C95.0224 135.876 94.745 135.994 94.4521 136.047C94.1591 136.1 93.8581 136.087 93.5708 136.009C93.2834 135.931 93.017 135.791 92.7907 135.597L79.9974 124.865L96.1773 116.194C96.849 115.84 97.5576 115.767 98.2837 115.985C99.0102 116.203 99.555 116.657 99.909 117.32L102.769 122.695Z" fill="#4F46E5"/>
<path d="M62.8555 70.4964C62.8559 69.9595 63.0693 69.4448 63.449 69.0652C63.8286 68.6856 64.3433 68.4721 64.8802 68.4717C65.9878 68.4717 66.8959 69.3794 66.8959 70.4964V73.7197C66.8959 74.8273 65.9878 75.7354 64.8802 75.7354C63.7632 75.7354 62.8555 74.8273 62.8555 73.7197V70.4964ZM93.1 70.4964C93.1 69.3794 94.0081 68.4717 95.1247 68.4717C96.2413 68.4717 97.1404 69.3794 97.1404 70.4964V73.7197C97.1404 74.8273 96.2416 75.7354 95.1247 75.7354C94.0078 75.7354 93.1 74.8273 93.1 73.7197V70.4964Z" fill="#442A19"/>
<path d="M91.5312 87.5382C91.5312 90.7253 90.242 93.6036 88.1536 95.6918C86.0651 97.7802 83.1868 99.0694 80 99.0694C76.8129 99.0694 73.9346 97.7802 71.8464 95.6918C69.758 93.6033 68.4688 90.725 68.4688 87.5382C68.469 87.0037 68.6815 86.4911 69.0594 86.1131C69.4374 85.7352 69.95 85.5227 70.4845 85.5225H89.5155C89.7804 85.5219 90.0427 85.5737 90.2876 85.6748C90.5324 85.7759 90.7548 85.9243 90.9421 86.1116C91.1294 86.2989 91.2778 86.5214 91.3789 86.7662C91.48 87.011 91.5318 87.2733 91.5312 87.5382Z" fill="#F7F7F6"/>
</svg>
